<svg enable-background="new 0 0 882.423 723.276" height="286.410981" viewBox="0 0 882.423 723.276" width="349.148624" xmlns="http://www.w3.org/2000/svg"><path d="m820.818 282.688-8.808-8.816-26.9 26.896 15.576 15.572zm-59.94-6.156 15.568 15.572 26.896-26.896-8.808-8.808zm-67.328 168.9 28.028 3.112 72.62-121.364-17.752-17.744-96.452 96.452 5.844 32.42c.676 3.8 3.848 6.74 7.712 7.124m45.624-190.604 12.768 12.768 33.652-20.136-9.02-9.024zm-144.584 63.376c-3.472 1.52-5.616 4.94-5.456 8.724.156 3.752 2.556 6.956 6.112 8.168l27.984 9.516 117.868-70.528-13.972-13.972zm6.388 31.788-362.884 362.884 8.664 8.664 367.156-367.148zm37.932 41.384 32.42 5.848 96.452-96.456-17.744-17.744-121.364 72.616 3.108 28.032c.388 3.86 3.324 7.032 7.128 7.704m-239.704-1.6 30.736-30.74-27.928-27.928-30.74 30.736zm11.472-67.336 27.932 27.932 30.732-30.736-27.928-27.932zm41.8 41.796 27.936 27.932 30.732-30.736-27.932-27.932zm19.268 36.6-27.936-27.932-30.732 30.732 27.932 27.936zm-67.336 11.468-309.24 309.236-13.864-13.868 309.232-309.232-56.204-56.204 8.668-8.668 19.604 19.612 30.74-30.74-19.608-19.608 8.664-8.668 19.612 19.612 30.736-30.736-19.612-19.612 8.664-8.664 56.208 56.208 309.236-309.236 13.864 13.864-309.228 309.232 56.204 56.208-8.664 8.668-19.608-19.612-30.736 30.74 19.608 19.608-8.664 8.668-19.608-19.612-30.74 30.736 19.608 19.608-8.664 8.668zm405.208-87.032 12.772 12.772 16.388-37.396-9.024-9.028zm61.36-119.148c-15.252-15.256-39.992-15.256-55.248 0l-9.74 9.74 55.252 55.252 9.736-9.744v.004c15.26-15.256 15.26-39.996 0-55.252m-82.316 27.072 55.252 55.248 8.664-8.664-55.256-55.248zm-56.06 220.792 9.516 27.984c1.212 3.556 4.42 5.956 8.168 6.112 3.788.156 7.208-1.984 8.724-5.46l58.092-132.532-13.972-13.976zm-64.484-44.892-7.34-1.324-305.1 305.104 8.66 8.664 305.104-305.1zm47.672 156.98-30.732 30.736 30.528 30.532 30.736-30.736zm39.2 39.2-30.74 30.732 30.528 30.532 30.74-30.736zm-8.876 69.928-30.528-30.528-30.736 30.736 30.528 30.528zm-69.928-8.456 30.732-30.74-30.528-30.532-30.736 30.74zm19.992-137.62 106.672 106.676-87.472 87.472-106.672-106.676 8.664-8.664 19.616 19.616 30.736-30.74-19.616-19.616 8.664-8.664 19.62 19.616 30.736-30.736-19.616-19.62zm-196.392-38.776-8.664 8.668 28.28 28.276 87.468-87.472-28.276-28.276-8.668 8.664 19.612 19.612-30.736 30.736-19.612-19.612-8.664 8.668 19.608 19.608-30.732 30.736zm223.04-27.048-249.564 249.564 8.664 8.668 245.3-245.296zm-65.824 43.984 8.668-8.664-28.268-28.272-87.476 87.472 28.272 28.268 8.668-8.664-19.608-19.604 30.74-30.736 19.6 19.604 8.668-8.668-19.604-19.6 30.74-30.736zm-442.7-193.108 7.34 1.32 305.104-305.1-8.664-8.664-305.104 305.1zm73.528 90.892c3.472-1.516 5.616-4.94 5.456-8.724-.156-3.752-2.552-6.956-6.108-8.168l-27.984-9.516-117.872 70.528 13.972 13.972zm-62.412-189.084-8.668 8.664 28.268 28.272 87.476-87.472-28.272-28.268-8.66 8.664 19.6 19.604-30.74 30.736-19.604-19.604-8.66 8.668 19.6 19.6-30.74 30.74zm157.216 16.936 8.664-8.664-28.272-28.28-87.472 87.472 28.272 28.276 8.668-8.664-19.608-19.612 30.732-30.736 19.616 19.608 8.664-8.664-19.612-19.608 30.74-30.736zm-239.384 235.524-12.772-12.768-33.652 20.136 9.024 9.024zm-21.704-21.708-15.572-15.568-26.892 26.896 8.808 8.808zm159.896-73.456 362.884-362.884-8.664-8.664-367.148 367.148zm-92.564-95.44-28.032-3.112-72.616 121.364 17.744 17.744 96.452-96.452-5.844-32.42c-.672-3.8-3.844-6.74-7.704-7.124m-127.276 162.744 8.812 8.816 26.896-26.896-15.572-15.572zm192.148-72.952-3.112-28.032c-.384-3.864-3.324-7.032-7.124-7.704l-32.424-5.844-96.452 96.452 17.752 17.744zm-94.156-107.664 249.564-249.564-8.664-8.668-245.296 245.296zm-9.776 9.316-9.516-27.984c-1.212-3.556-4.416-5.956-8.168-6.112-3.784-.16-7.208 1.984-8.72 5.456l-58.1 132.536 13.976 13.976zm-138.376 192.612c-15.256 15.256-15.256 39.996 0 55.252s39.992 15.256 55.252 0l9.736-9.74-55.248-55.252zm82.316 28.18-55.248-55.252-8.664 8.668 55.252 55.248zm72.872-332.88 30.74-30.736-30.536-30.532-30.736 30.736zm-39.196-39.2 30.736-30.736-30.528-30.528-30.736 30.736zm8.872-69.928 30.528 30.528 30.74-30.736-30.528-30.532zm69.932 8.456-30.736 30.736 30.532 30.532 30.732-30.736zm-19.988 137.62-106.672-106.676 87.468-87.472 106.676 106.676-8.668 8.668-19.62-19.62-30.736 30.74 19.616 19.616-8.664 8.664-19.616-19.616-30.74 30.736 19.62 19.62zm-133.584 237.508-9.024-9.028 16.392-37.396 12.772 12.772z"/></svg>