<svg enable-background="new 0 0 441.213 441.214" height="316.227766" viewBox="0 0 441.213 441.214" width="316.227766" xmlns="http://www.w3.org/2000/svg"><path d="m196.373 308.404c-5.922-1.476-10.068.918-12.72 3.624 20.258 5.154 71.352 61.562 76.76 69.328 1.906 2.736 1.634 5.138 1.07 6.672-1.062 2.888-4.01 4.876-6.654 6.132 14.252 15.836 18.838 26.028 20.294 31.356 2.868-.926 7.918-2.536 12.468-3.894 2.28-.68 4.112-2.44 4.784-4.72 5.466-18.518-25.064-44.83-42.592-63.672-24.914-24.612-41.778-41.922-53.41-44.826m187.82-235.786-4.338 4.336c41.724 46.178 59.816 106.122 54.246 164.234l6.1.59c5.738-59.872-12.942-121.632-56.008-169.16m-154.092 147.988c0-5.244-4.25-9.496-9.496-9.496s-9.5 4.252-9.5 9.496c0 5.246 4.254 9.5 9.5 9.5s9.496-4.254 9.496-9.5m138.628 141.138 31.828 31.882-6.934 6.932-31.88-31.88c-17.178 16.376-37.186 29.812-59.214 39.472-.45-3.156-1.396-6.33-2.734-9.506 20.432-9.124 39.014-21.668 55.02-36.894l-40.682-40.682c-15.442 14.392-33.388 24.562-52.376 30.51-1.666-1.714-3.256-3.376-4.742-4.972 19.146-5.514 37.282-15.472 52.782-29.874l-82.17-82.172c-4.406 2.218-9.636 2.218-14.04 0l-82.174 82.174c15.66 14.548 34.01 24.562 53.376 30.04.062.136.124.26.188.398.924 1.952 1.86 4.224 2.796 6.736-22.052-5.41-43.022-16.354-60.702-32.834l-40.664 40.666c31.046 29.532 71.782 48.97 116.896 52.96.22 1.416 1.174 5.872 4.74 10.184-49.7-3.026-94.66-23.872-128.572-56.208l-31.884 31.882-6.932-6.932 165.998-165.998c-2.216-4.408-2.216-9.636 0-14.04l-16.57-16.572c-9.33 12.042-10.58 28.322-3.698 41.48l-17.058 17.79c-12.382-17.756-14.514-40.484-6.332-59.936l-5.646-2.378c-9.124 21.69-6.606 47.11 7.558 66.736l-7.866 7.864c-14.854-19.64-19.434-44.572-13.678-67.466l-5.94-1.5c-6.268 24.924-1.198 52.112 15.218 73.366l-7.836 7.834c-16.03-20.134-22.91-45.16-20.578-69.49l-6.1-.588c-2.5 26.09 4.964 52.934 22.322 74.436l-7.85 7.85c-27.434-33.268-33.116-78.434-17.044-116.64l-5.648-2.378c-17.01 40.434-10.89 88.266 18.346 123.366l-7.812 7.81c-36.9-43.616-40.82-105.614-11.668-153.098l-5.224-3.204c-30.604 49.848-26.39 114.974 12.548 160.648l-7.836 7.834c-34.98-40.538-44.436-95.49-28.308-143.812l-5.812-1.944c-16.84 50.456-6.892 107.852 29.778 150.098l-7.818 7.82c-36.818-42.008-48.816-98.18-35.932-149.412l-5.942-1.5c-13.392 53.254-.86 111.656 37.532 155.254l-7.814 7.812c-47.666-53.716-58.246-128.77-31.674-191.942l-5.648-2.378c-27.512 65.4-16.496 143.126 32.982 198.662l-11.278 11.276c-71.14-79.122-69.712-200.306 4.154-277.816l-31.826-31.882 6.932-6.932 31.882 31.88c17.178-16.376 37.184-29.81 59.214-39.47.448 3.156 1.394 6.328 2.734 9.506-20.432 9.122-39.014 21.666-55.022 36.892l40.682 40.68c15.44-14.39 33.39-24.562 52.378-30.51 1.664 1.716 3.256 3.378 4.742 4.974-19.148 5.514-37.282 15.472-52.784 29.872l82.174 82.174c4.404-2.216 9.634-2.216 14.04 0l82.17-82.172c-15.66-14.548-34.008-24.562-53.372-30.04-.066-.138-.126-.262-.192-.4-.922-1.952-1.856-4.224-2.794-6.734 22.05 5.408 43.02 16.352 60.7 32.834l40.666-40.668c-31.046-29.532-71.784-48.97-116.896-52.96-.222-1.416-1.178-5.872-4.74-10.184 49.7 3.026 94.66 23.874 128.572 56.208l31.882-31.882 6.934 6.932-165.998 166c2.216 4.404 2.216 9.632 0 14.04l16.572 16.57c9.308-12.016 10.572-28.25 3.738-41.394l17.014-17.874c12.38 17.756 14.51 40.482 6.33 59.934l5.646 2.378c9.124-21.69 6.606-47.108-7.556-66.734l7.866-7.864c14.854 19.64 19.432 44.57 13.676 67.464l5.94 1.5c6.268-24.924 1.2-52.11-15.216-73.364l7.834-7.836c16.03 20.136 22.91 45.162 20.578 69.49l6.1.588c2.502-26.09-4.964-52.932-22.322-74.434l7.852-7.852c27.432 33.268 33.114 78.436 17.042 116.642l5.648 2.376c17.008-40.434 10.89-88.266-18.344-123.364l7.81-7.81c36.902 43.616 40.82 105.614 11.666 153.096l5.226 3.204c30.606-49.846 26.392-114.972-12.546-160.646l7.834-7.834c34.98 40.538 44.438 95.49 28.31 143.81l5.812 1.944c16.838-50.454 6.892-107.85-29.778-150.098l7.82-7.82c36.814 42.01 48.812 98.182 35.928 149.414l5.942 1.5c13.392-53.256.86-111.656-37.53-155.254l7.814-7.812c47.664 53.714 58.246 128.768 31.672 191.94l5.648 2.378c27.512-65.4 16.496-143.124-32.98-198.66l11.278-11.278c71.142 79.122 69.714 200.306-4.154 277.816m-174.056-312.562c-.298 1.04-1.122 1.844-2.164 2.12-2.916.776-6.522 2.612-7.03 4-.038.1-.134.364.348 1.056 3.262 4.682 18.242 21.394 34.294 36.92 27.338 26.442 37.016 29.892 39.908 30.15.112.01.208.012.302.012-.088-.742-.342-1.472-.772-2.128-1.976-3.02-5.796-9.566-12.188-23.078-1.768-3.736-3.504-8.318-5.164-13.334h-7.664c-1.692 0-3.064-1.372-3.064-3.066 0-1.692 1.372-3.062 3.064-3.062h5.726c-.536-1.772-1.06-3.576-1.572-5.396h-9.072c-1.692 0-3.066-1.372-3.066-3.064s1.374-3.064 3.066-3.064h7.404c-.476-1.804-.938-3.606-1.386-5.394h-10.938c-1.69 0-3.062-1.372-3.062-3.064 0-1.694 1.372-3.064 3.062-3.064h9.438c-.438-1.838-.858-3.64-1.258-5.396h-13.096c-1.694 0-3.064-1.37-3.064-3.064 0-1.692 1.37-3.062 3.064-3.062h11.726c-1.452-6.648-2.536-12.094-3.126-15.15-.278-1.432-1.948-2.088-3.134-1.24-3.634 2.602-4.846 6.328-4.846 6.328s-14.116 3.024-23.746-7.8c-9.632-10.826-2.628-25.298-2.628-25.298-1.048-.698-2.24-1.04-3.43-1.044-1.616-.004-3.222.618-4.442 1.822-5.746 5.674-11.094 9.31-14.388 11.282.802 3.69 4.558 14.384 22.184 33.136.738.788 1.01 1.906.714 2.942m50.166 83.628c5.922 1.478 10.066-.918 12.718-3.624-20.252-5.152-71.35-61.562-76.76-69.326-1.906-2.738-1.634-5.14-1.07-6.674 1.062-2.888 4.01-4.876 6.656-6.132-14.252-15.836-18.84-26.028-20.294-31.356-2.868.926-7.918 2.536-12.47 3.894-2.278.68-4.11 2.44-4.784 4.72-5.466 18.518 25.064 44.83 42.592 63.672 24.914 24.612 41.778 41.922 53.412 44.826m1.698 259.222c.3-1.04 1.122-1.844 2.166-2.12 2.914-.778 6.522-2.612 7.028-4 .036-.1.134-.364-.346-1.054-3.262-4.684-18.242-21.394-34.296-36.922-27.336-26.44-37.016-29.892-39.908-30.148-.11-.01-.206-.012-.3-.014.086.744.342 1.472.77 2.13 1.976 3.018 5.798 9.564 12.188 23.076 1.768 3.736 3.504 8.32 5.166 13.336h7.664c1.692 0 3.062 1.37 3.062 3.064 0 1.692-1.37 3.064-3.062 3.064h-5.726c.532 1.772 1.058 3.574 1.572 5.394h9.072c1.692 0 3.062 1.372 3.062 3.064s-1.37 3.064-3.062 3.064h-7.404c.474 1.804.938 3.604 1.386 5.394h10.936c1.692 0 3.062 1.372 3.062 3.064s-1.37 3.066-3.062 3.066h-9.436c.438 1.838.858 3.638 1.258 5.394h13.096c1.692 0 3.062 1.372 3.062 3.064s-1.37 3.064-3.062 3.064h-11.726c1.45 6.646 2.534 12.092 3.126 15.148.278 1.432 1.946 2.09 3.132 1.24 3.634-2.602 4.846-6.328 4.846-6.328s14.116-3.024 23.748 7.8c9.63 10.826 2.628 25.298 2.628 25.298 1.046.698 2.24 1.04 3.426 1.044 1.618.004 3.226-.618 4.444-1.822 5.746-5.674 11.096-9.31 14.388-11.282-.8-3.69-4.558-14.384-22.184-33.136-.74-.786-1.012-1.904-.714-2.942m-189.52-23.436c-43.064-47.528-61.744-109.288-56.006-169.158l6.1.588c-5.568 58.112 12.52 118.056 54.244 164.234z"/></svg>