<svg enable-background="new 0 0 441.212 441.212" height="316.227766" viewBox="0 0 441.212 441.212" width="316.227766" xmlns="http://www.w3.org/2000/svg"><path d="m255.388 190.622c.31 2.14.592 5.942-.312 10.336-.902 4.394-3.048 9.444-7.464 13.958l-30.48 31.162c-5.846 5.846-15.094 6.076-21.58-.41-6.484-6.484-6.254-15.732-.408-21.578l31.162-30.482c4.512-4.416 9.562-6.56 13.956-7.462 4.396-.904 8.196-.624 10.336-.312 1.238.178 2.34.766 3.172 1.616.852.832 1.438 1.936 1.618 3.172m138.498-146.618-168.376 143.642v-74.296l6.422-16.058c9.96-24.9 13.014-58.434 7.428-81.552-.97-4.022-3.8-10.38-5.678-13.374-1.216-1.938-3.554-2.804-5.822-2.15-4.692 1.348-23.184 19.724-23.184 36.534v22.216c0 14.032 2.248 27.892 6.684 41.202l4.346 13.032-.002 82.938c-2.242 1.97-4.466 3.962-6.688 5.954l-18.296-18.296 18.856-18.858v-8.664l-23.19 23.188-19.008-19.006 42.198-42.196.002-4.066-1.15-3.45-45.382 45.378-19.006-19.006 56.27-56.268c-.412-2.544-.728-5.102-.998-7.668l-59.606 59.602-19.006-19.006 77.874-77.87c.21-7.032 2.996-14.258 6.822-20.688l-91.63 91.624-66.178-66.18-6.932 6.934 66.178 66.18-106.834 106.83 6.932 6.934 106.834-106.832 19.008 19.008-80.894 80.89 4.334 4.332 80.892-80.89 19.008 19.008-57.552 57.55 4.332 4.332 57.552-57.55 19.008 19.008-34.212 34.21 4.332 4.332 34.212-34.21 17.966 17.966c-15.628 14.346-30.734 29.238-45.262 44.676-21.564 22.914-41.894 47.004-60.9 72.178l-51.684 68.458c-.826 1.094-.546 2.334.214 3.094.762.76 2 1.042 3.096.216l68.456-51.686c25.174-19.006 49.264-39.332 72.178-60.898 9.5-8.94 18.784-18.104 27.874-27.464l.002 70.744-4.348 13.034c-4.434 13.308-6.684 27.17-6.684 41.2v22.218c0 16.808 18.494 35.186 23.186 36.534.506.146 1.012.214 1.51.214 1.742 0 3.37-.856 4.31-2.362 1.88-2.996 4.708-9.352 5.68-13.378 5.586-23.118 2.532-56.654-7.428-81.55l-6.422-16.058-.002-80.86c2.348-2.498 4.68-5.01 6.998-7.536l17.968 17.968-18.838 18.834.002 8.666 23.168-23.168 19.008 19.006-42.176 42.174v3.736l1.408 3.522 45.1-45.098 19.008 19.006-54.166 54.164c.594 2.316 1.134 4.664 1.628 7.036l56.87-56.866 19.006 19.006-72.282 72.28c-.004 5.042-.262 9.95-.778 14.644l79.994-79.99 66.178 66.18 6.934-6.934-66.18-66.178 106.834-106.832-6.932-6.932-106.834 106.83-19.008-19.008 80.894-80.89-4.332-4.332-80.894 80.89-19.008-19.008 57.554-57.55-4.334-4.332-57.554 57.55-19.004-19.008 34.212-34.21-4.334-4.332-34.212 34.21-18.298-18.298c4.678-5.212 9.302-10.472 13.858-15.8l144.23-169.068c.948-1.108.668-2.414-.124-3.206s-2.098-1.072-3.206-.126"/></svg>