<svg enable-background="new 0 0 441.212 441.212" height="316.227766" viewBox="0 0 441.212 441.212" width="316.227766" xmlns="http://www.w3.org/2000/svg"><path d="m195.73 330.852c-1.62 7.378-3.168 14.38-10.852 22.808l4.342 4.34c7.934-8.612 10.248-16.016 11.886-23.108l-5.134-5.132c-.08.364-.16.728-.242 1.092m-20.564 60.22 5.1 5.102c.32-.07.638-.142.958-.212 7.264-1.596 14.744-3.256 23.422-10.404l-4.36-4.358c-7.368 5.902-13.72 7.314-20.376 8.778-1.568.344-3.146.69-4.744 1.094m-30.66-18.526c-4.372 2.04-8.99 5.102-14.03 10.142-1.978 1.978-3.644 3.89-5.072 5.75l4.38 4.378c1.372-1.862 3.014-3.786 5.024-5.796 5.226-5.224 9.884-8.038 14.362-9.808zm93.366-83.834c-8.452 1.856-17.194 3.776-27.778 14.36-6.276 6.276-9.496 11.902-11.474 17.206l4.84 4.84c1.67-5.53 4.428-11.174 10.968-17.714 9.316-9.316 16.818-10.964 24.76-12.708 7.908-1.736 16.068-3.532 25.754-12.424l-4.34-4.34c-8.396 7.62-15.374 9.164-22.73 10.78m1.164 85.444c-1.62 7.38-3.168 14.38-10.85 22.81l4.34 4.34c7.932-8.612 10.248-16.016 11.884-23.108l-5.13-5.132c-.082.364-.162.728-.244 1.09m-72.878 20.042c-4.37 2.04-8.988 5.104-14.028 10.142-1.98 1.98-3.646 3.89-5.074 5.75l4.38 4.38c1.374-1.864 3.016-3.788 5.026-5.796 5.228-5.226 9.882-8.04 14.362-9.81zm91.576-43.488c9.316-9.318 16.816-10.964 24.76-12.708 7.906-1.738 16.068-3.532 25.754-12.424l-4.34-4.342c-8.394 7.62-15.374 9.164-22.73 10.78-8.452 1.856-17.192 3.776-27.778 14.362-6.276 6.276-9.494 11.9-11.472 17.204l4.84 4.842c1.67-5.53 4.426-11.176 10.966-17.714m-40.35 1.794c-1.622 7.38-3.17 14.38-10.852 22.81l4.34 4.34c7.934-8.614 10.248-16.018 11.886-23.108l-5.132-5.134c-.082.366-.162.73-.242 1.092m-43.6 73.49c-1.98 1.978-3.648 3.89-5.074 5.748l4.38 4.38c1.372-1.864 3.018-3.786 5.026-5.796 5.226-5.226 9.88-8.038 14.362-9.81l-4.666-4.666c-4.37 2.042-8.988 5.104-14.028 10.144m85.742-115.63c-8.454 1.856-17.194 3.776-27.778 14.362-6.278 6.276-9.498 11.9-11.474 17.204l4.84 4.84c1.67-5.53 4.426-11.174 10.966-17.712 9.316-9.318 16.818-10.964 24.76-12.708 7.908-1.738 16.068-3.534 25.756-12.426l-4.342-4.34c-8.392 7.62-15.374 9.164-22.728 10.78m-101.268 57.962c-1.568.342-3.146.69-4.746 1.094l5.102 5.1c.32-.07.638-.14.958-.21 7.264-1.598 14.744-3.256 23.422-10.404l-4.36-4.358c-7.368 5.9-13.72 7.314-20.376 8.778m217.62 7.508c-4.966-8.398-11.32-15.556-18.094-22.426-6.876-6.766-14.04-13.118-22.428-18.094 4.978 8.388 11.328 15.55 18.096 22.426 6.868 6.776 14.028 13.13 22.426 18.094m-122.31-148.642c13.866-16.89 18.046-33.464 6.224-45.284-11.822-11.822-28.396-7.642-45.288 6.222-18.378 15.084-46.892 35.454-21.64 60.704 17.5 17.5 32.656 9.174 45.336-3.704l-17.594-17.592-5.268 5.27c-1.912 1.914-5.018 1.914-6.932 0-1.914-1.916-1.914-5.018 0-6.932l17.468-17.47c1.912-1.914 5.018-1.914 6.932 0 1.916 1.914 1.916 5.018 0 6.932l-5.27 5.268 17.26 17.258c3.098-3.636 6.024-7.322 8.772-10.672m153.744 142.002c2.35 2.35 3.64 5.462 3.64 8.774 0 3.31-1.29 6.424-3.632 8.766l-10.336 10.336c-.036.038-.074.076-.112.114l-10.41 10.41c-2.342 2.34-5.454 3.63-8.762 3.63-3.314 0-6.426-1.29-8.768-3.632l-34.82-34.678c-13.878-13.874-14.244-38.914-14.054-45.926l-73.392-73.39c-3.83 4.054-7.7 8.1-11.64 12.12-2.18 2.226-4.438 4.37-6.774 6.426-2.336 2.058-4.748 4.028-7.234 5.902-9.232 6.958-29.994 23.03-59.534 44.278-29.542 21.25-67.862 47.676-112.204 75.346-1.874 1.168-3.894.668-5.152-.59-1.26-1.26-1.76-3.28-.592-5.152 27.67-44.342 54.098-82.662 75.348-112.202 21.248-29.54 37.32-50.302 44.28-59.532 1.874-2.486 3.844-4.898 5.902-7.234 2.056-2.336 4.202-4.594 6.426-6.774 41.098-40.264 84.224-74.924 122.172-102.574s70.716-48.288 91.104-60.506c3.038-1.82 6.284-1.004 8.316 1.028 2.032 2.03 2.848 5.276 1.028 8.314-12.22 20.386-32.858 53.156-60.508 91.102-23.354 32.05-51.728 67.79-84.236 102.886l74.024 74.02c7.97-.12 31.752.712 45.1 14.06zm22.636-182.246-22.9 22.898 11.264 11.266 22.9-22.898zm-112.312 112.306 11.266 11.266 22.812-22.814-11.264-11.264zm63.91-41.378-11.262-11.266-22.902 22.9 11.264 11.264zm-120.856 137.934c-1.622 7.378-3.168 14.378-10.852 22.808l4.34 4.34c7.934-8.612 10.25-16.016 11.886-23.108l-5.132-5.132c-.082.364-.162.728-.242 1.092m-38.75 7.042c-7.368 5.902-13.72 7.316-20.378 8.778-1.566.344-3.146.692-4.744 1.096l5.102 5.1c.318-.07.636-.142.958-.212 7.264-1.596 14.744-3.254 23.42-10.402zm1.274 30.43c-1.566.344-3.144.692-4.74 1.096l5.102 5.104c.318-.07.634-.146.956-.216 7.262-1.596 14.742-3.254 23.42-10.402l-4.358-4.358c-7.368 5.9-13.722 7.314-20.38 8.776m102.868-58.314c-.532.118-1.062.236-1.598.354-8.452 1.856-17.192 3.776-27.778 14.36-6.276 6.276-9.496 11.902-11.472 17.206l4.84 4.84c1.668-5.53 4.426-11.174 10.964-17.714 9.32-9.316 16.822-10.964 24.76-12.708 1.69-.372 3.394-.748 5.12-1.194l-1.996-1.988c-1.01-1.008-1.952-2.066-2.84-3.156m-21.936-15.314c3.97-.872 8.004-1.77 12.26-3.558-.618-2.02-1.13-4.034-1.564-6.01-4.084 1.838-7.992 2.7-12.01 3.582-8.454 1.858-17.194 3.778-27.778 14.362-6.276 6.276-9.496 11.902-11.474 17.206l4.84 4.84c1.67-5.53 4.428-11.174 10.966-17.714 9.318-9.316 16.818-10.964 24.76-12.708m-21.802 57.808c-1.622 7.372-3.196 14.376-10.866 22.796l-.906.954h8.142c5.644-7.19 7.582-13.568 9.004-19.708l-5.134-5.134c-.08.364-.16.73-.24 1.092m-63.072-379.102c7.368-5.902 13.718-7.314 20.376-8.778 1.568-.344 3.146-.69 4.744-1.094l-5.1-5.102c-.32.07-.638.142-.96.212-7.262 1.596-14.742 3.254-23.418 10.402zm-15.932 114.14c8.452-1.856 17.194-3.776 27.778-14.36 6.276-6.276 9.496-11.902 11.474-17.206l-4.842-4.84c-1.668 5.53-4.426 11.174-10.966 17.714-9.316 9.316-16.818 10.964-24.758 12.708-8.454 1.856-17.194 3.776-27.778 14.362l4.332 4.332c9.316-9.318 16.818-10.964 24.76-12.71m62.706-102.36-5.1-5.102c-.32.072-.638.142-.958.212-7.264 1.596-14.746 3.256-23.422 10.404l4.36 4.358c7.368-5.9 13.718-7.314 20.376-8.778 1.568-.344 3.148-.69 4.744-1.094m-20.566 60.222c1.622-7.38 3.168-14.382 10.854-22.81l-4.342-4.34c-7.934 8.612-10.248 16.016-11.884 23.108l5.132 5.132c.08-.364.16-.728.24-1.09m-21.652-21.654c1.622-7.378 3.168-14.38 10.854-22.81l-4.342-4.34c-7.934 8.614-10.248 16.018-11.886 23.11l5.132 5.132c.082-.366.162-.73.242-1.092m-42.14 42.142c8.45-1.858 17.192-3.778 27.776-14.362 6.278-6.278 9.496-11.902 11.476-17.206l-4.842-4.84c-1.668 5.53-4.426 11.174-10.966 17.712-9.318 9.318-16.818 10.966-24.76 12.71-8.452 1.856-17.192 3.776-27.778 14.362l4.334 4.332c9.316-9.318 16.818-10.964 24.76-12.708m101.266-57.962c1.57-.344 3.148-.692 4.748-1.096l-5.104-5.1c-.318.07-.638.14-.958.212-7.264 1.596-14.746 3.254-23.422 10.402l4.36 4.358c7.37-5.9 13.72-7.314 20.376-8.776m13.752-4.222c4.372-2.04 8.992-5.102 14.03-10.142 1.976-1.978 3.644-3.89 5.07-5.748l-4.378-4.38c-1.372 1.864-3.016 3.786-5.024 5.796-5.228 5.226-9.882 8.038-14.364 9.808zm-243.974 121.604-22.9 22.898 11.266 11.266 22.9-22.9zm130.746-99.768c-9.318 9.318-16.818 10.964-24.76 12.71-8.452 1.856-17.19 3.776-27.776 14.36l4.334 4.332c9.316-9.316 16.818-10.964 24.758-12.708 8.452-1.856 17.19-3.776 27.776-14.362 6.278-6.276 9.496-11.9 11.474-17.204l-4.84-4.84c-1.668 5.53-4.426 11.174-10.966 17.712m18.698-23.446c1.62-7.378 3.168-14.38 10.852-22.81l-4.34-4.34c-7.936 8.612-10.25 16.018-11.888 23.108l5.134 5.132c.08-.364.162-.728.242-1.09m72.878-20.042c4.37-2.04 8.988-5.102 14.028-10.142 1.978-1.978 3.644-3.89 5.072-5.75l-4.378-4.378c-1.374 1.862-3.018 3.786-5.026 5.796-5.226 5.226-9.882 8.038-14.362 9.81zm-151.478 94.944-11.266-11.264-22.812 22.812 11.266 11.264zm65.506 42.8-142.796-142.792-4.334 4.332 142.654 142.65c1.492-1.406 2.982-2.8 4.476-4.19m-129.418-1.42 11.266 11.264 22.9-22.9-11.266-11.264zm57.064-117.448c8.454-1.856 17.192-3.776 27.778-14.36 6.276-6.276 9.496-11.902 11.472-17.206l-4.84-4.84c-1.668 5.53-4.428 11.174-10.964 17.714-9.318 9.318-16.82 10.964-24.76 12.708-8.454 1.856-17.194 3.778-27.78 14.36l4.332 4.334c9.318-9.318 16.82-10.964 24.762-12.71m-116.728 177.11 11.264 11.264 22.9-22.898-11.264-11.264zm217.998-235.07c1.566-.344 3.144-.692 4.74-1.096l-5.102-5.104c-.32.07-.634.146-.954.216-7.264 1.596-14.744 3.254-23.42 10.402l4.356 4.358c7.368-5.9 13.72-7.314 20.38-8.776m-59.13 15.82c1.62-7.372 3.194-14.374 10.864-22.796l.908-.954h-8.144c-5.64 7.19-7.58 13.568-9.002 19.71l5.134 5.132c.08-.364.16-.728.24-1.092m108.56-8.532c1.98-1.976 3.646-3.888 5.074-5.748l-4.38-4.38c-1.374 1.864-3.016 3.788-5.024 5.796-5.228 5.228-9.884 8.04-14.364 9.81l4.666 4.666c4.372-2.04 8.99-5.102 14.028-10.144m109.786 224.46 11.266 11.264 22.898-22.898-11.262-11.264zm-196.69-194.274c1.618-7.38 3.168-14.38 10.85-22.808l-4.34-4.342c-7.934 8.612-10.25 16.016-11.886 23.108l5.134 5.134c.08-.366.162-.73.242-1.092m-18.698 23.446c6.54-6.54 9.296-12.184 10.964-17.712l4.84 4.84c-1.976 5.304-5.194 10.928-11.472 17.204-10.586 10.584-19.324 12.504-27.778 14.362-7.94 1.744-15.442 3.392-24.762 12.708l-4.332-4.332c10.586-10.586 19.328-12.504 27.78-14.362 7.94-1.744 15.442-3.392 24.76-12.708"/></svg>