<svg enable-background="new 0 0 359.932 441.212" height="350.223143" viewBox="0 0 359.932 441.212" width="285.532244" xmlns="http://www.w3.org/2000/svg"><path d="m.662 393.228 6.932 6.934 77.214-77.212-6.934-6.934zm92.064-266.781-85.792-85.792-6.934 6.932 85.794 85.792zm44.896 71.202 5.286-3.096c-9.8-16.738-25.304-29.276-43.652-35.302l-1.914 5.822c16.93 5.56 31.234 17.128 40.28 32.576m70.79 45.038-18.668-33.664-59.464 77.056zm53.822 25.279c-.388 1.868-1.764 3.364-3.592 3.904l-48.882 14.462c-3.098.916-6.362-.858-7.278-3.954-.718-2.422.192-5.02 2.262-6.466l15.928-11.118-7.506-13.534-89.62 49.776-7.192-12.958 68.212-88.396-9.44-17.022 8.572-4.756 9.098 16.404 81.414-24.09 5.092 7.916-26.716 30.752c9.824 6.654 22.428 9.036 34.666 5.416 21.708-6.424 34.144-29.314 27.72-51.03-6.426-21.714-29.314-34.154-51.022-27.732-18.046 5.34-29.672 22.06-29.394 40.022l-19.282 5.704c-3.038-28.552 14.596-56.092 43.112-64.528 32.128-9.506 65.882 8.838 75.388 40.97 9.508 32.136-8.83 65.892-40.958 75.398-28.516 8.436-58.296-5.076-71.282-30.684l19.28-5.706c1.292 2.06 2.758 3.976 4.364 5.748l15.704-18.078-63.216 18.706 18.3 33 12.264-14.116c2.316 2.326 4.8 4.462 7.414 6.414l-14.618 16.826 7.728 13.936.592-.412c2.028-1.416 4.228-2.458 6.512-3.134 7.128-2.11 15.05-.632 20.98 4.314l3.646 3.038c1.462 1.222 2.134 3.141 1.75 5.008m-131.584 57.242-51.724-93.208-8.572 4.758 19.786 35.65c-1.248.508-2.53.962-3.846 1.352-21.712 6.422-44.598-6.018-51.022-27.732-6.426-21.714 6.008-44.606 27.716-51.03 21.71-6.422 44.598 6.018 51.022 27.732 4.504 15.222-.268 31.012-10.994 41.312l9.742 17.554c18.53-14.974 27.236-40.16 20.058-64.428-9.508-32.136-43.26-50.478-75.39-40.972-32.128 9.506-50.466 43.262-40.958 75.396s43.26 50.478 75.388 40.972c2.718-.804 5.326-1.802 7.836-2.94l17.628 31.768-14.246 7.906 21.548 38.824 8.572-4.756-16.79-30.254zm9.922-239.803c1.292 1.092 3.226.93 4.32-.362l7.236-8.564c1.094-1.292.93-3.226-.364-4.318-1.288-1.092-3.224-.93-4.316.362l-7.236 8.562c-1.094 1.294-.932 3.226.36 4.32m32.246 7.82h20.412v-23.522l-11.896-3.322c-6.018-1.58-11.58-2.29-14.63 2.202-2.654 3.908-4.03 6.47-5.328 10.274-2.398 7.036 8.808 12.596 11.442 14.368m-46.47-13.052c-5.408-9.886-8.114-24.46-.606-40.276h6.52c1.692 0 3.064-1.372 3.064-3.064s-1.372-3.064-3.064-3.064h-3.106c1.62-2.54 3.518-5.1 5.726-7.666-.16.96.134 1.978.886 2.706.594.576 1.366.864 2.132.864.8 0 1.598-.312 2.2-.93l6.88-7.096c1.176-1.216 1.148-3.156-.07-4.334-.616-.598-1.422-.88-2.22-.858 2.374-2.006 4.932-4.01 7.742-5.998.018-.012.034-.022.052-.034v3.126c0 1.692 1.37 3.064 3.062 3.064s3.064-1.372 3.064-3.064v-7.012c18.526-10.486 33.79-7.122 47.422 1.416l-2.02 2.388c-1.094 1.294-.932 3.226.362 4.32 1.292 1.092 3.226.928 4.318-.364l2.434-2.878c3.434 2.514 6.774 5.296 10.046 8.204l-22.36 26.456c-5.248 6.42 2.592 9.59 2.948 12.562.388 3.23-.784 5.704-2.404 7.462v29.392l12.444 22.42-5.358 2.974-11.956-21.536h-27.138c-4.798 3.476-11.636 5.954-16.698 3.67 0 0-15.606-6.954-24.302-22.85m233.584-32.656-6.934-6.934-68.184 68.186c3.822.54 7.596 1.406 11.27 2.594zm-140.596 308.292c-1.292-1.092-3.226-.93-4.318.362l-7.236 8.562c-1.094 1.294-.932 3.226.362 4.32 1.29 1.09 3.226.93 4.318-.364l7.236-8.562c1.092-1.292.93-3.226-.362-4.318m-32.248-7.82h-20.406v23.522l11.89 3.322c6.022 1.58 11.58 2.29 14.634-2.204 2.654-3.906 4.028-6.47 5.326-10.272 2.398-7.037-8.806-12.597-11.444-14.368m46.472 13.05c5.408 9.888 8.114 24.46.608 40.278h-6.52c-1.694 0-3.066 1.37-3.066 3.064 0 1.692 1.372 3.064 3.066 3.064h3.102c-1.616 2.54-3.516 5.098-5.722 7.664.158-.958-.136-1.978-.886-2.704-.596-.578-1.366-.866-2.134-.866-.8 0-1.6.312-2.2.932l-6.878 7.096c-1.178 1.216-1.148 3.156.066 4.332.618.6 1.424.882 2.224.86-2.374 2.006-4.932 4.008-7.744 5.998-.016.01-.032.02-.05.032v-3.126c0-1.692-1.37-3.064-3.064-3.064-1.692 0-3.064 1.372-3.064 3.064v7.012c-18.524 10.488-33.788 7.122-47.42-1.414l2.02-2.39c1.092-1.292.928-3.226-.364-4.318s-3.224-.93-4.316.362l-2.434 2.878c-3.436-2.514-6.776-5.294-10.048-8.202l22.36-26.458c5.248-6.418-2.592-9.588-2.948-12.562-.386-3.228.786-5.702 2.406-7.46v-29.394l-12.444-22.418 5.358-2.976 11.952 21.536h27.142c4.798-3.474 11.636-5.952 16.694-3.668 0-.001 15.61 6.954 24.304 22.848m66.062-117.256 2.022 5.786c26.422-9.244 46.172-32.006 51.542-59.406l-6.014-1.18c-4.954 25.275-23.176 46.274-47.55 54.8m-16.93 72.629 77.212 77.212-6.932 6.934-77.212-77.212-8.58-8.58 6.932-6.934z"/></svg>