<svg enable-background="new 0 0 441.214 471.218" height="326.857672" viewBox="0 0 441.214 471.218" width="305.943561" xmlns="http://www.w3.org/2000/svg"><path d="m276.306 422.342c.96 1.984 2.094 3.888 3.382 5.7-43.286 37.36-100.394 50.478-153.39 39.34l2.502-6.154c51.09 10.376 106.014-2.584 147.506-38.886m-111.446-373.464c-.96-1.986-2.092-3.89-3.38-5.702 43.284-37.36 100.394-50.478 153.39-39.34l-2.502 6.154c-51.09-10.376-106.016 2.584-147.508 38.888m204.576 350.932-12.916-23.082 45.892-9.896zm67.16-38.042-13.58 13.504-8.608-17.724-61.232 13.202-7.824-13.984-5.714 3.198 39.294 70.23c-3.904 2.304-5.98 6.866-5.082 11.36l.41 2.054c.22 1.094 1.018 1.972 2.084 2.296 1.068.322 2.218.034 3.006-.754l15.918-15.918c1.296-1.294 1.296-3.404 0-4.7-.64-.638-1.488-.974-2.35-.974-.504 0-1.014.114-1.488.352l-6.65 3.326-12.022-21.488 38.89-38.892 5.592 11.514c.916 1.842 2.674 3.138 4.702 3.47 2.032.332 4.106-.34 5.552-1.786l13.72-13.644zm-91.022 39.906c.1 1.056.156 2.128.156 3.21 0 18.442-14.95 33.39-33.39 33.39s-33.39-14.948-33.39-33.39c0-18.44 14.95-33.388 33.39-33.388 15.092 0 27.838 10.012 31.974 23.756l-32.606 6.422 1.266 6.422zm48.504-111.918c18.442 0 33.39 14.95 33.39 33.39 0 12.06-6.396 22.626-15.978 28.494l-14.464-29.918-5.894 2.85 14.468 29.922c-3.592 1.32-7.472 2.042-11.522 2.042-18.44 0-33.388-14.95-33.388-33.39s14.948-33.39 33.388-33.39m-322.3-218.394 12.916 23.082-45.892 9.894zm-44.972 42.262 61.232-13.202 7.824 13.984 5.714-3.198-39.294-70.23c3.904-2.304 5.98-6.866 5.082-11.36l-.41-2.054c-.22-1.094-1.018-1.974-2.084-2.296-1.068-.322-2.218-.034-3.006.754l-15.918 15.916c-1.296 1.296-1.296 3.406 0 4.702.64.638 1.49.974 2.35.974.506 0 1.014-.116 1.488-.352l6.65-3.326 12.022 21.488-38.89 38.89-5.592-11.512c-.916-1.842-2.672-3.138-4.702-3.47-2.032-.332-4.106.34-5.552 1.786l-13.72 13.644 4.618 4.642 13.58-13.506zm68.836-44.126c-.102-1.058-.158-2.128-.158-3.21 0-18.442 14.95-33.39 33.39-33.39s33.39 14.948 33.39 33.39c0 18.44-14.95 33.388-33.39 33.388-15.092 0-27.838-10.012-31.972-23.756l32.604-6.422-1.266-6.422zm-48.506 111.918c-18.442 0-33.39-14.95-33.39-33.39 0-12.06 6.396-22.626 15.978-28.494l14.464 29.918 5.894-2.85-14.468-29.922c3.592-1.32 7.472-2.042 11.522-2.042 18.44 0 33.39 14.948 33.39 33.39 0 18.44-14.95 33.39-33.39 33.39m60.12 56.508 115.642-115.642c30.606-30.608 80.406-30.608 111.014 0 30.606 30.606 30.606 80.406 0 111.012l-115.642 115.644c-30.608 30.606-80.408 30.606-111.014-.002-30.606-30.606-30.608-80.406 0-111.012m115.642 115.642 115.642-115.644c33.158-33.158 33.158-87.11 0-120.268-33.16-33.158-87.112-33.16-120.27 0l-115.642 115.642c-33.158 33.158-33.158 87.11 0 120.268 33.158 33.16 87.11 33.16 120.27.002m-80.934-80.988 115.588-115.588c10.236-10.236 26.12-11.338 37.602-3.356l-156.544 156.544c-7.984-11.48-6.882-27.364 3.354-37.6m157.24-73.938-115.59 115.588c-10.236 10.236-26.118 11.338-37.6 3.356l156.544-156.544c7.982 11.48 6.88 27.364-3.354 37.6m-187.32 145.668c1.246 1.248 2.538 2.418 3.852 3.554l25.574-25.574c14.096 10.508 34.132 9.368 46.932-3.432l115.588-115.588c12.8-12.8 13.94-32.838 3.432-46.932l25.574-25.576c-1.136-1.312-2.306-2.604-3.552-3.85s-2.54-2.418-3.852-3.554l-25.574 25.574c-14.096-10.508-34.134-9.368-46.932 3.432l-115.59 115.588c-12.798 12.8-13.94 32.838-3.43 46.932l-25.576 25.576c1.136 1.312 2.308 2.604 3.554 3.85m-37.932-139.69 115.642-115.64c47.806-47.808 124.552-48.996 173.826-3.61l-24.068 24.068c1.296 1.158 2.572 2.346 3.814 3.59 1.244 1.242 2.434 2.52 3.59 3.814l24.068-24.068c45.388 49.274 44.2 126.02-3.608 173.828l-115.642 115.642c-47.808 47.806-124.554 48.994-173.826 3.608l24.068-24.068c-1.296-1.156-2.572-2.346-3.816-3.588-1.244-1.244-2.432-2.52-3.59-3.816l-24.066 24.068c-45.388-49.274-44.2-126.02 3.608-173.828m198.434 202.202c-.028-.62-.046-1.244-.046-1.87 0-2.76.284-5.476.826-8.12l-3.55 3.55c-57.706 57.706-150.834 58.91-210.03 3.632l10.742-10.742c53.368 49.476 136.752 48.274 188.65-3.624l115.642-115.642c51.898-51.898 53.1-135.282 3.624-188.652l34.528-34.528-7.404-7.404-19.156 19.156c-61.122-57.24-157.046-56.632-217.43 1.822.028.622.044 1.244.044 1.87 0 2.762-.282 5.478-.826 8.12l3.55-3.55c57.706-57.706 150.836-58.91 210.032-3.632l-10.742 10.742c-53.368-49.476-136.754-48.274-188.652 3.624l-115.64 115.642c-51.898 51.898-53.1 135.284-3.626 188.652l-34.528 34.528 7.404 7.404 19.156-19.156c61.122 57.24 157.048 56.634 217.432-1.822"/></svg>