<svg enable-background="new 0 0 441.212 441.214" height="316.227766" viewBox="0 0 441.212 441.214" width="316.227766" xmlns="http://www.w3.org/2000/svg"><path d="m70.198 80.642 21.56 12.06 9.024-42.644zm-43.166-6.114c-.312-.996-.052-2.074.678-2.818l14.744-15.016c1.202-1.222 3.174-1.24 4.396-.04.954.938 1.202 2.376.614 3.58l-2.95 6.04 20.126 11.258 31.464-31.464 17.882 8.642c-.046.616-.094 1.232-.094 1.86 0 13.842 11.22 25.064 25.062 25.064s25.064-11.222 25.064-25.064-11.222-25.064-25.064-25.064c-8.834 0-16.578 4.584-21.036 11.492l22.37 10.814-2.666 5.516-47.3-22.862c-1.754-.868-2.966-2.512-3.278-4.41-.31-1.898.318-3.842 1.678-5.202l8.352-8.344c1.476-1.474 3.568-2.066 5.6-1.592 2.03.478 3.64 1.942 4.304 3.92l2.576 7.656-5.806 1.954-2.504-7.442-8.052 8.042 15.846 7.658c6.088-10.176 17.196-17.004 29.916-17.004 19.258 0 34.868 15.61 34.868 34.868s-15.61 34.868-34.868 34.868c-17.402 0-31.822-12.748-34.44-29.416l-7.156 33.812 13.082 7.318-2.992 5.348-31.23-17.47-8.948 40.876-5.986-1.31 9.344-42.692-28.838-16.132c-1.778 3.238-5.174 5.226-8.8 5.226-.62 0-1.246-.056-1.87-.176l-1.926-.366c-1.022-.196-1.852-.934-2.162-1.928m72.112 56.722c0-13.418-7.584-25.06-18.696-30.89l-2.206 10.078c6.692 4.5 11.098 12.142 11.098 20.812 0 13.842-11.222 25.064-25.064 25.064s-25.062-11.222-25.062-25.064c0-12.476 9.126-22.794 21.062-24.714l2.214-10.108c-18.428.93-33.082 16.164-33.082 34.822 0 19.258 15.612 34.868 34.868 34.868 19.258 0 34.868-15.61 34.868-34.868m250.338 53.956 17.332-17.332-4.332-4.334-17.332 17.334zm30.27-30.27 17.33-17.332-4.332-4.332-17.332 17.332zm-60.54 60.54 17.332-17.334-4.332-4.332-17.332 17.332zm-240.484 62.198 17.332-17.334-4.332-4.332-17.332 17.332zm210.216-31.93 17.332-17.332-4.334-4.332-17.332 17.332zm-240.486 62.198 17.334-17.332-4.334-4.332-17.332 17.332zm345.164-267.286-352.966 352.97 6.932 6.934 352.966-352.972zm-284.626 206.748 17.334-17.332-4.334-4.334-17.332 17.334zm325.28-69.992-256.866 256.868 6.932 6.934 256.866-256.87zm-253.408 167.746-17.334 17.332 4.334 4.332 17.332-17.332zm17.268-8.606 17.332-17.332-4.332-4.332-17.332 17.332zm30.27-30.268 17.332-17.332-4.332-4.334-17.334 17.332zm-95.14 86.476 4.332 4.332 17.332-17.332-4.332-4.334zm125.408-116.746 17.332-17.332-4.332-4.332-17.332 17.332zm-58.87-119.418 17.332-17.332-4.332-4.334-17.332 17.332zm108.14-108.142-4.334-4.332-17.332 17.332 4.332 4.334zm-47.602 47.602 17.332-17.332-4.332-4.332-17.332 17.332zm120.594 238.622-2.214 10.108c18.426-.93 33.082-16.164 33.082-34.822 0-19.258-15.612-34.868-34.87-34.868-19.256 0-34.868 15.61-34.868 34.868 0 13.418 7.586 25.06 18.698 30.89l2.206-10.078c-6.694-4.5-11.098-12.142-11.098-20.812 0-13.842 11.22-25.064 25.062-25.064s25.064 11.222 25.064 25.064c0 12.476-9.128 22.794-21.062 24.714m-9.922 25.894-21.56-12.06-9.024 42.644zm43.166 6.114c.31.996.05 2.074-.68 2.818l-14.744 15.016c-1.2 1.222-3.172 1.24-4.394.04-.956-.938-1.204-2.376-.616-3.58l2.952-6.04-20.128-11.258-31.462 31.462-17.882-8.64c.046-.618.094-1.232.094-1.86 0-13.842-11.222-25.064-25.064-25.064s-25.062 11.222-25.062 25.064 11.22 25.062 25.062 25.062c8.834 0 16.58-4.582 21.038-11.492l-22.372-10.812 2.668-5.516 47.3 22.86c1.752.87 2.966 2.514 3.278 4.412.31 1.898-.318 3.842-1.678 5.202l-8.352 8.344c-1.476 1.474-3.568 2.064-5.6 1.592-2.03-.478-3.64-1.942-4.306-3.92l-2.576-7.656 5.808-1.954 2.504 7.442 8.05-8.042-15.844-7.658c-6.088 10.176-17.196 17.004-29.918 17.004-19.256 0-34.868-15.612-34.868-34.868 0-19.258 15.612-34.868 34.868-34.868 17.402 0 31.824 12.748 34.442 29.416l7.154-33.812-13.08-7.318 2.992-5.348 31.23 17.47 8.948-40.876 5.986 1.31-9.344 42.692 28.838 16.132c1.776-3.238 5.172-5.226 8.798-5.226.622 0 1.248.056 1.872.176l1.924.366c1.024.196 1.854.934 2.164 1.928m-40.538-97.576c1.09-.088 2.188-.142 3.294-.142 1.746 0 3.472.12 5.178.334l59.096-59.098-4.332-4.332zm-234.376-51.976 17.332-17.332-4.332-4.332-17.332 17.332zm297.614 14.598-41.582 41.58c1.874.944 3.68 2.032 5.402 3.266l40.512-40.514zm-267.346-44.868 17.334-17.332-4.334-4.332-17.332 17.332zm60.538-60.538 17.334-17.332-4.334-4.334-17.332 17.334zm26.794-126.326-256.866 256.87 6.932 6.934 256.866-256.87zm-210.954 167.9c-1.874-.942-3.678-2.032-5.4-3.264l-40.512 40.514 4.332 4.332zm18.364 4.346c1.106 0 2.204-.056 3.294-.142l-63.236 63.238-4.334-4.332 59.098-59.1c1.706.216 3.432.336 5.178.336"/></svg>