<svg enable-background="new 0 0 359.902 441.212" height="350.223143" viewBox="0 0 359.902 441.212" width="285.532244" xmlns="http://www.w3.org/2000/svg"><path d="m211.4 55.09h.03s1.582-7.268 1.4-13.83h21.28l14.188-7.59-35.482-12.12c-9.168-3.132-18.152-6.784-26.832-11.092-8.328-4.132-22.454-9.588-40.252-10.458-1.35 4.676-4.12 8.708-8.3 12.888-2.688 2.686-6.13 5.744-9.518 9.73l57.374 32.472zm-26.848 22.01 9.62 11.024c7.128-7.552 12.546-16.72 15.656-26.906h-22.194l-4.084 8.578c-1.154 2.418-.76 5.284 1.002 7.304m27.572 34.188s3.298-6.674-1.414-15.77h-18.218-.002l-12.558-14.39c-3.366-3.86-4.12-9.344-1.916-13.968l1.846-3.874-57.654-32.632c-3.302 5.706-5.972 12.888-6.968 22.256l71.236 71.234zm66.49 126.93 9.568-2.13-8.856-39.798c1.338-.132 2.698-.204 4.07-.204 22.642 0 41.06 18.422 41.06 41.066 0 22.646-18.418 41.068-41.06 41.068-22.638 0-41.056-18.422-41.056-41.068 0-15.872 9.056-29.66 22.266-36.494l-4.362-19.596c-22.016 9.102-37.514 30.782-37.514 56.09 0 33.512 27.164 60.678 60.666 60.678 33.506 0 60.668-27.166 60.668-60.678 0-33.51-27.162-60.676-60.668-60.676-2.834 0-5.616.216-8.346.594l-7.894-35.462 15.906-3.54-15.024-67.508-9.568 2.128 12.89 57.94-15.902 3.538zm-130.112 147.904h-.026s-1.582 7.268-1.402 13.832h-21.28l-14.186 7.59 35.48 12.12c9.168 3.132 18.152 6.784 26.832 11.09 8.326 4.134 22.458 9.59 40.252 10.458 1.352-4.674 4.122-8.708 8.302-12.888 2.686-2.686 6.13-5.744 9.516-9.728l-57.374-32.474zm-.72-56.198s-3.302 6.676 1.414 15.77h18.216.002l12.558 14.392c3.366 3.858 4.12 9.342 1.918 13.966l-1.846 3.876 57.654 32.632c3.3-5.706 5.968-12.888 6.966-22.258l-71.234-71.234zm27.572 34.19-9.622-11.026c-7.126 7.552-12.546 16.722-15.654 26.906h22.194l4.086-8.576c1.152-2.418.756-5.286-1.004-7.304m-17.874-172.878 8.35 37.578 78.884-57.022zm-44.178-34.214c-1.06-1.586-1.158-3.616-.258-5.298.9-1.68 2.644-2.724 4.552-2.724h50.974c3.232 0 5.858 2.628 5.858 5.856 0 2.528-1.61 4.76-4.006 5.558l-18.426 6.144 3.356 15.106 100.062-22.304 3.22 14.468-90.488 65.408 4.224 19.002-9.57 2.128-4.07-18.312-84.904.004-2.636-9.036 34.342-21.91c-7.532-9.166-18.944-15.026-31.706-15.026-22.638 0-41.056 18.422-41.056 41.066 0 22.646 18.418 41.068 41.056 41.068 18.82 0 34.71-12.734 39.54-30.036h20.11c-5.19 28.24-29.912 49.646-59.65 49.646-33.506 0-60.666-27.166-60.666-60.678 0-33.51 27.16-60.676 60.666-60.676 29.738 0 54.46 21.404 59.65 49.646l-20.108.002c-.654-2.342-1.516-4.596-2.556-6.75l-20.184 12.878 65.924-.002-8.186-36.834-15.764 10.056c-1.562-2.888-3.338-5.64-5.29-8.254l18.79-11.988-3.456-15.556-.684.228c-2.346.782-4.754 1.158-7.136 1.158-7.432 0-14.61-3.664-18.892-10.09zm-32.85-42.848-73.518-73.52-6.934 6.934 73.52 73.518zm279.45-66.586-6.93-6.934-43.762 43.762 6.934 6.932zm-80.446 279.454 73.516 73.516 6.93-6.932-73.516-73.518zm-205.936-6.934 6.932 6.934-73.518 73.516-6.934-6.932z"/></svg>