<svg enable-background="new 0 0 441.214 441.212" height="316.227766" viewBox="0 0 441.214 441.212" width="316.227766" xmlns="http://www.w3.org/2000/svg"><path d="m400.558 47.588-6.932-6.934-352.97 352.972 6.932 6.932zm-151.166 235.888h4.604l6.662-9.096h-11.266zm12.198 0h54.508l6.662-9.096h-54.508zm62.102 0h20.5l-6.662-9.096h-7.176zm-50.53 113.616h-5.156v15.932h21.022zm21.968 22.06h-27.124v15.932h38.218c1.194 0 1.678-.854 1.83-1.222.152-.366.418-1.312-.426-2.158zm-33.252-22.06h-34.802v15.932h34.802zm0 22.06h-34.802v15.932h34.802zm-40.93-22.06h-34.804v15.932h34.804zm0 22.06h-34.804v15.932h34.804zm-59.518 15.932h18.586v-15.932h-30.634l-.002 3.886c0 6.642 5.406 12.046 12.05 12.046m-12.044-22.06h30.63v-15.932h-30.622zm93.88-138.644h-12.016c4.396 62.996 57.044 112.908 121.136 112.908h88.828v9.804h-159.404l30.158 30.286c2.358 2.364 3.026 5.75 1.746 8.834s-4.15 5-7.49 5h-144.794c-10.024 0-18.178-8.154-18.178-18.176l.018-35.748h8.58c16.264 0 30.218-6.054 40.352-17.504 11.988-13.546 18.066-33.78 18.066-60.144v-35.26h-27.836l6.128-6.128h21.708v-21.706l6.128-6.128v69.222c0 27.904-6.596 49.506-19.606 64.204-7.384 8.344-16.564 14.106-27.058 17.12h157.734c-58.452-11.622-102.648-63.304-102.648-125.118v-33.852l6.128-6.128v39.98c0 .804.014 1.606.03 2.406h63.378c-26.326-5.874-45.29-22.336-56.62-49.174l4.708-4.708c13.26 33.322 38.592 50.206 75.452 50.206h20.05l13.842 18.9h89.428v9.806h-197.948zm-179.428 69.51c3.618 2.036 7.318 4.112 12.526 5.36l5.284-5.284c-6.6-.806-10.614-3.056-14.806-5.416-5.698-3.206-11.59-6.522-23.284-6.522-11.692 0-17.584 3.316-23.282 6.522-5.24 2.95-10.19 5.734-20.276 5.734v6.128c11.692 0 17.584-3.314 23.282-6.522 5.24-2.948 10.19-5.734 20.276-5.734 10.088 0 15.038 2.786 20.28 5.734m-20.28-30.688c10.088 0 15.038 2.784 20.28 5.734 5.698 3.206 11.59 6.522 23.284 6.522 6.912 0 11.79-1.162 15.806-2.772l13.378-13.378c-3.416 1.208-6.186 2.758-8.904 4.288-5.242 2.948-10.192 5.734-20.28 5.734s-15.038-2.786-20.28-5.734c-5.698-3.206-11.59-6.522-23.284-6.522-11.692 0-17.584 3.316-23.282 6.522-5.24 2.948-10.19 5.734-20.276 5.734v6.128c11.692 0 17.584-3.316 23.282-6.522 5.24-2.95 10.19-5.734 20.276-5.734m0-24.954c10.088 0 15.038 2.784 20.28 5.734 5.698 3.206 11.59 6.52 23.284 6.52s17.586-3.314 23.284-6.52c5.24-2.95 10.19-5.734 20.28-5.734 2.346 0 4.408.152 6.262.418l5.204-5.204c-3.152-.82-6.864-1.342-11.466-1.342-11.694 0-17.586 3.314-23.284 6.52-5.242 2.95-10.192 5.734-20.28 5.734s-15.038-2.784-20.28-5.734c-5.698-3.206-11.59-6.52-23.284-6.52-11.692 0-17.584 3.314-23.282 6.52-5.24 2.95-10.19 5.734-20.276 5.734v6.128c11.692 0 17.584-3.314 23.282-6.52 5.24-2.95 10.19-5.734 20.276-5.734m0-24.956c10.088 0 15.038 2.786 20.28 5.736 5.698 3.206 11.59 6.52 23.284 6.52s17.586-3.314 23.284-6.52c5.24-2.95 10.19-5.736 20.28-5.736s15.04 2.786 20.28 5.736c1.184.666 2.38 1.338 3.636 1.984l4.59-4.59c-1.826-.834-3.508-1.772-5.222-2.736-5.698-3.206-11.59-6.522-23.284-6.522s-17.586 3.316-23.284 6.522c-5.242 2.95-10.192 5.734-20.28 5.734s-15.038-2.784-20.28-5.734c-5.698-3.206-11.59-6.522-23.284-6.522-11.692 0-17.584 3.316-23.282 6.522-5.24 2.95-10.19 5.734-20.276 5.734v6.128c11.692 0 17.584-3.314 23.282-6.52 5.24-2.95 10.19-5.736 20.276-5.736m248.276-245.116c0-6.642-5.406-12.048-12.048-12.048h-18.588v15.932h30.634zm-.006 10.012h-30.63v15.934h30.62zm-71.56 15.934h34.802v-15.932h-34.802zm-6.128-37.994h-34.804v15.932h34.804zm0 22.06h-34.804v15.932h34.804zm-40.932-22.06h-38.218c-1.196 0-1.678.854-1.83 1.222-.154.368-.418 1.314.426 2.16l12.496 12.55h27.126zm0 22.06h-21.022l15.864 15.934h5.158zm47.06-6.128h34.802v-15.932h-34.802zm-28.448 135.676h-4.604l-6.66 9.096h11.264zm-12.198 0h-54.506l-6.662 9.096h54.508zm-62.1 0h-20.5l6.662 9.096h7.176zm180.44-139.558-.018 35.748h-8.582c-16.264 0-30.218 6.052-40.35 17.504-11.988 13.546-18.066 33.782-18.066 60.144v35.258h27.836l-6.128 6.128h-21.708v21.708l-6.128 6.128v-69.222c0-27.904 6.596-49.506 19.604-64.206 7.384-8.342 16.564-14.104 27.058-17.12h-157.732c58.452 11.624 102.648 63.304 102.648 125.12v33.85l-6.128 6.128v-39.978c0-.806-.016-1.606-.032-2.408h-63.378c26.328 5.876 45.292 22.336 56.622 49.174l-4.708 4.708c-13.26-33.322-38.594-50.204-75.452-50.204h-20.05l-13.842-18.902h-89.428v-9.804h197.948v18.9h12.016c-4.396-62.994-57.044-112.906-121.138-112.906h-88.826v-9.804h159.402l-30.158-30.288c-2.356-2.364-3.026-5.75-1.744-8.834 1.28-3.084 4.15-5 7.49-5h144.796c10.022 0 18.176 8.154 18.176 18.178m99.692 109.834c-10.088 0-15.038-2.786-20.28-5.734-5.698-3.208-11.59-6.522-23.282-6.522-6.912 0-11.79 1.162-15.808 2.772l-13.378 13.378c3.416-1.208 6.188-2.758 8.906-4.288 5.24-2.95 10.19-5.734 20.28-5.734 10.088 0 15.038 2.784 20.278 5.734 5.7 3.206 11.592 6.522 23.284 6.522s17.586-3.316 23.282-6.522c5.242-2.95 10.19-5.734 20.278-5.734v-6.128c-11.692 0-17.584 3.314-23.282 6.522-5.242 2.948-10.19 5.734-20.278 5.734m20.278-30.69c-5.242 2.95-10.19 5.734-20.278 5.734s-15.038-2.784-20.28-5.734c-3.616-2.034-7.318-4.112-12.526-5.358l-5.282 5.282c6.598.808 10.612 3.058 14.804 5.416 5.7 3.208 11.592 6.522 23.284 6.522s17.586-3.314 23.282-6.522c5.242-2.948 10.19-5.734 20.278-5.734v-6.128c-11.692 0-17.584 3.316-23.282 6.522m-20.278 55.644c-10.088 0-15.038-2.786-20.28-5.734-5.698-3.206-11.59-6.522-23.282-6.522-11.694 0-17.586 3.316-23.284 6.522-5.242 2.948-10.192 5.734-20.28 5.734-2.346 0-4.41-.152-6.264-.418l-5.202 5.202c3.15.822 6.864 1.344 11.466 1.344 11.694 0 17.586-3.316 23.284-6.522 5.24-2.948 10.19-5.734 20.28-5.734 10.088 0 15.038 2.786 20.278 5.734 5.7 3.206 11.592 6.522 23.284 6.522s17.586-3.316 23.282-6.522c5.242-2.948 10.19-5.734 20.278-5.734v-6.128c-11.692 0-17.584 3.316-23.282 6.522-5.242 2.948-10.19 5.734-20.278 5.734m20.278 19.22c5.698-3.206 11.59-6.522 23.282-6.522v6.128c-10.088 0-15.036 2.786-20.278 5.734-5.696 3.206-11.59 6.522-23.282 6.522s-17.584-3.316-23.284-6.522c-5.24-2.948-10.19-5.734-20.278-5.734-10.09 0-15.04 2.786-20.28 5.734-5.698 3.206-11.59 6.522-23.284 6.522s-17.588-3.316-23.286-6.522c-1.712-.964-3.394-1.902-5.222-2.734l4.592-4.59c1.256.646 2.452 1.318 3.636 1.984 5.242 2.95 10.192 5.734 20.28 5.734s15.038-2.784 20.28-5.734c5.698-3.206 11.59-6.522 23.284-6.522 11.692 0 17.584 3.316 23.282 6.522 5.242 2.95 10.192 5.734 20.28 5.734s15.036-2.784 20.278-5.734"/></svg>