<svg enable-background="new 0 0 441.212 441.212" height="316.227766" viewBox="0 0 441.212 441.212" width="316.227766" xmlns="http://www.w3.org/2000/svg"><path d="m276.274 253.254-25.336-10.276-4.294 4.294 15.702 19.912zm32.928 55.572c-18.618 18.618-48.802 18.618-67.42 0l-3.606-3.606-17.57 17.57-6.934-6.934 41.692-41.692-21.814-27.662 15.054-15.054 35.198 14.28 14.834-14.834 10.566 10.512c18.618 18.618 18.618 48.804 0 67.42m-8.944-163.538 39.222-36.176c1.232-1.102 2.016-2.486 2.278-3.802.264-1.316.008-2.568-.834-3.41l-.804-.806-.806-.806c-.844-.842-2.094-1.098-3.41-.834-1.318.264-2.7 1.046-3.804 2.278l-36.176 39.224-154.968 154.97-39.224 36.176c-1.232 1.102-2.014 2.484-2.278 3.802-.264 1.316-.01 2.568.834 3.41l.804.806.806.806c.842.842 2.094 1.096 3.412.834 1.316-.264 2.698-1.046 3.802-2.278l36.176-39.224zm-228.916 224.58v-91.724c-39.402 0-71.342 31.94-71.342 71.342 0 30.668 19.354 56.808 46.51 66.894l24.832 24.832v-20.382l61.152-30.578-10.192-20.384zm298.528-91.724v91.724h-50.96l-10.192 20.384 61.152 30.578v20.382l24.832-24.832c27.158-10.086 46.51-36.226 46.51-66.894 0-39.402-31.942-71.342-71.342-71.342m0-206.798v91.726c39.4 0 71.342-31.942 71.342-71.344 0-30.668-19.352-56.81-46.51-66.894l-24.832-24.834v20.386l-61.152 30.576 10.192 20.384zm-204.932 116.612 25.334 10.278 4.296-4.296-15.702-19.91zm-32.928-55.57c18.616-18.618 48.802-18.618 67.42 0l3.606 3.606 17.57-17.57 6.932 6.934-41.692 41.692 21.816 27.662-15.052 15.054-35.2-14.28-14.834 14.834-10.566-10.512c-18.618-18.618-18.618-48.804 0-67.42m-132.01-40.66c0-30.668 19.354-56.81 46.51-66.894l24.832-24.834v20.386l61.152 30.576-10.192 20.384h-50.96v91.726c-39.402 0-71.342-31.942-71.342-71.344"/></svg>