<svg enable-background="new 0 0 382.22 441.214" height="339.749448" viewBox="0 0 382.22 441.214" width="294.334547" xmlns="http://www.w3.org/2000/svg"><path d="m220.476 44.122h-26.302v-6.368h5.696v-5.708c3.382-.356 6.668-1.39 9.626-3.068 1.47-.836 1.988-2.706 1.154-4.178-.838-1.472-2.708-1.988-4.178-1.152-2.1 1.192-4.422 1.96-6.82 2.266-.64-4.246-2.792-7.996-5.914-10.664v-15.25h-12.538v11.064h-23.224v10.952h23.224v6.758c0 1.168.81 2.13 1.928 2.462.002 0 .002.002.002.002 2.814.832 4.916 3.432 4.916 6.516v6.368h-26.304c5.13 9.656 14.88 16.468 26.304 17.514.228 112.588.312 245.232 2.036 354.428.194 8.274.396 16.546.686 24.818.008.182.154.314.332.322v.01c.004 0 .006-.006.01-.006.006 0 .008.006.012.006v-.01c.178-.008.324-.14.332-.322.288-8.272.492-16.544.686-24.818 1.722-109.196 1.804-241.84 2.034-354.428 11.422-1.046 21.172-7.858 26.302-17.514m-133.33 273.518-18.03 18.028c-11.592-8.398-27.924-7.41-38.362 3.028l-2.012 2.01 41.97 41.97 2.012-2.01c10.334-10.336 11.41-26.446 3.282-38.02l18.072-18.074c7.88-7.878 35.206-34.79 88.258-88.622-.016-4.358-.028-8.718-.04-13.08-53.752 53.044-87.528 87.148-95.15 94.77m282.734 47.288-.014-.018c0-19.016-15.414-34.43-34.428-34.43-7.746 0-14.884 2.57-20.636 6.886l-19.728-19.726c-7.62-7.622-41.396-41.726-95.148-94.77-.012 4.362-.024 8.724-.038 13.08 53.048 53.832 80.376 80.744 88.254 88.622l19.716 19.714c-4.444 5.918-6.85 13.084-6.85 20.624 0 3.442.502 6.808 1.47 10.012l37.868-37.868c5.694.992 10.944 3.676 15.114 7.846 5.35 5.35 8.294 12.462 8.294 20.028 0 6.32-2.086 12.314-5.886 17.238l-26.982-26.984-5.2 5.198 39.31 39.312 5.2-5.198-7.95-7.948c4.946-6.108 7.634-13.658 7.634-21.618m-358.72 28.698 6.932 6.934 30.92-30.922-6.93-6.934zm350.308-229.654h-23.37v49.668h23.37zm-29.498 0h-6.126v49.668h6.126zm-15.932.018c-20.132.362-31.662 16.814-31.662 45.278 0 25.722 12.114 41.8 31.662 42.166zm66.182 21.74-5.68 2.296-4.466-11.048c-1.434-3.548-3.01-5.482-4.478-6.56v74.482c.024 1.016.468 25.016-12.83 38.648-5.874 6.024-13.48 9.078-22.608 9.078h-3.062v-6.832h1.268c7.492 0 13.74-2.526 18.566-7.504 11.012-11.358 10.518-31.496 10.492-32.348l.002-9.662h-6.128v9.756c.008.276.426 18.526-8.778 28.002-3.678 3.786-8.31 5.628-14.154 5.628h-1.268v-6.782c3.642-.112 6.806-1.474 9.398-4.078 7.27-7.312 7.276-22.158 7.272-22.786v-9.74h-6.128v9.756c.012 3.596-.95 13.894-5.496 18.454-1.424 1.428-3.086 2.166-5.064 2.266-.16-5.086-4.338-9.176-9.464-9.176h-2.896c-23.37 0-38.472-18.962-38.472-48.312 0-32.2 14.384-51.424 38.472-51.424h50.878v5.756c4.366 1.486 7.78 5.2 10.158 11.08zm-182.28 32.328c41.664-42.416 96.698-98.892 167.38-172.292.364-.38.364-.986-.01-1.358-.37-.372-.976-.376-1.356-.012-64.974 62.212-121.246 117.052-165.986 161.064-.008 4.198-.018 8.398-.028 12.598m-179.186-4.418h23.37v-49.668h-23.37zm29.496 0h6.126v-49.668h-6.126zm15.932 37.794c19.548-.366 31.664-16.444 31.664-42.166 0-28.464-11.532-44.916-31.664-45.278zm-56.034-74.456-4.466 11.048-5.682-2.296 4.468-11.05c2.376-5.88 5.79-9.594 10.156-11.08v-5.756h50.878c24.09 0 38.472 19.224 38.472 51.424 0 29.35-15.1 48.312-38.472 48.312h-2.896c-5.124 0-9.302 4.09-9.464 9.176-1.978-.1-3.64-.838-5.062-2.266-4.546-4.56-5.508-14.858-5.498-18.454v-9.756h-6.126v9.74c-.006.628 0 15.474 7.272 22.786 2.59 2.604 5.756 3.966 9.4 4.078v6.782h-1.272c-5.844 0-10.472-1.842-14.154-5.628-9.204-9.476-8.786-27.726-8.776-28.002v-9.756h-6.13l.002 9.662c-.026.852-.52 20.99 10.492 32.348 4.828 4.978 11.074 7.504 18.566 7.504h1.272v6.832h-3.066c-9.126 0-16.734-3.054-22.608-9.078-13.298-13.632-12.852-37.632-12.828-38.648l-.002-74.482c-1.468 1.078-3.042 3.012-4.476 6.56m4.754-131.212c-.366-.38-.364-.986.008-1.358s.976-.376 1.356-.012c64.976 62.212 121.248 117.052 165.986 161.064.012 4.2.02 8.398.03 12.598-41.664-42.414-96.7-98.892-167.38-172.292"/></svg>