<svg enable-background="new 0 0 441.922 360.482" height="285.728236" viewBox="0 0 441.922 360.482" width="349.982911" xmlns="http://www.w3.org/2000/svg"><path d="m201.512 226.556c4.762 2.008 9.902 3.288 15.276 3.734l-12.326-6.316zm61.64-36.672 6.138 4.024c1.232-4.348 1.904-8.93 1.904-13.666 0-4.738-.672-9.318-1.904-13.666l-6.138 4.022zm-3.184-24.536 7.23-4.738c-4.244-9.958-11.618-18.266-20.874-23.704l-5.124 4.488 2.142 14.354zm-55.218-9.296 16.214 9.362 16.218-9.362-2.066-13.836-14.15-7.25-14.15 7.25zm19.28 33.718 16.494 9.52 16.488-9.52v-19.042l-16.488-9.52-16.494 9.52zm16.382-55.842c-4.772-2.012-9.922-3.294-15.304-3.736l12.344 6.324zm-3.23 70.52-16.218-9.362-16.214 9.362 2.066 13.836 14.15 7.25 14.15-7.25zm-58.412-33.85-6.138-4.022c-1.232 4.348-1.906 8.928-1.906 13.666 0 4.736.674 9.316 1.906 13.666l6.138-4.024zm38.054-40.406c-5.386.44-10.536 1.722-15.312 3.736l2.96 2.59zm-34.884 64.952-7.216 4.728c4.244 9.958 11.618 18.266 20.872 23.704l5.132-4.492-2.136-14.326zm35.952-24.416-16.494-9.52-16.49 9.52v19.042l16.49 9.52 16.494-9.52zm25.45 34.024-2.142 14.338 5.124 4.486c9.256-5.438 16.63-13.746 20.874-23.702l-7.216-4.73zm-44.75-49.01 2.14-14.34-5.136-4.496c-9.254 5.44-16.628 13.746-20.872 23.704l7.23 4.738zm26.552 74.546c5.37-.444 10.506-1.726 15.268-3.732l-2.948-2.58zm75.1 17.91c-2.542-8.576-2.604-18.542-2.658-28.912l-6.138.032c.064 12.086.136 23.66 3.936 33.74zm0-135.914-4.86-4.858c-3.8 10.08-3.872 21.654-3.936 33.74l6.138.032c.054-10.37.116-20.338 2.658-28.914m-2.658 51.858h-6.138v32.198h6.138zm36.894 3.284h-6.138v25.63h6.138zm97.62-15.418h-19.366v56.468h19.366zm-29.184-84.674h-27.422c-22.466 0-43.61 8.774-59.542 24.704-2.336 2.338-4.568 4.876-6.678 7.568l80.634 80.634-80.634 80.634c2.106 2.688 4.338 5.228 6.678 7.568 15.932 15.93 37.076 24.704 59.542 24.704h27.422zm-270.266 193.534-80.628-80.628 80.63-80.628c-2.106-2.692-4.342-5.234-6.682-7.574-15.93-15.93-37.078-24.704-59.542-24.704h-27.42v225.812h27.42c22.464 0 43.612-8.774 59.542-24.704 2.342-2.342 4.576-4.884 6.68-7.574m-103.464-108.86h-19.366v56.468h19.366zm194.844 83.288v96.934l151.988-151.99-151.988-151.988v96.934c-1.016-.056-2.038-.09-3.068-.09s-2.054.034-3.07.09v-96.928l-151.98 151.982 151.98 151.982v-96.926c1.016.056 2.04.09 3.07.09s2.052-.034 3.068-.09m217.892-17h-29.186v84.672h-37.242c-25.088 0-48.702-9.796-66.486-27.582-2.344-2.344-4.582-4.876-6.716-7.53l-81.326 81.326-81.332-81.33c-2.132 2.654-4.372 5.186-6.718 7.534-17.786 17.786-41.4 27.582-66.488 27.582h-37.242v-84.672h-29.186v-76.11h29.186v-84.672h37.242c25.088 0 48.702 9.794 66.486 27.58 2.346 2.346 4.586 4.878 6.72 7.536l81.332-81.332 81.326 81.328c2.134-2.658 4.374-5.19 6.716-7.532 17.784-17.786 41.398-27.58 66.486-27.58h37.242v84.672h29.186zm-109.5 80.348 61.836 61.838 6.944-6.944-47.482-47.482c-7.378-1.664-14.524-4.15-21.298-7.412m68.78-291.698-6.944-6.946-61.868 61.852c6.782-3.264 13.932-5.756 21.316-7.422zm-259.524 241.252 4.86 4.86c3.8-10.08 3.872-21.652 3.936-33.74l-6.136-.034c-.056 10.372-.118 20.338-2.66 28.914m0-135.912c2.542 8.576 2.604 18.542 2.66 28.914l6.136-.034c-.064-12.086-.136-23.66-3.936-33.74zm2.66 84.056h6.136v-32.198h-6.136zm-36.894-3.286h6.138v-25.63h-6.138zm-66.722 160.482 6.942 6.944 61.838-61.838c-6.774 3.262-13.922 5.748-21.3 7.412zm47.496-299.108-47.496-47.484 6.942-6.946 61.866 61.852c-6.778-3.264-13.93-5.756-21.312-7.422"/></svg>