<svg enable-background="new 0 0 441.212 441.214" height="316.227766" viewBox="0 0 441.212 441.214" width="316.227766" xmlns="http://www.w3.org/2000/svg"><path d="m250.712 235.083 22.208-22.208c33.69-33.692 88.314-33.692 122.004 0 33.692 33.692 33.692 88.314 0 122.006l-22.206 22.208-6.934-6.936 22.206-22.206c29.862-29.862 29.862-78.276 0-108.138-29.86-29.86-78.276-29.86-108.136 0l-22.208 22.208zm-60.212-28.95-22.206 22.206c-33.692 33.692-88.316 33.692-122.006 0-33.692-33.69-33.692-88.314 0-122.006l22.208-22.206 6.934 6.934-22.208 22.208c-29.862 29.86-29.862 78.274 0 108.136s78.276 29.862 108.138 0l22.206-22.208zm-126.616 200.952 84.818-84.802-11.31-11.308c-17.382 17.378-81.22 81.202-81.222 81.204-34 32.926-.776 59.798 22.326 44.746 18.14-11.82 1.418-28.548-9.58-18.748-6.252 5.57-15.9-1.224-5.032-11.092m266.82-271.588-7.282-7.282-181.696 178.428 11.31 11.308c7.586-7.584 20.114-24.172 29.98-33.824 3.504-3.426 23.138-23.156 47.002-47.176l163.648 163.614 6.934-6.934-163.672-163.638c42.288-42.576 93.776-94.496 93.776-94.496m-110.092 235.104c-9.144 0-16.556 7.41-16.556 16.552s7.412 16.554 16.556 16.554 16.558-7.412 16.558-16.554-7.414-16.552-16.558-16.552m117.422-105.816c0 2.742 2.222 4.964 4.964 4.964s4.964-2.222 4.964-4.964c0-2.74-2.222-4.962-4.964-4.962s-4.964 2.222-4.964 4.962m-28.958 77.816-43.908-43.9 8.972-8.97-6.934-6.934-15.908 15.904 57.778 57.766 15.906-15.904-6.934-6.932zm77.132-155.432c6.758 4.082 13.064 8.988 18.744 14.58l4.3-4.366c-6.018-5.928-12.706-11.128-19.874-15.458zm24.478 152.756 4.644 4.002c5.506-6.388 10.246-13.408 14.088-20.868l-5.448-2.804c-3.622 7.03-8.092 13.648-13.284 19.67m-27.368 27.762 4.332 4.332 17.332-17.328-4.334-4.332zm46.266-60.542 5.792 2.008c2.752-7.936 4.57-16.208 5.402-24.588l-6.102-.604c-.782 7.902-2.496 15.702-5.092 23.184m-93.074-134.464.158-6.126c-8.404-.212-16.862.562-25.072 2.294l1.268 5.996c7.742-1.636 15.716-2.37 23.646-2.164m98.578 97.02 6.124-.252c-.348-8.412-1.68-16.776-3.966-24.856l-5.898 1.668c2.154 7.62 3.412 15.506 3.74 23.44m-2.978-39.338c-3.404-7.68-7.726-14.964-12.844-21.648l-4.868 3.724c4.826 6.302 8.9 13.168 12.108 20.408zm-80.38-62.364-1.014 6.044c7.834 1.31 15.504 3.544 22.792 6.638l2.396-5.642c-7.734-3.28-15.866-5.65-24.174-7.04m25.598-133.868-84.82 84.8 11.31 11.308c17.382-17.378 81.22-81.202 81.222-81.204 34-32.926.778-59.798-22.324-44.746-18.142 11.82-1.418 28.55 9.58 18.75 6.25-5.57 15.898 1.222 5.032 11.092m-266.822 271.586 7.284 7.282 181.694-178.428-11.31-11.306c-7.584 7.582-20.112 24.172-29.98 33.822-3.504 3.426-23.136 23.158-47 47.178l-163.65-163.616-6.932 6.934 163.67 163.638c-42.288 42.576-93.776 94.496-93.776 94.496m110.092-235.104c9.144 0 16.556-7.41 16.556-16.552s-7.412-16.554-16.556-16.554-16.556 7.412-16.556 16.554 7.412 16.552 16.556 16.552m-117.42 105.816c0-2.742-2.224-4.964-4.966-4.964-2.74 0-4.964 2.222-4.964 4.964 0 2.74 2.224 4.962 4.964 4.962 2.742 0 4.966-2.222 4.966-4.962m-48.174 77.616c-6.758-4.082-13.064-8.986-18.744-14.578l-4.3 4.366c6.02 5.928 12.708 11.128 19.874 15.456zm-24.478-152.756-4.642-4.002c-5.508 6.388-10.248 13.41-14.09 20.868l5.45 2.806c3.622-7.032 8.09-13.65 13.282-19.672m27.37-27.762-4.334-4.332-17.332 17.328 4.334 4.332zm-46.268 60.542-5.792-2.008c-2.75 7.936-4.568 16.208-5.4 24.588l6.1.604c.784-7.902 2.496-15.702 5.092-23.184m93.074 134.464-.158 6.126c8.406.214 16.864-.56 25.072-2.294l-1.266-5.996c-7.742 1.636-15.718 2.372-23.648 2.164m-98.578-97.02-6.124.254c.348 8.412 1.682 16.774 3.968 24.854l5.898-1.666c-2.156-7.62-3.414-15.508-3.742-23.442m2.98 39.338c3.402 7.68 7.724 14.964 12.844 21.648l4.868-3.724c-4.826-6.302-8.9-13.168-12.11-20.406zm80.38 62.366 1.012-6.044c-7.834-1.312-15.502-3.546-22.792-6.638l-2.394 5.64c7.732 3.282 15.866 5.65 24.174 7.042m42.652-174.604 43.908 43.9-8.974 8.972 6.936 6.932 15.908-15.904-57.778-57.766-15.908 15.904 6.934 6.934z"/></svg>