<svg enable-background="new 0 0 441.2 441.2" height="316.227766" viewBox="0 0 441.2 441.2" width="316.227766" xmlns="http://www.w3.org/2000/svg"><path d="m265.3 46.7c-7.1-4.5-13.5-9.6-20.4-17.8h-48.5c-6.8 8.2-13.3 13.3-20.4 17.8l-18.7 11.9-21.7 74-68.1-67.9-6.1 6.1 58.6 58.3-94.5 94.1 94.5 94.1-58.6 58.3 6.1 6.1 68-67.7 21.6 73.9 18.7 11.9c6.4 4.1 12.3 8.9 17.4 14.5l38.9-114.6h-48.2l-2.4-15.6h24.2l3.8 3.8 34.9-34.8 11.1 11-20 20h24l-2.4 15.6h-15.8l-40 117.9h38.4l-14.6-43.1 4.6-13.5 18.1 53.3c5.2-5.5 11-10.4 17.4-14.5l18.7-11.9 21.7-74 68.1 67.9 6.1-6.1-58.6-58.3 94.5-94.1-94.5-94.1 58.6-58.3-6.1-6.1-68 67.7-21.7-73.9zm-100.6 17.4 16-10.1c5.7-3.6 11-7.8 15.9-12.6l15 44.1 4.6-13.5-11.7-34.5h32.5l-37 109.3h-15.8l-2.4 15.6h24l-20 19.9-13.7-13.7 8.4-54.8-5.4-.8-7.8 50.9-24.5-24.4zm-38.6 247.2-88.4-88 88.4-88 40.7 40.6-47.7 47.5 47.7 47.5zm48.7 22.2-7.8-50.8 4.8-4.7 8.4 54.7zm-4.2-66.6-43.8-43.7 43.8-43.7 43.8 43.7zm35.1 17.2-20-19.9 11.1-11 20 19.9zm14.9-66.9-23.9-23.8 34.9-34.8 3.8 3.8h24.2l-2.4-15.6h-48.2l35.7-105.4c4.8 4.7 10.2 8.9 15.9 12.6l16 10.1 22.1 75.3-24.5 24.4-7.8-50.8-5.4.8 8.4 54.7-13.9 13.8-20-19.9-11.1 11 20 19.9zm6.1 6.1 43.8-43.6 43.8 43.6-43.8 43.6zm39.5 110.2-5.4-.8 8.4-54.8 4.8 4.7zm8.2-62.7 47.7-47.5-47.7-47.5 40.7-40.5 88.4 88-88.4 88z"/></svg>