<svg enable-background="new 0 0 441.212 441.214" height="316.227766" viewBox="0 0 441.212 441.214" width="316.227766" xmlns="http://www.w3.org/2000/svg"><path d="m237.026 410.9c-10.028-6.686-22.986-6.686-33.016 0-6.722 4.48-15.412 4.482-22.136 0-4.904-3.27-10.612-4.998-16.508-4.998v9.804c3.954 0 7.78 1.158 11.07 3.352 5.012 3.342 10.76 5.012 16.506 5.012s11.494-1.67 16.508-5.012c6.722-4.484 15.412-4.484 22.136 0 10.028 6.684 22.988 6.684 33.014 0 3.29-2.194 7.116-3.352 11.07-3.352v-9.804c-5.896 0-11.604 1.728-16.508 4.998-6.724 4.48-15.412 4.482-22.136 0m0-22.062c-10.028-6.684-22.986-6.684-33.016 0-6.722 4.482-15.412 4.484-22.136 0-4.904-3.27-10.612-4.998-16.508-4.998v9.806c3.954 0 7.78 1.158 11.07 3.35 5.012 3.344 10.76 5.014 16.506 5.014s11.494-1.67 16.508-5.014c6.722-4.484 15.412-4.484 22.136 0 10.028 6.686 22.988 6.684 33.014 0 3.29-2.192 7.116-3.35 11.07-3.35v-9.806c-5.896 0-11.604 1.728-16.508 4.998-6.724 4.482-15.412 4.484-22.136 0m113.772-270.71c12.166 8.828 29.33 7.766 40.29-3.194l3.468-3.468-44.034-44.034-3.468 3.466c-10.96 10.96-12.02 28.124-3.192 40.292-8.644 8.514-21.928 21.746-43.19 43.302-34.522 34.998-90.054 91.922-180.826 186.154-.184.192-.274.44-.274.686.002.248.096.494.284.68l.12.12c.186.188.432.282.68.284.246 0 .494-.09.686-.274 94.232-90.772 151.156-146.304 186.154-180.826 21.556-21.262 34.786-34.544 43.302-43.188m19.14 160.014v91.726h-50.908l-10.182 20.384 61.09 30.576v20.386l24.808-24.834c27.132-10.086 46.466-36.226 46.466-66.894 0-39.402-31.91-71.344-71.274-71.344m-132.912 88.636c-10.028-6.684-22.986-6.686-33.016 0-6.722 4.482-15.412 4.482-22.136 0-4.904-3.27-10.612-4.998-16.508-4.998v9.804c3.954 0 7.78 1.16 11.07 3.352 5.012 3.342 10.76 5.014 16.506 5.014s11.494-1.672 16.508-5.014c6.722-4.484 15.412-4.484 22.136 0 10.028 6.686 22.988 6.684 33.014 0 3.29-2.192 7.116-3.352 11.07-3.352v-9.804c-5.896 0-11.604 1.728-16.508 4.998-6.724 4.482-15.412 4.482-22.136 0m49.172-97.914 4.572 4.572 14.936-14.936-5.296-5.296 56.604-56.604-6.932-6.932-56.604 56.604-3.244-3.244 70.752-70.754-6.932-6.934-123.42 123.424 5.502 11.792 8.844-8.844c2.93-2.93 7.682-2.93 10.612 0 2.93 2.932 2.93 7.682 0 10.614l-3.658 3.656 13.83 27.048 25.792-25.792-12.178-8.432c-4.302-2.976-4.856-9.124-1.158-12.822l7.284-7.282-4.574-4.572c-2.674-2.674-7.022-2.676-9.698-.004l-6.394 6.394-4.332-4.332 7.322-7.324c5.064-5.064 13.306-5.066 18.37 0m-82.012-194.428c5.014 3.344 10.76 5.014 16.506 5.014s11.494-1.67 16.508-5.014c6.722-4.482 15.41-4.484 22.138 0 4.904 3.27 10.612 4.998 16.506 4.998v-9.804c-3.952 0-7.78-1.16-11.068-3.352-10.028-6.686-22.988-6.686-33.014 0-6.728 4.482-15.414 4.484-22.138 0-10.028-6.686-22.986-6.686-33.014 0-3.29 2.192-7.116 3.352-11.068 3.352v9.804c5.892 0 11.602-1.728 16.506-4.998 6.724-4.482 15.412-4.484 22.138 0m0-44.122c5.014 3.344 10.76 5.016 16.506 5.016s11.494-1.672 16.508-5.016c6.722-4.482 15.41-4.484 22.138 0 4.904 3.27 10.612 5 16.506 5v-9.806c-3.952 0-7.78-1.158-11.068-3.35-10.028-6.686-22.988-6.688-33.014 0-6.728 4.482-15.414 4.482-22.138 0-10.028-6.686-22.986-6.688-33.014 0-3.29 2.192-7.116 3.35-11.068 3.35v9.806c5.892 0 11.602-1.73 16.506-5 6.724-4.482 15.412-4.484 22.138 0m195.05 39.37-6.932-6.932-18.898 18.898 6.932 6.932zm-195.05-17.308c5.014 3.342 10.76 5.014 16.506 5.014s11.494-1.672 16.508-5.014c6.722-4.484 15.41-4.486 22.138 0 4.904 3.27 10.612 4.998 16.506 4.998v-9.804c-3.952 0-7.78-1.16-11.068-3.352-10.028-6.686-22.988-6.686-33.014 0-6.728 4.482-15.414 4.482-22.138 0-10.028-6.686-22.986-6.688-33.014 0-3.29 2.192-7.116 3.352-11.068 3.352v9.804c5.892 0 11.602-1.728 16.506-4.998 6.724-4.484 15.412-4.486 22.138 0m-132.914 18.97h50.908l10.182-20.384-61.09-30.576v-20.386l-24.808 24.834c-27.13 10.086-46.464 36.226-46.464 66.894 0 39.402 31.908 71.344 71.272 71.344zm133.594 62.488c-9.016 15.938-16.354 20.376-26.506 26.514-5.162 3.122-11.002 6.654-18.318 12.308-4.936 3.816-9.994 12.934-15.352 22.59-5.508 9.932-11.202 20.196-17.418 26.028-7.9 7.414-10.984 8.27-12.616 8.27-1.24 0-2.072-.566-2.878-1.114-.782-.532-1.588-1.08-2.75-1.08-2.11 0-5.152 1.874-9.578 5.894.002.004 5.528 12.046 25.742-2.592 0 0 20.636-12.468 33.31-33.792 3.344-5.626 7.694-10.606 13.018-14.414 18.476-13.216 28.262-25.446 28.262-25.446 15.492-15.984 9.598-20.138 5.098-23.19zm-58.342 10.542c1.692 0 3.062 1.37 3.062 3.064 0 1.692-1.37 3.064-3.062 3.064h-17.068l-1.718 5.43h12.498c1.692 0 3.064 1.372 3.064 3.064s-1.372 3.064-3.064 3.064h-14.436l-1.716 5.432h9.866c1.692 0 3.064 1.372 3.064 3.064s-1.372 3.064-3.064 3.064h-11.804l-1.718 5.432h7.234c1.694 0 3.064 1.37 3.064 3.064 0 1.692-1.37 3.064-3.064 3.064h-9.172l-.094.298c-2.666 8.43-4.908 12.65-9.428 20.248-3.81 6.406-8.208 13.762-9.524 19.53 3.738-2.824 6.688-4.036 9.584-4.036 2.842 0 4.814 1.21 5.958 1.98.992-.494 3.394-1.986 8.092-6.398 5.518-5.174 10.974-15.012 16.25-24.526 5.676-10.228 11.032-19.884 16.966-24.47 7.594-5.868 13.592-9.496 18.886-12.698 10.06-6.082 16.126-9.75 24.366-24.316l.794-1.374c-5.842-5.254-16.874-13.92-30.41-18.542-10.602 7.948.202 28.57-35.7 23.62l-2.892 9.878zm-5.986 142.344c34.522-34.998 90.054-91.922 180.826-186.154.184-.19.274-.438.272-.686 0-.246-.094-.492-.282-.68l-.12-.12c-.186-.186-.432-.28-.68-.282s-.494.09-.686.274c-94.232 90.77-151.156 146.304-186.154 180.824-21.556 21.262-34.786 34.546-43.302 43.19-12.166-8.83-29.33-7.768-40.29 3.192l-3.468 3.468 44.034 44.034 3.468-3.466c10.96-10.96 12.02-28.124 3.192-40.29 8.644-8.516 21.928-21.746 43.19-43.304m-79.666 65.91 6.932 6.932-18.898 18.9-6.932-6.934z"/></svg>