<svg enable-background="new 0 0 441.212 441.212" height="316.227766" viewBox="0 0 441.212 441.212" width="316.227766" xmlns="http://www.w3.org/2000/svg"><path d="m313.086 394.284c1.85-2.744 3.866-5.616 6.078-8.592 6.3-8.48 13.052-16.41 19.66-23.198 4.334-4.454 8.654-8.482 12.776-11.846 5.758-4.696 10.966-7.93 15.024-9.452.306-.108.946-.352 1.666-.546 2.204-.596 5.096-.896 7.69-.896 2.766 0 5.61.456 7.828 1.76.012-2.552-.756-4.858-2.374-6.82-.09-.108-.182-.21-.28-.31-5.09-5.196-15.43-7.91-35.75 8.668-6.426 5.242-13.282 11.954-19.974 19.442-8.89 9.922-17.366 21.098-24.038 31.79-9.188 14.654-17.862 32.874-11.6 42.16 1.702 2.524 4.044 3.996 6.806 4.684-1.324-4.53-.402-11.346 1.446-17.246l.012-.006c1.432-5.752 5.336-14.736 13.352-27.062.548-.842 1.112-1.686 1.678-2.53m54.964-129.874c.774.846 1.45 1.746 2.05 2.684-.07-5.434-1.982-9.996-5.786-13.556-2.474-2.402-6.438-4.806-12.398-4.804-2.276 0-4.846.35-7.732 1.186-11.208 3.244-24.466 13.09-36.378 27.012-12.512 14.626-21.474 31.28-25.236 46.892-4.996 20.74-.596 38.34 12.716 50.906 2.34 2.372 4.99 4.322 7.904 5.846 1.02-1.432 2.07-2.886 3.184-4.386.89-1.198 1.816-2.418 2.77-3.65-2.594-1.136-4.93-2.71-6.926-4.746-.046-.048-.096-.094-.144-.14-10.808-10.16-14.162-24.134-9.97-41.534 7.302-30.318 35.954-61.324 54.806-66.782 2.008-.618 4.914-1.154 6.914-1.154 1.796 0 3.56.264 5.258.74 3.386.946 6.496 2.79 8.968 5.486m-75.806 16.946c.96-.912 1.508-2.174 1.524-3.496.014-1.324-.506-2.598-1.444-3.53l-15.166-15.094-1.232 1.238-85.85-85.85-4.334 4.332 85.862 85.862-1.362 1.368 11.638 11.582c-6.112 6.054-18.942 19.162-30.724 33.78-23.074 28.634-29.674 47.564-20.174 57.872.124.136.258.264.396.384 9.624 8.334 26.424 6.544 48.762-5.108-1.492-2.926-2.678-5.998-3.586-9.19-18.006 9.536-32.212 12.184-38.526 7.08-2.014-2.478-5.404-12.398 20.712-44.822 15.434-19.162 33.326-36.238 33.504-36.408m71.29-12.804c-1.016-1.106-2.202-1.98-3.484-2.662 1.1 8.77-7.026 23.904-22.556 41.15-11.738 13.036-26.24 25.76-40.84 36.014.316 3.658 1.17 7.04 2.532 10.156 16.242-11.03 32.564-25.138 45.594-39.608 9.878-10.97 16.902-20.966 21.012-29.74l-.086-.034c2.272-5.604 1.46-11.316-2.172-15.276m8.812 77.498c-1.466 2.426-3.996 5.584-8.09 9.27-7.024 6.32-15.81 11.702-24.564 15.174-.268.29-.528.566-.798.862-3.618 3.962-7.168 8.17-10.556 12.464 15.6-2.486 31.686-11.502 42.476-21.214 4.41-3.968 7.726-7.874 9.914-11.558.606-1.122 1.246-3.108.436-3.924-1.394-1.404-5.614-1.494-8.818-1.074m67.498-131.274c-2.468 4.006-5.48 7.642-8.932 10.808 4.846 79.938-34.836 156.36-104.452 196.494-12.334 6.774-19.778 9.116-23.974 9.612-.604 3.438-.69 6.658.268 8.526.222.434.562.986 1.84.996.406.004.908-.048 1.532-.178 8.11-1.576 17.424-6.172 25.144-10.412 75.916-43.766 117.822-128.584 108.574-215.846m-262.68 54.202c.732.23 1.494.346 2.264.346 4.156 0 7.538-3.38 7.538-7.536s-3.382-7.538-7.538-7.538-7.538 3.382-7.538 7.538c0 .768.118 1.53.348 2.264l.554 1.77-35.646 35.648v5.198l38.248-38.246zm-45.592 38.066-13.946 13.946v5.198l13.946-13.944zm-19.52 19.52-13.946 13.946v5.2l13.946-13.946zm-19.52 19.522-12.162 12.16c-5.976 5.952-13.716 9.672-21.2 13.268-1.486.714-2.962 1.424-4.41 2.144-15.444 7.688-22.436 13.734-31.178 26.95l-4.762 7.198 14.59 14.59 7.2-4.76c13.214-8.742 19.258-15.736 26.946-31.18.722-1.446 1.43-2.922 2.144-4.406 3.598-7.486 7.318-15.226 13.266-21.2l9.566-9.566zm84.676-70.814-89.904 89.906c-5.212 5.234-8.704 12.5-12.082 19.526-.726 1.51-1.446 3.012-2.18 4.484-8.156 16.386-14.944 24.226-29.054 33.558l-11.372 7.522-21.668-21.668 7.522-11.374c9.332-14.108 17.174-20.896 33.558-29.054 1.474-.732 2.976-1.454 4.488-2.182 7.024-3.376 14.288-6.866 19.528-12.082l89.898-89.902c-.12-.732-.18-1.474-.18-2.218 0-7.536 6.13-13.666 13.666-13.666s13.666 6.13 13.666 13.666c0 7.534-6.13 13.664-13.666 13.664-.746 0-1.488-.06-2.22-.18m-114.192 24.766c6.328 12.51 14.138 24.27 23.248 34.98l4.35-4.348c-8.618-10.192-16.026-21.354-22.044-33.222-1.788.974-3.646 1.832-5.554 2.59m230.56 81.28c-.434-.364-.862-.734-1.282-1.12-.44-.4-.872-.81-1.292-1.236-.766-.724-1.486-1.472-2.198-2.224-21.388 9.328-44.69 14.224-68.198 14.224-38.888 0-76.92-13.444-107.088-37.86-1.008-.816-2-1.648-2.988-2.484l-4.35 4.35c1.148.98 2.308 1.946 3.484 2.898 31.254 25.294 70.656 39.224 110.942 39.224 25.204 0 50.184-5.434 72.972-15.77 0-.002 0-.002-.002-.002m-165.452-334.39c-1.848 2.744-3.864 5.616-6.076 8.592-6.3 8.48-13.054 16.41-19.66 23.198-4.336 4.454-8.654 8.482-12.778 11.844-5.758 4.698-10.964 7.932-15.024 9.454-.306.108-.946.352-1.666.546-2.202.596-5.094.894-7.69.894-2.764 0-5.61-.454-7.826-1.758-.014 2.552.754 4.858 2.374 6.82.088.106.18.21.278.31 5.092 5.196 15.43 7.91 35.752-8.668 6.424-5.242 13.282-11.954 19.974-19.442 8.888-9.922 17.364-21.098 24.038-31.79 9.188-14.654 17.862-32.874 11.6-42.16-1.702-2.524-4.044-3.996-6.806-4.684 1.324 4.53.402 11.346-1.446 17.246l-.012.006c-1.434 5.752-5.336 14.734-13.352 27.06-.55.844-1.114 1.688-1.68 2.532m5.28 117.35c12.514-14.624 21.476-31.278 25.236-46.89 4.996-20.74.598-38.34-12.714-50.906-2.34-2.372-4.992-4.322-7.904-5.848-1.02 1.434-2.072 2.888-3.186 4.388-.89 1.198-1.816 2.418-2.768 3.65 2.594 1.136 4.93 2.71 6.926 4.746.046.048.094.094.142.14 10.808 10.16 14.164 24.134 9.972 41.534-7.302 30.318-35.954 61.324-54.806 66.782-2.01.618-4.916 1.154-6.914 1.154-1.798 0-3.56-.264-5.26-.74-3.386-.946-6.494-2.79-8.966-5.486-.776-.846-1.452-1.746-2.05-2.684.068 5.434 1.982 9.996 5.786 13.556 2.472 2.402 6.436 4.806 12.396 4.804 2.278 0 4.846-.35 7.734-1.186 11.208-3.244 24.466-13.09 36.376-27.014m30.65 17.698 1.232-1.238 85.85 85.85 4.332-4.332-85.86-85.862 1.362-1.37-11.638-11.582c6.11-6.052 18.94-19.16 30.722-33.778 23.076-28.634 29.676-47.564 20.174-57.872-.124-.136-.256-.264-.396-.384-9.624-8.334-26.424-6.544-48.76 5.108 1.492 2.926 2.678 5.998 3.586 9.19 18.006-9.536 32.212-12.186 38.526-7.08 2.014 2.478 5.402 12.398-20.712 44.822-15.434 19.162-33.328 36.238-33.506 36.408-.958.912-1.508 2.174-1.524 3.496-.014 1.324.508 2.598 1.446 3.53zm-86.376-9.316c1.014 1.106 2.202 1.98 3.484 2.662-1.1-8.77 7.026-23.904 22.554-41.15 11.738-13.036 26.24-25.76 40.84-36.014-.314-3.658-1.168-7.04-2.53-10.158-16.244 11.032-32.566 25.14-45.596 39.61-9.878 10.97-16.902 20.966-21.01 29.74l.084.034c-2.27 5.604-1.458 11.316 2.174 15.276m-8.812-77.498c1.464-2.426 3.994-5.584 8.09-9.27 7.022-6.32 15.81-11.702 24.564-15.176.266-.288.528-.564.798-.86 3.616-3.962 7.168-8.17 10.556-12.464-15.602 2.486-31.688 11.502-42.478 21.212-4.41 3.97-7.724 7.876-9.912 11.56-.606 1.122-1.248 3.106-.436 3.924 1.394 1.404 5.612 1.494 8.818 1.074m45.884-76.028c12.336-6.774 19.778-9.116 23.976-9.612.602-3.438.688-6.658-.268-8.526-.222-.434-.562-.986-1.84-.996-.408-.004-.908.048-1.532.176-8.11 1.576-17.424 6.174-25.144 10.414-75.916 43.766-117.824 128.584-108.576 215.846 2.47-4.006 5.48-7.642 8.932-10.808-4.844-79.938 34.836-156.36 104.452-196.494m149.296 153.1c-.73-.23-1.492-.348-2.262-.348-4.158 0-7.538 3.382-7.538 7.538s3.38 7.538 7.538 7.538c4.156 0 7.538-3.382 7.538-7.538 0-.768-.118-1.53-.348-2.264l-.556-1.772 35.646-35.646v-5.2l-38.246 38.248zm45.594-38.066 13.944-13.946v-5.198l-13.944 13.944zm19.52-19.52 13.946-13.946v-5.2l-13.946 13.946zm19.52-19.522 12.16-12.16c5.978-5.952 13.718-9.672 21.202-13.268 1.484-.714 2.96-1.424 4.41-2.144 15.442-7.688 22.436-13.734 31.178-26.95l4.76-7.198-14.588-14.59-7.2 4.76c-13.216 8.742-19.26 15.736-26.948 31.18-.72 1.446-1.43 2.922-2.142 4.406-3.598 7.486-7.318 15.226-13.266 21.2l-9.566 9.566zm-84.678 70.814 89.906-89.906c5.212-5.234 8.704-12.5 12.082-19.526.724-1.51 1.446-3.012 2.178-4.484 8.158-16.386 14.946-24.226 29.054-33.558l11.374-7.522 21.668 21.668-7.524 11.374c-9.332 14.108-17.172 20.896-33.556 29.052-1.476.734-2.976 1.456-4.488 2.182-7.026 3.378-14.29 6.868-19.528 12.084l-89.9 89.902c.12.732.182 1.474.182 2.218 0 7.536-6.132 13.666-13.666 13.666-7.536 0-13.666-6.13-13.666-13.666 0-7.534 6.13-13.666 13.666-13.666.746 0 1.488.062 2.218.182m114.194-24.766c-6.328-12.512-14.138-24.27-23.25-34.982l-4.35 4.35c8.62 10.192 16.026 21.354 22.046 33.222 1.786-.974 3.644-1.834 5.554-2.59m-230.562-81.28c.434.364.864.734 1.284 1.12.438.4.87.81 1.292 1.236.764.724 1.486 1.472 2.198 2.224 21.386-9.328 44.69-14.226 68.196-14.226 38.89 0 76.922 13.446 107.09 37.862 1.006.814 2 1.646 2.986 2.484l4.352-4.35c-1.15-.98-2.31-1.946-3.486-2.898-31.254-25.294-70.654-39.224-110.942-39.224-25.202 0-50.184 5.434-72.97 15.77zm249.15 172.708c24.538 0 44.428-19.892 44.428-44.428 0-24.538-19.89-44.428-44.428-44.428-24.536 0-44.426 19.89-44.426 44.428 0 24.536 19.89 44.428 44.426 44.428m-307.93 20.436c0 24.536-19.89 44.428-44.428 44.428-24.536 0-44.426-19.892-44.426-44.428s19.89-44.428 44.426-44.428c24.538 0 44.428 19.892 44.428 44.428"/></svg>