<svg enable-background="new 0 0 441.21 441.21" height="316.227766" viewBox="0 0 441.21 441.21" width="316.227766" xmlns="http://www.w3.org/2000/svg"><path d="m273.598 217.96 30.192 30.19c11.376-13.168 44.746-53.73 76.34-110.802-48.306 24.56-92.454 66.554-106.532 80.612m34.534 34.534 126.568 126.568c.608-14.418.926-41.168-2.468-73.854-4.49-43.246-16.54-105.604-48.234-162.208-31.658 56.578-64.744 96.65-75.866 109.494m131.964 138.74-.62 6.47-184.194-184.192c-6.534 5.746-13.024 11.138-19.474 16.164l-3.37 2.626-7.698-7.49 3.342-2.606c56.858-44.308 106.126-109.242 149.596-166.534 3.146-4.148 6.244-8.226 9.316-12.264 1.152.172 2.286.548 3.328 1.254l4.082 2.764-2.786 4.064c-45.916 67.046-88.392 118.252-129.026 155.464l6.674 6.674c14.648-14.624 60.942-58.606 111.174-83.292l2.528-1.24 1.45 2.412c35.934 59.75 49.156 127.174 53.924 173.216 5.161 49.85 1.789 86.15 1.754 86.51m-286.062-6.548c3.96-5.46 43.794-58.61 43.794-58.61 2.57-4.25 1.208-9.78-3.044-12.35-1.862-1.126-4.284-.528-5.408 1.332l-13.3 22-21.878-21.88c17.974-19.772 52.202-59.598 61.626-85.764l-.026-.028c-54.452 43.456-102.212 106.406-144.454 162.078-.002.004-.006.008-.01.012 17.872-11.46 47.126-37.882 76.216-69.08l23.3 23.302-15.502 25.642c-1.82 3.01-5.734 3.974-8.742 2.154l-6.848 11.326c4.856 2.936 10.43 5.168 14.276-.134m-60.452 56.524h8.562c14.214-14.844 27.462-31.278 40.16-48.318-2.084-.758-3.98-1.784-5.592-2.754-13.594 18.19-27.81 35.628-43.13 51.072m74.029-217.958-30.191-30.192c-11.376 13.17-44.744 53.732-76.34 110.802 48.306-24.56 92.454-66.552 106.531-80.61m-34.534-34.536-126.567-126.566c-.606 14.418-.924 41.168 2.47 73.852 4.49 43.246 16.538 105.604 48.234 162.208 31.656-56.576 64.742-96.648 75.863-109.494m-69.543 196.822c-3.148 4.148-6.246 8.226-9.318 12.264-1.15-.172-2.284-.546-3.328-1.254l-4.08-2.764 2.784-4.064c45.916-67.044 88.392-118.25 129.026-155.462l-6.674-6.674c-14.65 14.624-60.944 58.606-111.174 83.29l-2.526 1.242-1.452-2.414c-35.932-59.75-49.156-127.174-53.924-173.216-5.16-49.848-1.788-86.15-1.754-86.51l.622-6.47 184.189 184.194c6.536-5.746 13.026-11.14 19.476-16.166l3.372-2.626 7.698 7.49-3.344 2.604c-56.856 44.31-106.125 109.244-149.593 166.536m258.079-83.006-4.334-4.334c-30.61 29.774-52.79 62.746-74.328 94.766-10.752 15.988-21.694 32.232-33.768 48.246h7.668c11.066-14.918 21.202-29.982 31.186-44.826 21.369-31.766 43.371-64.478 73.576-93.852m-4.937 138.678h7.288c16.428-25.47 32.86-50.004 59.594-76.734l-4.326-4.326c-28.47 28.532-45.908 55.186-62.556 81.06m-26.042-169.658-4.332-4.334c-31.308 30.044-55.798 65.832-79.578 100.6-16.912 24.728-34.222 50.036-54.062 73.392h7.982c18.64-22.45 35.074-46.446 51.138-69.932 23.618-34.532 47.942-70.082 78.852-99.726m57.626 57.626c-29.944 29.548-49.832 59.714-69.144 89.006-5.022 7.618-10.086 15.3-15.36 23.026h7.408c4.456-6.59 8.778-13.144 13.07-19.652 20-30.34 39.032-59.204 68.35-88.058zm-.63-329.178h-8.562c-14.216 14.844-27.462 31.278-40.16 48.32 2.082.758 3.978 1.782 5.592 2.754 13.594-18.192 27.807-35.63 43.13-51.074m-104.374 132.728c-.976-.59-1.852-1.28-2.642-2.04-18.258 25.232-37.492 49.562-59.042 69.964l4.334 4.334c21.98-20.826 41.498-45.552 59.994-71.146-.924-.244-1.816-.612-2.644-1.112m43.922-76.204c-3.962 5.46-43.794 58.61-43.794 58.61-2.572 4.25-1.208 9.78 3.044 12.35 1.86 1.126 4.282.53 5.408-1.332l13.3-21.998 21.878 21.878c-17.974 19.772-52.202 59.598-61.628 85.766l.028.026c54.452-43.456 102.212-106.406 144.452-162.078.004-.004.006-.008.01-.012-17.87 11.46-47.124 37.882-76.214 69.08l-23.302-23.302 15.502-25.642c1.82-3.01 5.734-3.974 8.744-2.154l6.846-11.326c-4.854-2.936-10.428-5.168-14.274.134m-91.869 250.846c.926.244 1.818.612 2.644 1.112.978.59 1.852 1.28 2.644 2.04 18.256-25.232 37.49-49.562 59.042-69.964l-4.334-4.334c-21.979 20.826-41.497 45.552-59.996 71.146m-75.713-168.692 4.334 4.334c30.61-29.774 52.79-62.746 74.328-94.766 10.754-15.988 21.696-32.232 33.768-48.246h-7.668c-11.064 14.916-21.2 29.982-31.184 44.826-21.369 31.768-43.373 64.48-73.578 93.852m30.981 30.98 4.332 4.334c31.306-30.042 55.798-65.832 79.576-100.6 16.915-24.728 34.225-50.036 54.065-73.392h-7.982c-18.642 22.45-35.076 46.446-51.14 69.934-23.618 34.53-47.943 70.08-78.851 99.724m-57.625-57.626c29.942-29.548 49.832-59.714 69.142-89.008 5.022-7.616 10.086-15.298 15.36-23.024h-7.408c-4.456 6.59-8.778 13.144-13.068 19.652-20.002 30.34-39.032 59.204-68.35 88.056zm-30.974-30.972-4.324-4.326c26.732-26.73 43.166-51.264 59.592-76.734h7.29c-16.648 25.872-34.086 52.53-62.558 81.06"/></svg>