<svg enable-background="new 0 0 441.214 441.214" height="316.227766" viewBox="0 0 441.214 441.214" width="316.227766" xmlns="http://www.w3.org/2000/svg"><path d="m311.232 399.34c4.738 0 8.578-3.84 8.578-8.578s-3.84-8.58-8.578-8.58-8.58 3.842-8.58 8.58 3.842 8.578 8.58 8.578m-181.89-59.362c-4.738 0-8.578 3.84-8.578 8.578s3.84 8.58 8.578 8.58c4.74 0 8.58-3.842 8.58-8.58s-3.84-8.578-8.58-8.578m284.094-186.526c-4.738 0-8.578 3.84-8.578 8.578s3.84 8.58 8.578 8.58 8.58-3.842 8.58-8.58-3.842-8.578-8.58-8.578m9.088 122.58c-2.628-2.486-5.096-3.442-7.506-3.442h-.002v6.128c.392 0 1.432 0 3.298 1.766 3.164 2.994 3.196 4.756 3.206 5.336.078 4.224-6.03 11.028-12.64 17.752-2.454 2.496-3.768 3.85-5.198 5.322s-2.976 3.064-5.914 6.058c-9.218 9.392-13.164 10.17-16.712 10.17-.792 0-1.664-.05-2.744-.16-5.404-.542-10.152-5.71-15.39-16.756-2.334-4.92-2.276-9.38.174-13.252 2.88-4.554 8.824-7.736 14.456-7.736 1.408 0 2.704.206 3.85.612 2.546.898 5.14 1.354 7.712 1.354 7.426 0 13.324-3.732 18.064-6.732 2.902-1.836 5.902-3.734 7.838-3.734v-6.128c-7.98 0-15.34 10.466-25.902 10.466-1.794 0-3.676-.3-5.672-1.006-1.84-.648-3.836-.958-5.89-.958-13.04 0-28.342 12.506-20.168 29.74 5.248 11.064 11.206 19.312 20.314 20.228 1.154.116 2.264.19 3.358.19 6 0 11.494-2.232 21.086-12.006 5.872-5.986 6.204-6.388 11.108-11.376 13.802-14.038 19.286-22.364 9.274-31.836m-201.918-15.356c-4.738 0-8.578 3.842-8.578 8.58s3.84 8.578 8.578 8.578 8.58-3.84 8.58-8.578-3.842-8.58-8.58-8.58m44.97 38.266-78.05 22.08 28.174 109.14 49.876-78.784zm4.466 56.84-49.11 77.572 167.57-37.92-13.062-13.06zm1.662-5.902 95.284 24.042-80.806-80.808-14.478 4.096zm-77.738 45.34c0-4.738-3.842-8.58-8.58-8.58s-8.58 3.842-8.58 8.58 3.842 8.578 8.58 8.578 8.58-3.84 8.58-8.578m-55.854-8.718 41.612-67.28-25.398-25.4-100.61 100.608h79.49zm82.496-205.964c4.738 0 8.578-3.842 8.578-8.58s-3.84-8.578-8.578-8.578c-4.74 0-8.58 3.84-8.58 8.578s3.84 8.58 8.58 8.58m-8.666 185.264c0-4.738 3.88-8.58 8.664-8.58 4.786 0 8.666 3.842 8.666 8.58s-3.88 8.578-8.666 8.578c-4.784 0-8.664-3.84-8.664-8.578m17.33-290.39c0 4.738-3.88 8.58-8.666 8.58-4.784 0-8.664-3.842-8.664-8.58s3.88-8.578 8.664-8.578c4.786 0 8.666 3.84 8.666 8.578m-53.636 66.86 78.05-22.08-28.172-109.14-49.878 78.782zm-4.466-56.84 49.11-77.572-167.568 37.92 13.062 13.06zm-1.662 5.902-95.282-24.042 80.806 80.808 14.476-4.096zm77.74-45.34c0 4.738 3.842 8.58 8.58 8.58s8.578-3.842 8.578-8.58-3.84-8.578-8.578-8.578-8.58 3.84-8.58 8.578m14.24 75.998 25.4 25.4 100.61-100.61h-79.492zm-33.948 98.614 173.018 173.02-6.932 6.932h-.002.002l-179.662 40.656-78.764-40.656h-87.612l-6.932-6.932 173.018-173.02-173.018-173.018 6.932-6.932 179.66-40.656h.002l78.764 40.656h87.61.002l6.932 6.932zm207.546-57.386c-.002-3.466-1.822-6.938-5.408-10.312-5.134-4.832-9.328-8.952-12.696-12.262-9.25-9.086-12.6-12.228-15.614-12.228-.706 0-1.56.124-2.612.38-2.684.654-5.442 1.896-7.094 9.102-1.668 7.28-1.748 18.77-1.35 33.778.24 9.148 4.742 13.594 13.764 13.594 6.754 0 14.87-2.802 21.18-7.314 6.248-4.468 9.832-9.84 9.83-14.738m6.128-.002c.006 15.024-20.678 28.182-37.138 28.182-10.644 0-19.52-5.502-19.89-19.56-.844-31.916.48-45.914 13.12-48.996 1.488-.362 2.814-.554 4.062-.554 7.574 0 12.25 7.086 32.51 26.156 5.168 4.864 7.332 9.916 7.336 14.772m-62.556 131.52c-4.738 0-8.578 3.842-8.578 8.58s3.84 8.578 8.578 8.578 8.58-3.84 8.58-8.578-3.842-8.58-8.58-8.58m-50.538-60.59c0-4.738-3.84-8.578-8.578-8.578s-8.58 3.84-8.58 8.578 3.842 8.58 8.58 8.58 8.578-3.842 8.578-8.58m21.558-38.154c-.004.258-.008.526-.01.806-.192 17.888 11.54 30.718 22.532 35.214 1.506.616 1.24 2.91-.368 3.118-3.512.452-16.032-.024-20.216.81-12.404 2.474-20.974 11.276-23.596 20.97-2.974 11.004-17.318 10.85-18.896-5.132-1.134-11.468-12-18.618-18.012-19.684-5.86-1.04-9.512.528-12.828.536-5.318.014-9.566-4.754-9.026-10.394.464-4.852 4.602-8.422 9.294-8.464 6.814-.062 13.59 1.116 22.766 1.698 17.058 1.082 35.414-6.918 44.692-20.696 1.142-1.694 3.702-.852 3.668 1.218m-47.284 129.594c-4.738 0-8.578 3.842-8.578 8.58s3.84 8.578 8.578 8.578 8.58-3.84 8.58-8.578-3.842-8.58-8.58-8.58m-259.938-13.172c2.684-.654 5.442-1.896 7.094-9.102 1.67-7.282 1.748-18.77 1.352-33.78-.242-9.146-4.744-13.592-13.764-13.592-6.754 0-14.87 2.802-21.18 7.314-6.25 4.468-9.832 9.84-9.83 14.736.002 3.468 1.822 6.938 5.408 10.314 5.132 4.832 9.326 8.952 12.696 12.262 9.248 9.086 12.6 12.228 15.612 12.228.706 0 1.562-.124 2.612-.38m1.452 5.954c-1.488.362-2.814.554-4.064.554-7.572 0-12.248-7.086-32.508-26.156-5.168-4.864-7.334-9.916-7.336-14.772-.008-15.024 20.678-28.182 37.138-28.182 10.642 0 19.52 5.502 19.89 19.56.842 31.916-.48 45.912-13.12 48.996m94.91-202.744c4.738 0 8.58-3.842 8.58-8.58s-3.842-8.578-8.58-8.578-8.578 3.84-8.578 8.578 3.84 8.58 8.578 8.58m-119.126 39.768c.012.58.044 2.342 3.208 5.336 1.866 1.766 2.904 1.766 3.296 1.766 1.934 0 4.936-1.898 7.84-3.736 4.738-2.998 10.638-6.73 18.064-6.73 2.57 0 5.164.456 7.712 1.354 1.146.406 2.44.61 3.848.61 5.632 0 11.578-3.18 14.458-7.734 2.45-3.874 2.508-8.332.174-13.252-5.24-11.046-9.986-16.214-15.39-16.758-1.082-.108-1.954-.158-2.744-.158-3.548 0-7.496.778-16.712 10.17-2.938 2.994-4.484 4.586-5.914 6.058s-2.746 2.826-5.198 5.322c-6.612 6.724-12.718 13.528-12.642 17.752m8.272-22.048c4.902-4.988 5.234-5.39 11.108-11.376 9.592-9.774 15.086-12.006 21.086-12.006 1.092 0 2.202.074 3.356.19 9.11.916 15.066 9.164 20.314 20.228 8.176 17.234-7.126 29.74-20.168 29.74-2.052 0-4.05-.31-5.89-.96-1.994-.704-3.878-1.006-5.67-1.006-10.562.002-17.924 10.468-25.904 10.468-2.41 0-4.88-.956-7.508-3.442-10.01-9.472-4.526-17.798 9.276-31.836m-.188 137.258c-4.738 0-8.578 3.842-8.578 8.58s3.84 8.578 8.578 8.578 8.58-3.84 8.58-8.578-3.842-8.58-8.58-8.58m85.316-63.538c0 4.738 3.842 8.578 8.58 8.578s8.578-3.84 8.578-8.578-3.84-8.58-8.578-8.58-8.58 3.842-8.58 8.58m-21.558 38.154c.004-.258.008-.526.012-.806.19-17.888-11.54-30.718-22.532-35.214-1.508-.616-1.24-2.91.368-3.118 3.51-.452 16.03.022 20.216-.812 12.404-2.472 20.974-11.274 23.594-20.968 2.976-11.004 17.32-10.85 18.898 5.132 1.132 11.468 12 18.618 18.012 19.684 5.86 1.04 9.512-.528 12.828-.536 5.318-.014 9.566 4.754 9.026 10.392-.464 4.854-4.602 8.424-9.296 8.466-6.812.062-13.588-1.116-22.764-1.698-17.06-1.084-35.414 6.918-44.694 20.696-1.142 1.694-3.7.852-3.668-1.218m220.336-143.984c4.738 0 8.58-3.84 8.58-8.578s-3.842-8.58-8.58-8.58-8.578 3.842-8.578 8.58 3.84 8.578 8.578 8.578m-181.888-59.362c-4.738 0-8.578 3.84-8.578 8.578s3.84 8.58 8.578 8.58 8.58-3.842 8.58-8.58-3.842-8.578-8.58-8.578m-76.006 96.022c0-4.738 3.842-8.58 8.58-8.58s8.578 3.842 8.578 8.58-3.84 8.58-8.578 8.58-8.58-3.842-8.58-8.58"/></svg>