<svg enable-background="new 0 0 443.678 443.676" height="316.227766" viewBox="0 0 443.678 443.676" width="316.227766" xmlns="http://www.w3.org/2000/svg"><path d="m323.891 371.456 47.482-47.482c-5.326.47-10.596 1.73-15.604 3.826-4.648 1.834-9.956.658-13.498-2.882l-25.982-25.982c-2.69-2.69-7.05-2.69-9.74 0l-7.648 7.646c-2.688 2.69-2.688 7.05 0 9.74l25.958 25.958c3.552 3.55 4.722 8.876 2.87 13.53-2.106 5.022-3.37 10.306-3.838 15.646"/><path d="m402.471 395.954c-8.76 0-15.862-7.102-15.862-15.862 0-8.762 7.102-15.864 15.862-15.864 8.762 0 15.864 7.102 15.864 15.864 0 8.76-7.102 15.862-15.864 15.862m10.548-56.898c-7.98-7.972-17.896-12.804-28.234-14.55l-60.352 60.352c1.754 10.31 6.59 20.2 14.556 28.16l9.962 9.962c20.442 20.424 53.586 20.424 74.03 0 20.442-20.424 20.442-53.538 0-73.964z"/><path d="m130.968 295.086 15.786-15.822 17.828 17.828-15.788 15.822zm-4.704 40.414-17.828-17.828 15.568-15.606 17.828 17.828zm41.824-77.624 17.828 17.828-16.984 17.024-17.828-17.826zm21.336-21.384 17.826 17.826-16.982 17.026-17.828-17.828zm21.334-21.386 17.816 17.838-16.972 17.012-17.828-17.826zm21.334-21.386 17.828 17.828-16.984 17.022-17.816-17.838zm21.336-21.386 17.826 17.828-16.982 17.022-17.828-17.826zm21.334-21.386 17.828 17.828-16.984 17.024-17.826-17.828zm20.13-20.178 17.828 17.828-15.778 15.816-17.828-17.828zm22.54-22.592 17.828 17.828-15.578 15.612-17.826-17.828zm-51.818 321.556-112.462-112.462 79.774-79.966 63.192 63.344 4.358-4.356-63.196-63.346.016-.016-.002-.004 79.782-79.972 112.658 112.658-52.01 52.01c4.192.12 8.312.666 12.302 1.642l53.652-53.652-119.638-119.64 19.928-19.974-26.542-26.542-19.928 19.976-119.434-119.434-53.554 53.554c.996 4.008 1.562 8.114 1.688 12.256l51.866-51.868 112.47 112.472-79.766 79.956-63.192-63.344-4.356 4.358 63.194 63.348-.016.014.004.002-79.792 79.982-112.666-112.666 52.01-52.012c-4.192-.12-8.31-.668-12.298-1.644l-53.656 53.656 119.646 119.646-19.92 19.968 26.542 26.542 19.92-19.968 119.426 119.424 53.568-53.566c-.996-4.01-1.56-8.118-1.686-12.26z"/><path d="m324.533 70.415h87.617v9.859h-87.617z" transform="matrix(.7072 -.707 .707 .7072 54.5801 282.4821)"/><path d="m41.224 47.723c8.76 0 15.862 7.102 15.862 15.862 0 8.762-7.102 15.864-15.862 15.864-8.762 0-15.862-7.102-15.862-15.864 0-8.76 7.1-15.862 15.862-15.862m-10.548 56.898c7.98 7.972 17.896 12.804 28.234 14.55l60.352-60.352c-1.754-10.312-6.59-20.2-14.556-28.16l-9.962-9.962c-20.442-20.424-53.586-20.424-74.03 0-20.442 20.424-20.442 53.538 0 73.962z"/><path d="m119.804 72.221-47.482 47.482c5.326-.47 10.596-1.73 15.604-3.826 4.648-1.834 9.956-.66 13.498 2.882l25.982 25.982c2.69 2.69 7.05 2.69 9.74 0l7.648-7.646c2.688-2.69 2.688-7.05 0-9.74l-25.958-25.958c-3.552-3.55-4.722-8.876-2.87-13.53 2.106-5.022 3.37-10.306 3.838-15.646"/><path d="m31.545 363.404h87.618v9.858h-87.618z" transform="matrix(.7072 -.707 .707 .7072 -238.3498 161.1192)"/></svg>