<svg enable-background="new 0 0 441.212 441.212" height="316.227766" viewBox="0 0 441.212 441.212" width="316.227766" xmlns="http://www.w3.org/2000/svg"><path d="m240.068 244.4 4.334-4.332-19.462-19.462 19.462-19.462-4.334-4.334-19.46 19.462-19.464-19.462-4.332 4.334 19.462 19.462-19.462 19.462 4.332 4.332 19.464-19.462zm-12.682 106.188 4.334-4.332-28.928-28.928 114.538-114.538 28.926 28.928 4.332-4.334-28.926-28.926 55.046-55.046-4.334-4.332-55.044 55.044-70.244-70.242 55.046-55.046-4.332-4.332-55.046 55.046-28.926-28.928-4.334 4.334 28.928 28.926-114.538 114.538-28.928-28.928-4.332 4.334 28.928 28.926-55.046 55.048 4.332 4.332 55.046-55.046 70.244 70.242-55.048 55.046 4.334 4.332 55.046-55.046zm110.808 3.204 4.332 4.332-83.086 83.088-54.406-54.406-32.694 32.692-150.628-150.628 32.694-32.692-54.406-54.406 83.086-83.086 4.334 4.332-78.754 78.754 50.072 50.072 24.952-24.952-9.482-9.484c-2.886 1.188-6.324.612-8.666-1.732-3.112-3.112-3.112-8.156 0-11.266 3.11-3.112 8.154-3.112 11.266 0 2.342 2.342 2.92 5.782 1.732 8.666l9.484 9.484 35.29-35.292-9.482-9.482c-2.886 1.186-6.324.61-8.666-1.734-3.112-3.11-3.112-8.154 0-11.266 3.11-3.11 8.154-3.11 11.264 0 2.344 2.344 2.92 5.782 1.734 8.668l9.484 9.484 35.29-35.292-9.484-9.484c-2.884 1.188-6.324.61-8.666-1.732-3.112-3.112-3.112-8.156 0-11.268 3.11-3.11 8.154-3.11 11.264 0 2.344 2.344 2.922 5.784 1.736 8.668l9.484 9.484 35.29-35.292-9.486-9.482c-2.884 1.186-6.322.61-8.666-1.734-3.11-3.11-3.11-8.154 0-11.266 3.112-3.11 8.156-3.11 11.266 0 2.344 2.342 2.92 5.782 1.734 8.666l9.484 9.484 24.952-24.952-50.072-50.074-78.756 78.754-4.332-4.332 83.088-83.086 54.406 54.404 32.692-32.692 150.63 150.628-32.696 32.694 54.406 54.406-83.086 83.086-4.332-4.334 78.754-78.752-50.074-50.074-24.952 24.952 9.482 9.484c2.886-1.188 6.324-.61 8.668 1.734 3.11 3.11 3.11 8.154 0 11.266-3.112 3.11-8.154 3.11-11.266 0-2.342-2.344-2.92-5.784-1.734-8.668l-9.482-9.482-35.292 35.29 9.484 9.482c2.884-1.186 6.324-.61 8.666 1.734 3.112 3.112 3.112 8.154 0 11.266-3.11 3.112-8.154 3.112-11.264 0-2.344-2.344-2.92-5.782-1.736-8.666l-9.482-9.484-35.292 35.29 9.484 9.484c2.886-1.186 6.326-.61 8.666 1.734 3.112 3.11 3.112 8.154 0 11.266-3.108 3.11-8.154 3.11-11.264 0-2.344-2.344-2.92-5.782-1.734-8.668l-9.484-9.482-35.29 35.29 9.484 9.484c2.884-1.186 6.324-.61 8.666 1.734 3.112 3.11 3.112 8.154 0 11.264-3.112 3.112-8.154 3.112-11.266 0-2.344-2.342-2.92-5.782-1.734-8.666l-9.482-9.484-24.954 24.952 50.074 50.074zm62.364-306.204-6.932-6.934-45.974 45.972 6.934 6.932zm-65.308 280.728-6.934 6.932 65.308 65.31h.002l6.932-6.934zm-229.286-215.422v.002l6.932-6.934-65.308-65.308-6.932 6.934 65.308 65.308zm-19.336 234.758 6.932 6.934-45.972 45.972-6.932-6.934z"/></svg>