<svg enable-background="new 0 0 441.214 441.214" height="316.227766" viewBox="0 0 441.214 441.214" width="316.227766" xmlns="http://www.w3.org/2000/svg"><path d="m408.374 123.136-41.682-41.682.058-.058 33.808-33.808-6.932-6.932-86.272 86.27 1.404.002c3.636 0 7.07.842 10.156 2.304l4.602-4.6 43.67 43.67.11.104c8.124 7.36 12.786 17.86 12.786 28.812 0 11.278-4.834 21.446-12.532 28.55.552 2.27.972 4.588 1.264 6.946 10.574-8.24 17.396-21.082 17.396-35.496 0-12.654-5.374-24.786-14.744-33.302l-43.618-43.618 34.512-34.512 41.734 41.736.11.104c19.626 17.774 30.882 43.14 30.882 69.592 0 51.41-41.546 93.278-92.824 93.84-3.628 2.454-7.536 4.514-11.656 6.156h10.612c55.138 0 99.996-44.858 99.996-99.996 0-28.154-11.97-55.152-32.84-74.082m-367.72 270.49 6.934 6.932 100.332-100.332c-4.09.864-8.326 1.324-12.668 1.324-.82 0-1.588-.028-2.4-.06-.038.022-.088.05-.146.084-5.994 3.09-10.736 5.752-22.34 5.752-13.038 0-19.414-3.356-26.164-6.91-7.11-3.746-14.466-7.618-29.018-7.618-14.554 0-21.908 3.872-29.02 7.618-6.748 3.554-13.124 6.91-26.164 6.91v6.128c14.554 0 21.908-3.872 29.02-7.616 6.75-3.554 13.124-6.912 26.164-6.912 13.038 0 19.414 3.358 26.164 6.912 7.11 3.744 14.466 7.616 29.018 7.616 4.404 0 8.142-.358 11.418-.958l-24.51 24.512h-.002c-5.198-1.31-9.072-3.34-13.07-5.444-7.11-3.744-14.466-7.616-29.018-7.616-14.554 0-21.908 3.872-29.02 7.616-6.748 3.554-13.124 6.91-26.164 6.91v6.128c14.554 0 21.908-3.872 29.02-7.616 6.75-3.554 13.124-6.91 26.164-6.91 13.038 0 19.414 3.356 26.164 6.91 3.356 1.768 6.79 3.552 10.992 4.954zm267.346-92.076c-5.288 0-10.422-.672-15.32-1.938l100.946 100.946 6.932-6.932-92.086-92.088c-.158.002-.314.012-.472.012m-33.298 130.188c-1.322.902-2.422 1.492-4.49.842-2.506-.786-6.106-3.402-11.004-8-6.214-5.83-11.908-16.092-17.414-26.018-5.36-9.66-10.418-18.782-15.356-22.598-7.326-5.662-13.166-9.192-18.318-12.308-10.146-6.136-17.48-10.572-26.52-26.538-.1-.172-.052-.088-.002 0-4.5 3.052-10.392 7.208 5.1 23.19 0 0 9.786 12.23 28.262 25.446 5.322 3.808 9.672 8.788 13.016 14.414 12.676 21.324 33.31 33.79 33.31 33.79 7.582 5.492 13.098 7.228 17.03 7.256 6.554.044 8.714-4.662 8.714-4.662-.018-.016-.024-.02-.034-.032-8.278-7.516-10.23-6.188-12.294-4.782m-120.916-221.784-15.442 21.724h63.724l-19.08-62.806-17.804 25.048c11.196 7.252 19.598 18.452 23.236 31.63h-20.81c-2.954-6.474-7.806-11.898-13.824-15.596m36.66-50.264 20.2 66.494 57.652-66.494zm-5.284-67.026 8.878-8.878c-3.618-.892-7.294-1.37-10.648-1.37-6.326 0-8.808 1.664-8.952 2.236-.272 1.086 3.218 4.974 10.722 8.012m-10.236-15.234c2.418-.776 5.328-1.142 8.466-1.142 3.946 0 8.242.57 12.328 1.596 8.548 2.142 16.954 6.474 20.25 11.508 1.292-.762 2.852-1.192 4.636-1.192s3.344.43 4.638 1.192c3.294-5.034 11.702-9.366 20.248-11.508 4.088-1.026 8.382-1.596 12.33-1.596 3.136 0 6.046.366 8.464 1.142-7.47-12.384-25.102-21.09-45.68-21.09s-38.21 8.706-45.68 21.09m87.706 5.384-11.526 11.524c10.916-3.064 15.992-8.386 15.666-9.686-.1-.396-1.316-1.31-4.14-1.838m-12.474.338c-1.058.192-2.118.41-3.176.676-11.888 2.982-17.396 8.71-17.056 10.066.13.52 2.196 1.932 7.3 2.192zm-47.16 3.81-8.418 8.418c2.66.488 5.296.75 7.758.75 6.324 0 8.806-1.664 8.95-2.236.24-.96-2.47-4.114-8.29-6.932m-34.676-1.69c-.824-5.46-1.424-13.378-1.052-22.272.732-20.432 23.81-25.436 46.13-30.274 13.874-3.006 26.978-5.846 34.798-12.362 3.438-2.864 6.036-5.714 7.808-8.532.002.002.006.004.008.008 1.472 1.494 2.852 3.142 4.158 4.948 15.538 21.46 14.93 53.826 12.718 68.484-.532 6.614-11.002 12.712-21.686 15.392-4.086 1.024-8.382 1.594-12.328 1.594-7.464 0-13.688-2.074-14.902-6.912-.268-1.02-.918-2.244-3.368-2.244-2.448 0-3.1 1.224-3.368 2.244-1.212 4.838-7.438 6.912-14.9 6.912-3.948 0-8.244-.57-12.33-1.594-10.684-2.68-21.154-8.778-21.686-15.392m75.838-69.754c2.57-2.14 5.352-4.904 6.968-7.842-7.492-5.296-17.15-7.676-30.522-7.676-19.466 0-31.062 5.04-39.566 16.788-5.578 7.704-9.066 16.812-11.156 26.004 9.978-9.248 26.752-12.884 42.182-16.228 13.094-2.838 25.464-5.52 32.094-11.046m-55.74 239.446c-6.44 23.324-27.796 40.46-53.168 40.46-30.468 0-55.166-24.7-55.166-55.166 0-30.468 24.698-55.166 55.166-55.166 8.834 0 17.18 2.082 24.582 5.776l20.904-29.408-8.15-26.828-1.44.362c-1.836.612-3.72.906-5.584.906-5.82 0-11.44-2.87-14.792-7.898l-2.06-3.092c-.828-1.24-.906-2.83-.202-4.146.706-1.316 2.07-2.134 3.564-2.134h47.222c2.53 0 4.586 2.058 4.586 4.586 0 1.978-1.26 3.726-3.136 4.35l-18.638 4.678 6.476 21.318h84.852l5.388 20.182-62.544 72.134c-1.63 1.878-3.996 2.958-6.482 2.958h-74.546c-4.738 0-8.58-3.84-8.58-8.58 0-1.788.55-3.448 1.486-4.822.004-.008.006-.014.012-.022l20.074-28.242c-4.026-1.588-8.406-2.47-12.992-2.47-19.606 0-35.558 15.952-35.558 35.558s15.952 35.556 35.558 35.556c14.362 0 26.752-8.564 32.358-20.85zm80.598 136.652h-10.2c-1.694 0-3.064-1.372-3.064-3.064s1.37-3.064 3.064-3.064h8.222l-2.046-6.474h-12.464c-1.692 0-3.064-1.372-3.064-3.064s1.372-3.064 3.064-3.064h10.526l-2.048-6.474h-14.764c-1.692 0-3.064-1.372-3.064-3.064s1.372-3.064 3.064-3.064h12.826l-2.046-6.474h-17.066c-1.694 0-3.064-1.37-3.064-3.064 0-1.692 1.37-3.064 3.064-3.064h15.184l-2.892-9.878c-35.902 4.952-25.098-15.67-35.702-23.618-13.138 4.486-24.276 12.974-30.434 18.506l.782 1.34c8.278 14.634 14.344 18.302 24.394 24.38 5.294 3.2 11.294 6.828 18.896 12.704 5.936 4.588 11.292 14.246 16.964 24.468 5.28 9.518 10.738 19.354 16.252 24.528 4.662 4.378 7.05 5.882 8.1 6.394 4.992-3.276 9.522-2.646 16.164 2.554-1.59-5.98-6.36-13.644-10.154-20.024-3.986-6.698-6.198-10.774-8.494-17.42m128.768-149.058c4.286-5.342 7.788-11.246 10.406-17.548l-5.658-2.352c-2.396 5.768-5.602 11.174-9.528 16.064zm-48.394-130.894 13.866 13.866 4.332-4.332-13.864-13.866zm63.106 98.822c.804-4.348 1.212-8.81 1.212-13.268 0-2.376-.116-4.768-.344-7.11l-6.1.596c.21 2.144.316 4.336.316 6.514 0 4.084-.372 8.172-1.108 12.154zm-34.63-79.012-4.332 4.334 13.95 13.838 4.274-4.392zm5.382 117.104c-4.85 3.974-10.222 7.236-15.966 9.692l2.408 5.634c6.276-2.684 12.146-6.244 17.442-10.586zm13.122-88.28c3.494 5.208 6.224 10.868 8.114 16.822l5.84-1.854c-2.066-6.508-5.048-12.692-8.866-18.382zm-341.188-17.114c13.038 0 19.414 3.356 26.164 6.91 7.11 3.744 14.466 7.616 29.018 7.616s21.904-3.872 29.016-7.616c.83-.436 1.652-.87 2.484-1.294l-4.546-4.546c-.264.14-.53.278-.794.418-6.748 3.554-13.124 6.91-26.16 6.91-13.038 0-19.414-3.356-26.164-6.91-7.11-3.744-14.466-7.616-29.018-7.616-14.554 0-21.908 3.872-29.02 7.616-6.748 3.554-13.124 6.91-26.164 6.91v6.128c14.554 0 21.908-3.872 29.02-7.616 6.75-3.554 13.124-6.91 26.164-6.91m79.422-15.512-87.018-87.016-6.932 6.932 87.016 87.018zm154.022 82.792-5.228-19.582c-18.116 9.044-30.566 27.75-30.566 49.376 0 30.466 24.7 55.166 55.166 55.166 30.468 0 55.166-24.7 55.166-55.166 0-30.468-24.698-55.166-55.166-55.166-1.104 0-2.196.042-3.284.106l5.222 19.558c18.708 1.01 33.62 16.546 33.62 35.502 0 19.606-15.952 35.556-35.558 35.556s-35.556-15.95-35.556-35.556c0-12.464 6.452-23.442 16.184-29.794m-159.12-31.222c1.892-.178 3.806-.278 5.744-.278 2.576 0 5.108.178 7.602.488 5.658-2.814 11.884-5.12 22.688-5.12.65 0 1.27.014 1.888.03l-6.038-6.036c-11.856.662-18.468 4.126-24.866 7.494-2.288 1.206-4.54 2.384-7.018 3.422m173.758 62.28 9.472-2.53-25.356-94.95c-.096-.384.046-.67.18-.842.134-.17.376-.374.77-.374l20.356.034c4.428 0 8.03 3.602 8.03 8.032 0 4.428-3.602 8.03-8.03 8.03v9.804c9.834 0 17.834-8 17.834-17.834 0-9.836-8-17.836-17.764-17.836l-20.426-.036c-3.344 0-6.44 1.512-8.498 4.146s-2.774 6.006-1.944 9.326zm-248.082 26.256c13.038 0 19.414 3.358 26.164 6.912 1.65.868 3.32 1.744 5.086 2.576-2.378-3.128-4.462-6.49-6.212-10.046-6.072-2.988-13.154-5.57-25.038-5.57-14.554 0-21.908 3.872-29.02 7.616-6.748 3.554-13.124 6.912-26.164 6.912v6.128c14.554 0 21.908-3.872 29.02-7.616 6.75-3.554 13.124-6.912 26.164-6.912m0-62.296c12.702 0 19.08 3.186 25.642 6.636.946-1.82 1.978-3.588 3.094-5.298-7.026-3.696-14.376-7.466-28.736-7.466-14.554 0-21.908 3.87-29.02 7.616-6.748 3.554-13.124 6.91-26.164 6.91v6.128c14.554 0 21.908-3.872 29.02-7.616 6.75-3.554 13.124-6.91 26.164-6.91m0-31.15c13.038 0 19.414 3.356 26.164 6.91 5.714 3.01 11.594 6.096 21.23 7.194 3.708-2.346 7.678-4.314 11.864-5.83-1.288.078-2.634.124-4.076.124-13.038 0-19.414-3.356-26.164-6.91-7.11-3.744-14.466-7.616-29.018-7.616-14.554 0-21.908 3.872-29.02 7.616-6.748 3.554-13.124 6.91-26.164 6.91v6.128c14.554 0 21.908-3.87 29.02-7.616 6.75-3.554 13.124-6.91 26.164-6.91m-26.164 69.208c-7.112 3.744-14.466 7.616-29.02 7.616v-6.128c13.04 0 19.416-3.356 26.164-6.91 7.112-3.744 14.466-7.616 29.02-7.616 8.292 0 14.244 1.258 19.15 3.034-.232 2.114-.36 4.258-.37 6.432-4.75-1.942-10.38-3.338-18.78-3.338-13.04 0-19.414 3.356-26.164 6.91"/></svg>