<svg enable-background="new 0 0 441.212 441.213" height="316.227766" viewBox="0 0 441.212 441.213" width="316.227766" xmlns="http://www.w3.org/2000/svg"><path d="m280.816 273.884 102.504-102.504 49.226 49.226-102.504 102.504zm-55.878-10.024-17.294-17.294 17.296-17.294 17.292 17.292zm-21.626 21.626-17.294-17.294 17.294-17.294 17.294 17.294zm-21.626 21.626-17.294-17.294 17.294-17.294 17.294 17.294zm-21.626 21.626-17.294-17.292 17.294-17.294 17.292 17.294zm-21.628 21.628-17.292-17.294 17.292-17.294 17.294 17.294zm-21.626 21.626-17.294-17.294 17.294-17.294 17.294 17.294zm-21.626 21.626-17.294-17.294 17.294-17.292 17.294 17.292zm-21.626 21.626-17.294-17.292 17.294-17.294 17.294 17.292zm-38.92-38.92 17.292-17.292 17.294 17.292-17.294 17.294zm-8.668-8.666 341.692-341.69 4.334 4.332-341.692 341.692zm367.652-315.73-17.294 17.294-17.294-17.294 17.294-17.294zm21.626 21.626-17.294 17.292-17.292-17.292 17.292-17.294zm-38.92 38.92-17.294-17.294 17.294-17.294 17.294 17.294zm-21.626 21.626-17.294-17.294 17.294-17.294 17.294 17.294zm-21.626 21.626-17.294-17.292 17.294-17.296 17.294 17.296zm-21.628 21.626-17.294-17.292 17.294-17.294 17.294 17.294zm-21.626 21.628-17.294-17.294 17.294-17.294 17.294 17.294zm-21.626 21.626-17.294-17.294 17.294-17.294 17.294 17.294zm-4.334-38.92-17.292 17.294-17.294-17.294 17.294-17.294zm21.628-21.626-17.294 17.292-17.294-17.292 17.294-17.294zm21.626-21.626-17.294 17.294-17.294-17.294 17.294-17.294zm21.626-21.628-17.294 17.294-17.294-17.294 17.296-17.294zm8.666-43.252 17.294-17.294 17.294 17.294-17.294 17.294zm12.962 21.626-17.294 17.294-17.294-17.294 17.294-17.294zm-142.722 108.132 17.294-17.294 17.294 17.294-17.292 17.294zm-21.626 21.628 17.294-17.296 17.294 17.296-17.294 17.292zm-21.626 21.624 17.294-17.292 17.294 17.294-17.294 17.294zm-21.626 21.628 17.294-17.294 17.294 17.294-17.294 17.294zm-21.626 21.626 17.292-17.294 17.294 17.294-17.294 17.294zm-21.626 21.628 17.292-17.294 17.294 17.294-17.294 17.294zm-8.668 43.252-17.292 17.294-17.294-17.294 17.294-17.294zm-12.96-21.626 17.294-17.294 17.294 17.294-17.294 17.294zm168.68-90.84-17.294-17.292 17.294-17.296 17.292 17.296zm-188.676 27.6-49.224-49.226 102.504-102.504 49.224 49.226zm383.322-49.226-77.844-77.844-4.332 4.332 19.952 19.954-102.504 102.504-24.286-24.286 171.712-171.712-56.252-56.252-171.712 171.712-148.36-148.36-6.932 6.934 66.182 66.182-106.836 106.836 77.844 77.844 4.332-4.334-19.952-19.952 102.504-102.502 24.286 24.284-171.712 171.712 56.252 56.254 171.71-171.714 148.362 148.36 6.932-6.934-66.182-66.182zm-304.193-166.056c8.526 3.544 19.012 23.032 21.284 27.418-4 6.76-6.992 16.44-3.2 28.248-11.816-10.98-19.228-26.64-19.228-44.002 0-3.992.4-7.888 1.144-11.664m58.94-48.422c15.588 0 29.804 5.97 40.494 15.736-6.652-.216-16.644 2.432-27.774 15.588-20.03 23.672-45.232 18.696-45.232 18.696-3.94-19.814-8.612-27.466-11.864-30.398 10.996-12.05 26.818-19.622 44.376-19.622m56.032 38.43c2.606 6.724 4.052 14.022 4.052 21.656 0 32.202-25.466 58.56-57.314 60.014-6.542-2.59-20.86-10.12-22.416-26.86-.878-9.426 2.31-18.13 5.39-24.102 26.222 4.498 47.05-8.262 54.918-19.722 5.864-8.542 11.803-10.612 15.37-10.986m-56.032 87.868c36.568 0 66.212-29.644 66.212-66.212s-29.644-66.214-66.212-66.214-66.212 29.646-66.212 66.214 29.644 66.212 66.212 66.212m108.23 254.237c-8.526-3.544-19.01-23.032-21.284-27.418 4-6.76 6.992-16.44 3.2-28.248 11.816 10.982 19.228 26.64 19.228 44.004 0 3.99-.398 7.886-1.144 11.662m-58.94 48.422c-15.586 0-29.804-5.968-40.492-15.738 6.65.218 16.642-2.43 27.774-15.586 20.03-23.672 45.23-18.694 45.23-18.694 3.94 19.814 8.612 27.466 11.864 30.396-10.996 12.05-26.818 19.622-44.376 19.622m-56.03-38.43c-2.608-6.724-4.054-14.022-4.054-21.654 0-32.204 25.466-58.562 57.316-60.016 6.54 2.59 20.858 10.118 22.414 26.86.878 9.428-2.31 18.13-5.39 24.102-26.222-4.498-47.048 8.262-54.918 19.722-5.864 8.542-11.804 10.612-15.368 10.986m56.03-87.868c-36.568 0-66.212 29.646-66.212 66.214s29.644 66.212 66.212 66.212 66.212-29.644 66.212-66.212-29.644-66.214-66.212-66.214"/></svg>