<svg enable-background="new 0 0 441.212 441.212" height="316.227766" viewBox="0 0 441.212 441.212" width="316.227766" xmlns="http://www.w3.org/2000/svg"><path d="m92.394 42.266c14.826-6.48 32.532-6.478 47.362 0 8.772 3.832 18.378 5.774 28 5.85-.012-.452-.03-.904-.03-1.358 0-1.604.084-3.188.224-4.756-8.844-.052-17.678-1.828-25.742-5.35-8.182-3.576-17.158-5.362-26.134-5.362s-17.952 1.786-26.134 5.362c-8.184 3.574-19.566 6.302-31.618 6.07l5.994 5.992c10.738-.594 20.634-3.196 28.078-6.448m-92.394 216.366h27.104v-9.804h-17.3v-56.378h17.3v-9.804h-27.104zm92.394-247.656c14.826-6.478 32.532-6.478 47.362 0 11.726 5.124 24.94 6.868 37.694 5.28 1.864-2.634 3.962-5.088 6.266-7.336-13.738 3.25-28.606 2.078-41.508-3.558-8.182-3.576-17.158-5.362-26.134-5.362s-17.952 1.786-26.134 5.362c-6.724 2.938-15.608 5.314-25.25 5.94l-6.25 6.252c12.97.206 25.17-2.738 33.954-6.578m41.55 116.034-92.482-92.482-6.934 6.932 92.482 92.484zm-30.66 156.532-9.804-9.806v19.18h-50.444v-144.62h50.444v19.178l9.804-9.804v-19.178h-70.052v164.228h70.052zm180.636-179.88 5.21 5.208c4.23-.96 8.368-2.294 12.334-4.026 7.554-3.3 15.856-4.906 24.146-4.836l5.834-5.832c-2.094-.198-4.196-.31-6.3-.31-8.976 0-17.952 1.788-26.134 5.362-4.81 2.1-9.894 3.57-15.09 4.434m67.342-67.018c-16.482-7.088-36.016-7.086-52.252.008-8.062 3.522-16.896 5.298-25.742 5.35.142 1.568.226 3.152.226 4.756 0 .454-.02.906-.032 1.358 9.624-.076 19.23-2.018 28.002-5.85 14.71-6.426 32.42-6.426 47.378.008 9.202 3.958 18.628 6.044 28.222 6.28l6.252-6.25c-10.952.688-21.666-1.194-32.054-5.66m-165.758-10.302c-3.504 6.004-5.524 12.978-5.524 20.414 0 10.042 3.67 19.236 9.728 26.334-2.196-20.364 7.51-36.262 10.528-40.638-4.148-2.406-9.048-4.588-14.732-6.11m3.69-5.318c19.18 5.774 29.66 18.1 32.914 22.518 2.714-.334 8.604-1.374 15.602-4.496-2.058-4.294-12.28-23.286-34.148-29.154-5.592 2.596-10.5 6.42-14.368 11.132m24.028-14.21c18.756 8.276 27.68 24.648 29.96 29.452 4.16-2.39 8.5-5.542 12.658-9.704-7.018-12.196-20.176-20.432-35.23-20.432-2.524 0-4.992.242-7.388.684m45.39 25.594c-14.592 13.73-30.514 16.646-35.968 17.252-1.068 2.518-3.112 8.14-3.906 15.762 4.748.364 26.31 1.008 42.326-15 .108-1.208.174-2.43.174-3.666 0-5.05-.934-9.884-2.626-14.348m.286 27.92c-16.544 12.106-35.188 11.65-40.49 11.224-.01 4.802.552 10.142 2.08 15.83.04 0 .08.002.122.002 17.644 0 32.69-11.31 38.288-27.056m-41.822-13.26c-1.646-2.184-5.492-6.764-11.696-11.264-2.686 3.926-14.018 22.264-8.178 44.128 4.92 3.484 10.642 5.902 16.834 6.912-4.596-19.502.84-34.748 3.04-39.776m-43.224-.312c0-25.782 20.976-46.754 46.758-46.754 25.78 0 46.754 20.972 46.754 46.754s-20.974 46.756-46.754 46.756c-25.782 0-46.758-20.974-46.758-46.756m127.612-35.78c14.826-6.476 32.532-6.478 47.394.016 10.94 4.63 22.146 6.668 33.53 6.168l-6.116-6.114c-8.476-.34-16.824-2.226-24.994-5.684-16.366-7.148-35.904-7.15-52.268 0-12.9 5.636-27.77 6.808-41.506 3.558 2.304 2.248 4.4 4.702 6.266 7.336 12.754 1.588 25.968-.156 37.694-5.28m-161.714 419.258c-14.826 6.478-32.532 6.48-47.394-.014-10.938-4.63-22.146-6.668-33.53-6.168l6.116 6.114c8.476.34 16.824 2.226 24.994 5.684 16.366 7.148 35.904 7.15 52.268 0 12.9-5.636 27.77-6.808 41.506-3.558-2.304-2.248-4.4-4.702-6.266-7.336-12.754-1.588-25.968.156-37.694 5.278m167.518-116.032 92.484 92.482 6.934-6.932-92.484-92.484zm106.838-131.622v9.804h17.302v56.378h-17.302v9.804h27.106v-75.986zm-65.286 216.366c-14.826 6.48-32.532 6.478-47.362 0-8.772-3.832-18.378-5.774-28-5.85.012.452.03.904.03 1.358 0 1.604-.084 3.188-.224 4.756 8.846.05 17.68 1.83 25.742 5.352 8.182 3.574 17.158 5.36 26.134 5.36s17.952-1.786 26.134-5.36c8.184-3.576 19.566-6.304 31.618-6.072l-5.994-5.994c-10.738.596-20.636 3.198-28.078 6.45m-10.894-241.28 9.804 9.806v-19.176h50.446v144.62h-50.446v-19.176l-9.804 9.804v19.176h70.054v-164.228h-70.054zm13.21-83.182 4.75-4.75c-1.548-.546-3.09-1.142-4.624-1.802-16.482-7.086-36.016-7.086-52.252.006-10.124 4.424-21.462 6.102-32.512 5.054-1.142 1.986-2.406 3.892-3.788 5.708 13.08 1.824 26.702.12 38.754-5.146 14.71-6.426 32.42-6.424 47.378.008.762.328 1.528.62 2.294.922m-261.184 330.084c16.482 7.086 36.016 7.086 52.252-.006 8.062-3.522 16.896-5.3 25.74-5.352-.14-1.568-.224-3.152-.224-4.756 0-.454.02-.906.032-1.358-9.624.076-19.23 2.018-28.002 5.85-14.71 6.426-32.42 6.424-47.378-.008-9.202-3.956-18.628-6.044-28.222-6.28l-6.25 6.25c10.948-.688 21.664 1.194 32.052 5.66m165.758 10.3c3.504-6.002 5.524-12.974 5.524-20.414 0-10.04-3.67-19.234-9.728-26.332 2.196 20.364-7.51 36.262-10.528 40.636 4.15 2.408 9.05 4.59 14.732 6.11m-3.69 5.32c-19.18-5.774-29.66-18.1-32.912-22.518-2.716.334-8.606 1.374-15.604 4.498 2.058 4.292 12.278 23.284 34.148 29.152 5.592-2.596 10.5-6.42 14.368-11.132m-24.028 14.21c-18.756-8.276-27.68-24.648-29.96-29.452-4.16 2.39-8.5 5.542-12.658 9.702 7.018 12.198 20.178 20.434 35.23 20.434 2.524 0 4.99-.242 7.388-.684m-45.39-25.594c14.592-13.73 30.514-16.646 35.968-17.254 1.068-2.516 3.11-8.138 3.906-15.76-4.748-.364-26.31-1.008-42.326 15-.108 1.208-.172 2.428-.172 3.664 0 5.05.932 9.886 2.624 14.35m-.286-27.92c16.546-12.108 35.188-11.65 40.488-11.224.012-4.8-.548-10.142-2.078-15.83-.04 0-.08-.002-.122-.002-17.644 0-32.69 11.31-38.288 27.056m41.822 13.26c1.644 2.184 5.492 6.764 11.696 11.264 2.688-3.926 14.018-22.264 8.178-44.128-4.92-3.484-10.642-5.902-16.834-6.914 4.596 19.504-.84 34.75-3.04 39.778m43.224.31c0 25.782-20.976 46.756-46.758 46.756s-46.754-20.974-46.754-46.756c0-25.78 20.972-46.754 46.754-46.754s46.758 20.974 46.758 46.754m81.458 35.78c-14.826 6.48-32.532 6.48-47.362 0-11.726-5.122-24.94-6.866-37.694-5.278-1.864 2.634-3.962 5.088-6.264 7.336 13.736-3.25 28.604-2.078 41.506 3.558 8.182 3.574 17.158 5.36 26.134 5.36s17.952-1.786 26.134-5.36c6.724-2.938 15.608-5.314 25.25-5.94l6.25-6.252c-12.97-.204-25.17 2.74-33.954 6.576m-221.81-122.966-92.484 92.482 6.934 6.934 92.484-92.482zm87.124-46.61-29.52-29.518c-.654 4.508-.68 7.578-.68 7.632v.352l25.868 25.868c1.068-1.776 2.556-3.266 4.332-4.334m49.272-21.886c6.822 0 12.352-5.908 12.352-16.156v-18.612c0-10.2-5.53-16.592-12.352-16.592h-4.234c-4.056-13.844-11.402-26.436-24.472-31.67 5.796 8.884 11.856 22.614 13.91 42.648 14.794 15.088 14.796 40.382 14.796 40.382m-81.366-51.36h-4.236c-6.82 0-12.35 6.392-12.35 16.592v18.612c0 10.248 5.53 16.156 12.35 16.156 0 0 .002-25.294 14.796-40.38 2.056-20.036 8.114-33.766 13.912-42.65-13.072 5.234-20.416 17.826-24.472 31.67m-80.594 11.87h-6.128v14.218h6.128zm55.848 138.268-5.21-5.208c-4.23.96-8.368 2.294-12.334 4.026-7.554 3.3-15.854 4.906-24.146 4.836l-5.832 5.832c2.092.198 4.194.31 6.298.31 8.976 0 17.952-1.788 26.134-5.362 4.808-2.1 9.894-3.57 15.09-4.434m63.312-184.38c-1.62 0-3.172.096-4.674.26-5.558 6.676-13.208 19.132-16.422 39.45 5.514-3.36 12.426-5.468 21.096-5.468s15.582 2.108 21.094 5.468c-3.214-20.318-10.862-32.774-16.422-39.45-1.5-.164-3.054-.26-4.672-.26m125.286 46.11h-6.128v14.216h6.128zm-206.136-94.436c3.964 1.732 8.102 3.066 12.334 4.026l5.208-5.208c-5.196-.864-10.28-2.334-15.09-4.434-10.098-4.41-21.4-6.08-32.422-5.044l5.82 5.82c8.288-.066 16.592 1.538 24.15 4.84m52.418 245.056-129.294-129.294 129.294-129.294c-2.784-1.784-5.392-3.818-7.788-6.076l-115.248 115.246-20.124 20.124 135.372 135.37c2.396-2.258 5.004-4.292 7.788-6.076m-13.666-271.2c-1.38-1.816-2.646-3.724-3.786-5.708-11.052 1.048-22.39-.63-32.514-5.054-8.182-3.572-17.158-5.36-26.134-5.36s-17.952 1.788-26.134 5.36c-1.438.63-2.986 1.228-4.608 1.792l4.768 4.768c.786-.308 1.556-.62 2.294-.944 14.826-6.48 32.532-6.478 47.362 0 12.05 5.266 25.674 6.968 38.752 5.146m-83.19 163.232h6.128v-14.216h-6.128zm218.884-107.988 92.484-92.482-6.934-6.934-92.482 92.484zm-224.124 232.784-4.75 4.75c1.548.546 3.09 1.142 4.624 1.802 16.482 7.088 36.016 7.084 52.252-.008 10.124-4.422 21.462-6.1 32.512-5.052 1.142-1.986 2.406-3.892 3.788-5.708-13.08-1.824-26.702-.12-38.754 5.146-14.71 6.426-32.42 6.424-47.378-.008-.762-.328-1.528-.622-2.294-.922m128.678-89.08c1.21.36 2.49.36 3.7 0l14.368 14.366 4.332-4.332-14.366-14.368c.656-2.208.144-4.69-1.6-6.434-2.532-2.532-6.636-2.532-9.168 0-1.744 1.744-2.258 4.226-1.6 6.434l-14.366 14.368 4.332 4.332zm121.008-35.718h6.128v-14.218h-6.128zm-38.306 94.438c-3.964-1.732-8.102-3.066-12.334-4.026l-5.208 5.208c5.196.864 10.28 2.334 15.09 4.434 10.098 4.41 21.4 6.08 32.422 5.042l-5.82-5.818c-8.288.066-16.592-1.538-24.15-4.84m-44.18-97.596c0-.06-.018-3.124-.672-7.64l-29.53 29.526c1.776 1.07 3.266 2.558 4.334 4.334l25.868-25.868zm5.428 123.742c1.38 1.814 2.646 3.72 3.786 5.706 11.052-1.048 22.39.63 32.514 5.052 8.182 3.576 17.158 5.362 26.134 5.362s17.952-1.786 26.134-5.362c1.438-.628 2.986-1.226 4.608-1.79l-4.768-4.768c-.784.308-1.556.62-2.294.944-14.826 6.478-32.532 6.478-47.362 0-12.05-5.266-25.674-6.97-38.752-5.144m129.492-141.908-135.372 135.372c-2.398-2.26-5.004-4.294-7.79-6.078l129.294-129.294-129.294-129.294c2.786-1.784 5.394-3.818 7.79-6.076z"/></svg>