<svg enable-background="new 0 0 424.356 424.354" height="316.227766" viewBox="0 0 424.356 424.354" width="316.227766" xmlns="http://www.w3.org/2000/svg"><path d="m424.342 338.852-85.488 85.49-13.338-13.336 85.49-85.488zm-17.532-17.532-85.488 85.488-13.338-13.336 85.488-85.488zm-17.534-17.532-85.488 85.488-13.336-13.336 85.488-85.488zm-389.264-218.288 85.488-85.488 13.338 13.334-85.49 85.49zm17.532 17.532 85.49-85.488 13.336 13.336-85.488 85.488zm17.534 17.532 85.488-85.488 13.338 13.336-85.49 85.488zm380.94 291.286-4.166 4.168-23.988-23.988 4.166-4.168zm-13.424-34.55-4.168-4.168-25.292 25.294 4.166 4.166 6.396-6.396 28.156 28.156 12.502-12.502-28.156-28.156zm-394.258-364.798 4.168-4.168 23.988 23.988-4.168 4.168zm13.426 34.55 4.166 4.168 25.292-25.292-4.166-4.168-6.396 6.396-28.154-28.156-12.504 12.502 28.156 28.156zm389.246 51.786-85.488-85.488 13.336-13.338 85.488 85.49zm-17.532 17.532-85.49-85.488 13.336-13.336 85.49 85.488zm-17.534 17.534-85.488-85.49 13.336-13.336 85.488 85.488zm-155.428 74.106-4.168-4.166 106.464-106.466 4.168 4.168zm102.296 118.966-225.432-225.432 4.168-4.168 225.43 225.432zm-221.264 0-4.166-4.166 106.464-106.464 4.168 4.166zm235.994-214.868 4.168-4.166-25.292-25.294h-.002l-4.166 4.168 6.396 6.394-106.466 106.466-106.466-106.466 6.396-6.396-4.166-4.166h-.002l-25.292 25.292 4.166 4.168.002-.002 6.394-6.394 106.466 106.466-106.464 106.464-6.394-6.396-4.168 4.168 25.292 25.294 4.168-4.168-6.396-6.396 106.464-106.464 106.464 106.462-6.396 6.396 4.168 4.168 25.292-25.294-4.166-4.166-6.396 6.394-106.462-106.462 106.464-106.464zm-324.19 213.41 85.488 85.488-13.336 13.338-85.488-85.49zm17.532-17.534 85.488 85.49-13.334 13.336-85.49-85.488zm17.534-17.532 85.488 85.488-13.336 13.338-85.488-85.49zm339.45-258.128 23.988-23.988 4.166 4.168-23.988 23.988zm14.728 14.73-6.394-6.396 28.156-28.154-12.502-12.502-28.156 28.154-6.396-6.394-4.166 4.166 25.292 25.294zm-390.09 368.966-4.166-4.168 23.988-23.988 4.166 4.168zm13.426-42.886-4.168 4.168 6.396 6.394-28.156 28.156 12.502 12.502 28.156-28.156 6.396 6.396 4.166-4.168z"/></svg>