<svg enable-background="new 0 0 500 500" height="316.227766" viewBox="0 0 500 500" width="316.227766" xmlns="http://www.w3.org/2000/svg"><path d="m257.443 264.101-22.232-22.232c-3.27 6.22-2.296 14.084 2.928 19.306 5.222 5.224 13.086 6.198 19.304 2.926m-15.298-29.164 22.232 22.232c3.27-6.218 2.296-14.084-2.926-19.306-5.224-5.222-13.088-6.196-19.306-2.926m26.694 26.694 160.906 160.906-6.932 6.934-160.906-160.906c-8.746 5.578-20.474 4.572-28.102-3.056s-8.636-19.358-3.056-28.102l-160.906-160.906 6.932-6.934 160.906 160.908c8.746-5.58 20.474-4.572 28.102 3.054 7.628 7.628 8.636 19.358 3.056 28.102m-73.534 96.334c-.496.216-1.022.448-1.592.704-1.322.59-3.042 2.122-4.952 4.464l-.024.042c45.728 24.588 103.154 19.596 144.13-14.976l-17.41-17.41c-29.874 24.196-69.978 29.462-104.314 15.812-6.31 6.694-9.46 8.56-15.838 11.364m-44.19-191.518c-34.574 40.974-39.564 98.402-14.976 144.132l.042-.024c2.342-1.91 3.876-3.632 4.466-4.952.254-.57.486-1.098.704-1.594 2.802-6.376 4.67-9.528 11.362-15.836-13.652-34.338-8.386-74.442 15.81-104.316zm98.678-123.668 72.382 72.38.024-.058 8.356-5.426-80.762-80.762-102.506 102.508 6.932 6.932zm0 413.48-72.38-72.38-.024.058-8.356 5.428 80.76 80.76 102.5-102.498-6.932-6.934zm-82.234-80.552c3.966-9.39 11.844-24.064 21.15-28.226 7.298-3.266 8.15-2.986 18.624-14.946.72-.824 1.434-1.652 2.142-2.478-7.722-3.872-14.802-8.82-21.134-14.742l-16.16 16.158-4.332-4.332 16.158-16.158c-5.924-6.338-10.876-13.42-14.746-21.146-.828.708-1.656 1.424-2.48 2.146-11.962 10.474-11.682 11.326-14.946 18.624-4.162 9.304-18.838 17.182-28.226 21.148l-32.36 49.826 4.118 4.118 9.792-9.79c2.518-2.518 5.822-3.778 9.124-3.778s6.604 1.258 9.122 3.778c5.04 5.04 5.04 13.208 0 18.248l-9.79 9.79 4.118 4.12zm9.482-92.334c3.536 7.588 8.196 14.528 13.9 20.676l8.356-8.356c-4.896-5.172-9.09-11.428-12.802-19.564-1.376.904-5.002 3.65-9.454 7.244m26.588 16.652-8.356 8.358c6.144 5.698 13.082 10.358 20.668 13.894 3.594-4.454 6.342-8.082 7.246-9.456-8.132-3.71-14.386-7.902-19.558-12.796m-31.154 79.798-55.566 36.086-11.96-11.96 14.124-14.126c1.28-1.28 1.984-2.98 1.984-4.79s-.704-3.51-1.984-4.79-2.982-1.984-4.79-1.984c-1.81 0-3.512.704-4.792 1.984l-14.124 14.124-11.96-11.962 36.086-55.564 1.732-.732c12.704-5.364 22.524-12.432 25.016-18.004.26-.582.498-1.124.72-1.63 2.99-6.806 4.248-9.002 15.782-19.102 8.286-7.256 17.606-14.538 20.384-16.364l5.974-3.93 2.968 6.506c3.654 8.006 7.782 14.124 13.026 19.29l1.378 1.378c5.132 5.212 11.252 9.34 19.258 12.992l6.506 2.968-3.93 5.976c-1.828 2.778-9.11 12.098-16.364 20.382-10.1 11.534-12.296 12.792-19.102 15.782-.508.224-1.048.46-1.632.722-5.57 2.492-12.638 12.312-18.004 25.016zm-143.288-130.304 80.764 80.764 5.426-8.356.06-.026-72.382-72.382 95.566-95.566-6.934-6.934zm441.214 0-80.764-80.762-5.426 8.354-.06.026 72.384 72.382-95.576 95.574 6.934 6.934zm-166.118-108.444c.496-.218 1.024-.45 1.592-.706 1.32-.59 3.042-2.122 4.952-4.464l.024-.042c-45.732-24.59-103.164-19.596-144.138 14.984l17.41 17.41c29.874-24.204 69.982-29.472 104.322-15.82 6.31-6.692 9.46-8.56 15.838-11.362m27.744-17.744c-3.964 9.39-11.842 24.066-21.148 28.226-7.298 3.266-8.15 2.986-18.624 14.946-.72.824-1.434 1.652-2.142 2.48 7.722 3.868 14.802 8.818 21.134 14.74l16.158-16.158 4.334 4.332-16.158 16.16c5.924 6.334 10.876 13.418 14.746 21.144.828-.708 1.656-1.424 2.48-2.146 11.962-10.472 11.682-11.326 14.946-18.624 4.162-9.304 18.836-17.182 28.226-21.148l32.36-49.826-4.118-4.118-9.792 9.79c-2.518 2.52-5.822 3.78-9.124 3.78s-6.602-1.26-9.122-3.78c-5.04-5.038-5.04-13.208 0-18.248l9.79-9.79-4.12-4.118zm-9.48 92.336c-3.536-7.59-8.198-14.53-13.9-20.678l-8.356 8.356c4.896 5.172 9.09 11.43 12.802 19.564 1.376-.904 5.002-3.65 9.454-7.242m-26.588-16.654 8.356-8.356c-6.146-5.7-13.082-10.36-20.668-13.894-3.594 4.452-6.342 8.08-7.246 9.454 8.132 3.712 14.386 7.902 19.558 12.796m31.154-79.796 55.566-36.086 11.96 11.96-14.124 14.124c-1.28 1.28-1.984 2.98-1.984 4.79s.704 3.512 1.984 4.79c1.28 1.28 2.982 1.986 4.79 1.986 1.81 0 3.512-.706 4.792-1.986l14.124-14.122 11.96 11.96-36.086 55.564-1.732.732c-12.704 5.366-22.524 12.432-25.016 18.006-.26.582-.498 1.122-.72 1.628-2.99 6.806-4.248 9.004-15.782 19.102-8.286 7.256-17.606 14.538-20.384 16.364l-5.974 3.93-2.968-6.506c-3.654-8.006-7.782-14.124-13.026-19.288l-1.378-1.38c-5.134-5.212-11.252-9.34-19.258-12.992l-6.506-2.968 3.93-5.974c1.828-2.778 9.11-12.1 16.364-20.384 10.1-11.534 12.296-12.792 19.102-15.782.508-.224 1.048-.46 1.63-.722 5.574-2.492 12.64-12.31 18.006-25.016zm3.944 195.974c24.204-29.876 29.47-69.984 15.818-104.324 6.692-6.31 8.56-9.46 11.362-15.838.218-.496.45-1.024.704-1.592.59-1.322 2.122-3.044 4.466-4.954l.042-.024c24.59 45.732 19.596 103.166-14.982 144.142z"/></svg>