<svg enable-background="new 0 0 441.213 441.214" height="316.227766" viewBox="0 0 441.213 441.214" width="316.227766" xmlns="http://www.w3.org/2000/svg"><path d="m225.511 370.348h22.686c.944-16.292 6.59-31.688 16.278-44.626-10.534-9.33-24.062-15.344-38.964-16.436zm-42.33 0c-.896-13.618-5.526-26.506-13.386-37.49-8.614 10.308-14.134 23.276-15.176 37.49zm0 9.804h-28.562c1.042 14.214 6.562 27.182 15.176 37.488 7.86-10.982 12.49-23.87 13.386-37.488m9.834-9.804h22.686v-61.062c-14.902 1.094-28.43 7.108-38.962 16.44 9.686 12.936 15.33 28.332 16.276 44.622m65.014 9.804c.898 13.62 5.528 26.51 13.386 37.494 8.618-10.308 14.14-23.278 15.184-37.494zm0-9.804h28.57c-1.044-14.218-6.566-27.186-15.184-37.494-7.858 10.984-12.488 23.874-13.386 37.494m-81.292 54.428c10.534 9.33 24.062 15.344 38.964 16.438v-61.062h-22.686c-.946 16.29-6.59 31.686-16.278 44.624m48.774-44.624v61.062c14.902-1.092 28.43-7.106 38.964-16.436-9.688-12.938-15.334-28.334-16.278-44.626zm-9.808-309.286h-22.688c-.944 16.292-6.588 31.688-16.276 44.626 10.534 9.33 24.062 15.346 38.964 16.436zm42.328 0c.898 13.618 5.528 26.508 13.386 37.49 8.614-10.308 14.136-23.274 15.178-37.49zm0-9.804h28.564c-1.042-14.214-6.564-27.182-15.178-37.488-7.858 10.982-12.488 23.87-13.386 37.488m-9.832 9.804h-22.688v61.062c14.904-1.094 28.432-7.108 38.964-16.44-9.688-12.936-15.332-28.332-16.276-44.622m-65.016-9.804c-.896-13.62-5.526-26.508-13.388-37.492-8.614 10.306-14.136 23.276-15.18 37.492zm0 9.804h-28.568c1.044 14.218 6.566 27.186 15.182 37.494 7.86-10.984 12.49-23.874 13.386-37.494m81.292-54.426c-10.532-9.33-24.06-15.346-38.964-16.44v61.062h22.688c.944-16.29 6.588-31.686 16.276-44.622m-71.46 44.622c-.944-16.29-6.588-31.688-16.276-44.626 10.534-9.33 24.062-15.344 38.964-16.436v61.062zm53.496 154.474-19.066-19.06 25.984-25.732h32.2l-5.388 23.194h-11.572zm-51.766 9.996 19.062 19.166-25.812 25.664h-30.884l5.388-23.09h10.192zm-51.45 21.74h11.822l-5.388 23.09h-32.426l-12.016-14.592 5.442-23.478 15.452-12.402-10.04-12.078 5.478-22.526 18.88-14.542h24.64l-5.452 23.474h-4.05l-3.294 13.626h15.498l-5.68 24.604h-15.342zm123.888-.084h6.982l-5.448 23.174h-19.33l-75.122-76.338h-6.954l5.254-23.28h19.442zm65.062-39.574-15.358 12.37 10.032 12.068-5.666 23.86-19.022 14.45h-26.06l5.452-23.174h5.556l3.536-15.244h-15.494l5.688-24.588h15.34l3.26-13.418h-11.814l5.386-23.194h32.386l12.078 14.494zm-174.456 68.874-.048.05c-33.804 33.78-88.79 33.774-122.586-.02-33.8-33.804-33.802-88.81.002-122.614l55.88-55.932 26.778 26.78-65.786 65.786 50.404 50.406 1.634-7.038-43.37-43.368 61.452-61.452 35.532 35.532h13.87l-124.034-124.036-6.936 6.936 43.52 43.52-55.88 55.932c-37.628 37.626-37.628 98.856-.002 136.484 26.892 26.89 65.832 34.548 99.602 23.004l-87.24 87.238 6.936 6.938 124.144-124.146zm255.206-118.73c-26.892-26.89-65.834-34.548-99.604-23l87.24-87.24-6.934-6.936-124.036 124.036h13.876c33.81-33.718 88.748-33.694 122.524.078 33.796 33.804 33.796 88.812-.006 122.612l-55.878 55.934-26.78-26.78 65.788-65.786-49.19-49.19-1.662 7.008 42.184 42.182-61.454 61.452-35.638-35.64h-13.874l124.146 124.146 6.934-6.938-43.518-43.52 55.88-55.932c37.626-37.626 37.626-98.858.002-136.486"/></svg>