<svg enable-background="new 0 0 441.214 441.212" height="316.227766" viewBox="0 0 441.214 441.212" width="316.227766" xmlns="http://www.w3.org/2000/svg"><path d="m325.008 320.674-8.668-8.666c48.836-51.106 48.836-131.698 0-182.802l8.668-8.666c53.616 55.894 53.616 144.24 0 200.134m-204.468 4.332 8.666-8.666c51.104 48.834 131.696 48.834 182.802.002l8.666 8.664c-55.894 53.618-144.24 53.618-200.134 0m-4.334-204.466 8.666 8.666c-48.834 51.104-48.834 131.696 0 182.802l-8.666 8.666c-53.618-55.894-53.618-144.24 0-200.134m176.708 168.042c35.916-38.168 35.916-97.784 0-135.95l11.266-11.266c42.134 44.396 42.134 114.084 0 158.482zm-140.284 4.332c38.17 35.918 97.784 35.918 135.95 0l11.266 11.266c-44.394 42.132-114.084 42.132-158.482 0zm-4.33-140.282c-35.918 38.168-35.918 97.782 0 135.95l-11.268 11.266c-42.13-44.398-42.13-114.086 0-158.482zm4.33-4.334-11.266-11.266c44.398-42.13 114.088-42.13 158.482 0l-11.266 11.266c-38.166-35.916-97.78-35.916-135.95 0m116.886 116.884c23.02-25.22 23.02-63.932 0-89.152l11.266-11.266c29.226 31.456 29.226 80.228 0 111.686zm-93.486 4.334c25.22 23.02 63.934 23.02 89.152 0l11.266 11.266c-31.456 29.228-80.226 29.226-111.686 0zm-4.332-93.486c-23.022 25.22-23.022 63.932 0 89.152l-11.266 11.266c-29.226-31.456-29.226-80.228 0-111.684zm4.332-4.332-11.268-11.266c31.46-29.228 80.23-29.228 111.686 0l-11.266 11.266c-25.218-23.022-63.932-23.022-89.152 0m70.038 70.038c10.164-12.222 10.164-30.038 0-42.258l11.296-11.296c16.342 18.492 16.342 46.356 0 64.85zm-46.59 4.332c12.222 10.164 30.036 10.164 42.256 0l11.296 11.296c-18.492 16.342-46.356 16.342-64.848 0zm-4.332-46.59c-10.164 12.22-10.164 30.036 0 42.256l-11.296 11.296c-16.344-18.492-16.344-46.356 0-64.848zm46.588-4.334c-12.22-10.164-30.034-10.164-42.256.002l-11.296-11.296c18.492-16.344 46.356-16.344 64.848 0zm-9.79 36.652 14.09 9.956c-1.296 1.554-2.728 2.99-4.286 4.284l-9.954-14.092c-6.204 6.122-16.172 6.122-22.376-.002l-9.956 14.094c-1.556-1.296-2.99-2.73-4.286-4.284l14.094-9.958c-6.122-6.202-6.122-16.172 0-22.374l-14.096-9.96c1.296-1.554 2.728-2.99 4.284-4.284l9.96 14.096c6.202-6.124 16.172-6.124 22.376-.002l9.958-14.094c1.556 1.294 2.99 2.728 4.286 4.284l-14.094 9.958c6.12 6.204 6.12 16.174 0 22.378m88.73-115.59-8.666 8.666c-51.106-48.834-131.698-48.834-182.802 0l-8.666-8.666c55.894-53.618 144.24-53.618 200.134 0m11.266 211.402c57.444-59.726 57.444-154.276 0-214.002l22.244-22.244c22.664 21.598 53.326 34.874 87.03 34.874l-.002-9.804c-31 0-59.208-12.18-80.094-32.004l35.408-35.408h13.64l31.046-31.296h-17.724v-17.724l-31.296 31.046v13.642l-35.406 35.408c-19.824-20.886-32.006-49.094-32.006-80.096h-9.804c0 33.704 13.278 64.366 34.876 87.028l-22.246 22.246c-59.724-57.444-154.276-57.444-214 0l-22.244-22.246c21.598-22.662 34.874-53.324 34.874-87.028h-9.804c0 31.002-12.18 59.21-32.006 80.096l-35.406-35.408v-13.642l-31.294-31.046v17.724h-17.726l31.046 31.296h13.64l35.408 35.408c-20.884 19.824-49.092 32.004-80.092 32.004v9.804c33.704 0 64.362-13.276 87.026-34.874l22.246 22.244c-57.444 59.726-57.444 154.274 0 214.002l-22.246 22.244c-22.664-21.598-53.322-34.876-87.026-34.876v9.806c31 0 59.208 12.18 80.092 32.004l-35.408 35.408h-13.64l-31.044 31.294h17.724v17.724l31.294-31.044v-13.644l35.406-35.406c19.826 20.886 32.006 49.094 32.006 80.094h9.804c0-33.704-13.276-64.364-34.874-87.028l22.244-22.244c59.724 57.444 154.276 57.444 214 0l22.246 22.244c-21.598 22.664-34.874 53.324-34.874 87.028h9.804c0-31 12.182-59.208 32.004-80.094l35.406 35.408v13.642l31.296 31.044v-17.724h17.724l-31.046-31.294h-13.64l-35.406-35.408c20.884-19.824 49.094-32.004 80.094-32.004v-9.806c-33.704 0-64.366 13.278-87.028 34.876z"/></svg>