<svg enable-background="new 0 0 441.21 441.214" height="316.227766" viewBox="0 0 441.21 441.214" width="316.227766" xmlns="http://www.w3.org/2000/svg"><path d="m200.696 204.314c0 19.984 16.198 36.184 36.182 36.184 19.986 0 36.186-16.2 36.186-36.184 0-19.986-16.2-36.186-36.186-36.186-19.984 0-36.182 16.2-36.182 36.186m-9.782-.002c0-25.392 20.586-45.976 45.976-45.976 25.392 0 45.974 20.584 45.974 45.976 0 25.39-20.582 45.974-45.974 45.974-25.39 0-45.976-20.584-45.976-45.974m49.454 29.848c3.396-.394 6.622-1.35 9.578-2.782-2.514-20.984-19.154-37.614-40.14-40.116-1.43 2.954-2.382 6.176-2.776 9.568 17.802 1.33 32.004 15.53 33.338 33.33m-36.058 48.716c18.754 0 34.874-11.236 42.028-27.336-3.066.564-6.222.874-9.448.874-.7 0-1.396-.024-2.092-.052-6.43 10.054-17.682 16.724-30.5 16.724-19.984 0-36.184-16.2-36.184-36.184 0-12.818 6.67-24.072 16.726-30.5-.028-.694-.054-1.39-.054-2.09 0-3.222.31-6.372.872-9.434-16.094 7.156-27.322 23.272-27.322 42.022 0 25.39 20.582 45.976 45.974 45.976m217.318 137.862c0-9.32-2.548-14.35-3.592-14.35h-394.862c-1.044 0-3.594 5.03-3.594 14.35 0 9.318 2.55 14.348 3.594 14.348h394.862c1.044 0 3.592-5.03 3.592-14.348m-373.744-20.478h49.552l-24.776-24.774zm295.894 0h49.55l-24.776-24.774zm83.98 20.478c0 9.898-2.554 20.476-9.722 20.476h-394.862c-7.168 0-9.724-10.578-9.724-20.476 0-9.9 2.556-20.478 9.724-20.478h10.846l31.706-31.706-40.57-40.572 6.93-6.934 79.214 79.212h218.612l79.212-79.212 6.932 6.934-40.572 40.572 31.71 31.706h10.842c7.168 0 9.722 10.578 9.722 20.478m-256.658-143.694c-1.252-1.04-2.466-2.138-3.632-3.302-1.168-1.17-2.264-2.386-3.296-3.634l-55.334 55.334 6.932 6.934zm-141.266 64.284h-20.03v-28.578h-1.84v-184.286h1.84v-28.578h20.03l9.804-9.804h-39.638v38.382h1.838v184.286h-1.838v38.382h39.638zm65.148 4.902h251.246v-251.246h-251.246zm7.31-287.604h236.626l43.666 43.666v236.628l-43.666 43.668h-236.626l-43.668-43.668v-236.626zm338.918 69.838v-38.382h-39.636l9.804 9.804h20.028v28.578h1.84v184.286h-1.84v28.578h-20.028l-9.806 9.804h39.638v-38.382h-1.836v-184.286zm-421.628-107.988c0 9.32 2.548 14.35 3.592 14.35h394.862c1.044 0 3.594-5.03 3.594-14.35s-2.55-14.348-3.594-14.348h-394.862c-1.044 0-3.592 5.028-3.592 14.348m373.746 20.476h-49.55l24.774 24.776zm-295.892 0h-49.552l24.776 24.776zm-83.984-20.476c0-9.898 2.556-20.476 9.722-20.476h394.862c7.168 0 9.724 10.578 9.724 20.476 0 9.9-2.556 20.476-9.724 20.476h-10.842l-31.71 31.708 40.572 40.572-6.932 6.934-79.212-79.214h-218.612l-79.214 79.214-6.93-6.934 40.57-40.572-31.706-31.708h-10.846c-7.166 0-9.722-10.576-9.722-20.476m260.288 146.996c-1.166-1.166-2.378-2.264-3.63-3.302l55.332-55.332 6.93 6.934-55.33 55.33c-1.04-1.252-2.138-2.466-3.302-3.63"/></svg>