<svg enable-background="new 0 0 441.212 441.212" height="316.227766" viewBox="0 0 441.212 441.212" width="316.227766" xmlns="http://www.w3.org/2000/svg"><path d="m316.96 328.868c.57-2.618 1.148-5.258 1.684-7.92 3.192-15.862 6.496-32.26-4.268-52.094l-.158-.292c-2.22.824-5.05 1.684-8.39 2.286-9.092 1.638-22.566.1-35.962-6.748 0 0-.996 1.436-2.662 3.1-1.664 1.668-3.102 2.662-3.102 2.662 5.216 10.198 7.35 20.44 7.35 28.76 0 2.61-.208 5.032-.602 7.202-1.536 8.534-4.758 13.806-4.758 13.806l26.64 14.544c4.59 2.478 8.9 5.654 12.776 9.53 2.964 2.964 5.466 6.212 7.504 9.66.348-7.988 2.12-16.128 3.948-24.496m7.674-6.714c-.542 2.694-1.124 5.368-1.704 8.016-3.454 15.82-6.714 30.764.396 44.498 1.252 2.42 3.014 4.782 5.148 7.002 9.62 9.608 23.144 12.926 35.458 9.95l-.752-6.222c-8.79 2.334-18.402.812-26.116-4.582l.01-.01c3.542-1.118 5.754-3.944 7.278-7.57 1.52-3.626 2.354-8.05 3.14-12.36.626-3.432 2.226-6.488 4.526-8.862 2.372-2.3 5.43-3.902 8.862-4.526 4.31-.786 8.736-1.62 12.36-3.142s6.45-3.732 7.568-7.27c3.762 5.38 5.642 11.684 5.642 17.986 0 2.73-.354 5.458-1.058 8.114l6.224.752c.704-2.91 1.054-5.89 1.054-8.866 0-9.628-3.672-19.252-11.016-26.598-5.084-5.084-11.104-8.662-17.506-10.734-7.482-2.242-14.53-6.316-20.44-12.226-3.876-3.876-7.052-8.186-9.532-12.776l-12.266-22.472c9.164 19.898 5.758 36.838 2.724 51.898m-212.288-5.198c2.616.572 5.258 1.148 7.92 1.686 15.86 3.192 32.26 6.496 52.092-4.266l.292-.16c-.824-2.22-1.682-5.05-2.282-8.39-1.642-9.092-.102-22.566 6.746-35.964 0 0-1.436-.994-3.102-2.658-1.666-1.666-2.66-3.102-2.66-3.102-10.198 5.212-20.44 7.348-28.76 7.348-2.61 0-5.032-.21-7.204-.602-8.534-1.538-13.804-4.76-13.804-4.76l-14.544 26.642c-2.478 4.588-5.654 8.9-9.53 12.776-2.964 2.964-6.214 5.464-9.66 7.504 7.986.348 16.126 2.12 24.496 3.946m6.712 7.676c-2.694-.542-5.366-1.126-8.016-1.704-15.82-3.452-30.762-6.716-44.496.394-2.422 1.254-4.784 3.016-7.002 5.15-9.61 9.62-12.926 23.144-9.95 35.458l6.222-.752c-2.336-8.79-.814-18.402 4.582-26.118l.01.01c1.116 3.542 3.944 5.756 7.57 7.278 3.626 1.524 8.05 2.356 12.36 3.142 3.432.626 6.488 2.226 8.86 4.526 2.302 2.372 3.902 5.43 4.528 8.86.786 4.312 1.618 8.736 3.142 12.362 1.52 3.622 3.732 6.448 7.27 7.568-5.38 3.762-11.684 5.64-17.988 5.64-2.73 0-5.458-.352-8.112-1.056l-.752 6.224c2.91.702 5.89 1.054 8.866 1.054 9.628 0 19.252-3.67 26.596-11.016 5.084-5.084 8.664-11.104 10.736-17.506 2.24-7.482 6.316-14.53 12.224-20.44 3.876-3.876 8.19-7.054 12.778-9.532l22.47-12.266c-19.898 9.164-36.836 5.758-51.898 2.724m5.198-212.288c-.57 2.616-1.146 5.258-1.684 7.92-3.194 15.86-6.496 32.26 4.266 52.092l.16.292c2.218-.824 5.05-1.682 8.388-2.284 9.094-1.638 22.568-.102 35.964 6.748 0 0 .996-1.438 2.66-3.102 1.666-1.666 3.104-2.66 3.104-2.66-5.214-10.198-7.35-20.44-7.35-28.76 0-2.612.208-5.032.602-7.204 1.538-8.534 4.758-13.804 4.758-13.804l-26.64-14.544c-4.59-2.478-8.902-5.654-12.776-9.532-2.964-2.962-5.464-6.212-7.504-9.658-.348 7.986-2.12 16.126-3.948 24.496m-7.676 6.714c.542-2.696 1.128-5.368 1.706-8.016 3.454-15.822 6.714-30.764-.396-44.498-1.252-2.422-3.016-4.782-5.148-7.002-9.62-9.61-23.144-12.928-35.456-9.952l.75 6.224c8.79-2.336 18.402-.814 26.116 4.582l-.01.008c-3.542 1.118-5.754 3.946-7.276 7.572-1.524 3.626-2.358 8.048-3.142 12.36-.626 3.432-2.228 6.488-4.526 8.86-2.372 2.3-5.43 3.902-8.862 4.528-4.31.784-8.734 1.618-12.36 3.14-3.624 1.522-6.45 3.732-7.568 7.272-3.762-5.38-5.642-11.684-5.642-17.988 0-2.73.352-5.456 1.058-8.112l-6.222-.752c-.706 2.91-1.056 5.89-1.056 8.866-.002 9.626 3.672 19.252 11.016 26.598 5.086 5.084 11.104 8.662 17.506 10.734 7.48 2.24 14.53 6.314 20.44 12.226 3.876 3.876 7.054 8.186 9.53 12.774l12.268 22.472c-9.164-19.898-5.758-36.836-2.726-51.896m212.29 5.196c-2.618-.57-5.258-1.148-7.92-1.684-15.86-3.194-32.258-6.498-52.092 4.266l-.292.158c.822 2.222 1.68 5.052 2.282 8.39 1.642 9.094.102 22.568-6.746 35.964 0 0 1.436.996 3.1 2.66 1.668 1.666 2.662 3.102 2.662 3.102 10.198-5.212 20.44-7.35 28.76-7.35 2.61 0 5.032.21 7.202.602 8.536 1.54 13.806 4.762 13.806 4.762l14.544-26.644c2.478-4.588 5.654-8.898 9.53-12.774 2.964-2.964 6.212-5.464 9.66-7.506-7.988-.346-16.126-2.12-24.496-3.946m-6.712-7.674c2.694.542 5.366 1.124 8.014 1.702 15.822 3.454 30.764 6.716 44.498-.394 2.42-1.254 4.782-3.016 7-5.15 9.612-9.618 12.928-23.142 9.952-35.458l-6.222.754c2.336 8.788.812 18.4-4.582 26.116l-.01-.01c-1.116-3.544-3.944-5.754-7.57-7.278-3.626-1.522-8.05-2.354-12.36-3.14-3.432-.626-6.488-2.228-8.86-4.528-2.3-2.372-3.902-5.428-4.528-8.86-.786-4.31-1.618-8.734-3.14-12.36-1.522-3.624-3.734-6.45-7.272-7.568 5.38-3.762 11.684-5.64 17.988-5.64 2.728 0 5.458.352 8.112 1.056l.752-6.224c-2.91-.702-5.89-1.054-8.866-1.054-9.628 0-19.252 3.67-26.598 11.016-5.084 5.084-8.662 11.104-10.734 17.504-2.24 7.482-6.316 14.532-12.226 20.442-3.876 3.876-8.188 7.052-12.776 9.532l-22.47 12.266c19.898-9.166 36.834-5.76 51.898-2.724m-137.702 255.168 2.316 3.122c8.346 11.244 20.992 17.962 33.836 17.972 12.842-.01 25.488-6.728 33.832-17.972l2.318-3.122c5.688-7.664 13.936-12.916 23.226-14.796l24.758-5.004c-1.084-1.39-2.254-2.718-3.506-3.97-.424-.424-.874-.814-1.312-1.222l-21.136 4.272c-10.756 2.174-20.304 8.254-26.882 17.118l-2.318 3.122c-7.212 9.716-18.048 15.522-28.98 15.53-10.934-.008-21.772-5.814-28.984-15.528l-2.316-3.124c-6.578-8.864-16.126-14.944-26.882-17.118l-21.132-4.27c-.438.408-.888.798-1.31 1.22-1.254 1.252-2.424 2.582-3.508 3.972l24.752 5.002c9.292 1.88 17.54 7.132 23.228 14.796m-118.106-117.3 3.124 2.318c7.662 5.688 12.916 13.936 14.794 23.228l5.002 24.74c1.388-1.082 2.716-2.25 3.966-3.502.424-.424.816-.878 1.226-1.316l-4.268-21.12c-2.178-10.758-8.256-20.304-17.118-26.884l-3.124-2.318c-9.714-7.21-15.52-18.046-15.53-28.978.01-10.938 5.816-21.772 15.53-28.984l3.124-2.316c8.862-6.578 14.94-16.128 17.118-26.884l4.268-21.132c-.408-.44-.802-.894-1.228-1.32-1.25-1.25-2.574-2.418-3.962-3.5l-5.004 24.754c-1.878 9.292-7.132 17.542-14.794 23.228l-3.124 2.316c-11.242 8.346-17.96 20.994-17.972 33.838.012 12.842 6.73 25.488 17.972 33.832m190.408-184.968-2.318-3.124c-8.344-11.24-20.99-17.96-33.836-17.97-12.84.01-25.486 6.73-33.832 17.972l-2.316 3.122c-5.688 7.664-13.938 12.918-23.228 14.796l-24.742 5c1.08 1.386 2.246 2.71 3.494 3.958.43.428.884.822 1.326 1.234l21.12-4.27c10.756-2.174 20.304-8.252 26.882-17.116l2.316-3.122c7.212-9.716 18.05-15.522 28.98-15.53 10.936.008 21.772 5.814 28.984 15.53l2.318 3.122c6.578 8.864 16.126 14.942 26.882 17.116l21.118 4.27c.444-.412.9-.808 1.326-1.236 1.25-1.248 2.416-2.57 3.496-3.956l-24.744-5c-9.288-1.878-17.538-7.132-23.226-14.796m136.076 151.132c-.01-12.84-6.728-25.486-17.972-33.834l-3.12-2.316c-7.664-5.686-12.92-13.936-14.798-23.228l-5.002-24.754c-1.388 1.08-2.712 2.25-3.962 3.498-.426.428-.82.882-1.23 1.322l4.268 21.132c2.178 10.756 8.256 20.306 17.12 26.884l3.122 2.316c9.716 7.212 15.522 18.046 15.53 28.982-.008 10.936-5.814 21.77-15.53 28.98l-3.122 2.318c-8.864 6.58-14.942 16.126-17.12 26.884l-4.266 21.116c.41.44.802.894 1.23 1.32 1.25 1.25 2.574 2.418 3.962 3.5l5-24.738c1.878-9.292 7.134-17.54 14.798-23.228l3.12-2.318c11.244-8.344 17.962-20.992 17.972-33.832zm-68.646 165.318c-.696-.694-1.368-1.41-2.022-2.144l-26.572 5.368c-13.622 2.754-25.714 10.454-34.048 21.68l-2.976 4.016c-9.436 12.712-23.628 20.308-37.962 20.318-14.334-.01-28.528-7.606-37.962-20.318l-2.982-4.016c-8.334-11.226-20.422-18.926-34.046-21.68l-26.578-5.37c-.652.732-1.324 1.446-2.016 2.14-1.048 1.048-2.138 2.032-3.268 2.958l30.666 6.196c12.156 2.458 22.948 9.332 30.392 19.358l2.978 4.016c10.57 14.238 26.574 22.748 42.816 22.76 16.238-.012 32.244-8.522 42.812-22.76l2.98-4.016c7.442-10.026 18.234-16.9 30.39-19.358l30.676-6.2c-1.13-.924-2.228-1.9-3.278-2.948m-271.854-58.464c.926-1.132 1.9-2.23 2.95-3.28.694-.696 1.41-1.37 2.144-2.022l-5.368-26.57c-2.754-13.624-10.454-25.714-21.682-34.048l-4.014-2.98c-12.71-9.434-20.308-23.626-20.32-37.958.012-14.336 7.61-28.528 20.32-37.964l4.014-2.978c11.228-8.332 18.928-20.424 21.682-34.05l5.37-26.578c-.732-.65-1.448-1.324-2.142-2.018-1.044-1.044-2.03-2.138-2.956-3.266l-6.196 30.666c-2.458 12.158-9.334 22.952-19.36 30.392l-4.014 2.98c-14.236 10.568-22.746 26.572-22.762 42.816.016 16.24 8.526 32.244 22.762 42.814l4.014 2.978c10.026 7.44 16.902 18.234 19.36 30.392zm64.694-272.184c.696.694 1.37 1.41 2.02 2.144l26.57-5.37c13.624-2.752 25.716-10.452 34.048-21.678l2.98-4.014c9.434-12.714 23.628-20.31 37.958-20.322 14.338.012 28.53 7.608 37.964 20.32l2.978 4.016c8.334 11.226 20.426 18.926 34.048 21.678l26.58 5.372c.652-.732 1.324-1.448 2.018-2.142 1.046-1.046 2.136-2.03 3.266-2.954l-30.668-6.2c-12.156-2.456-22.948-9.33-30.388-19.356l-2.982-4.016c-10.568-14.238-26.574-22.748-42.816-22.76-16.238.012-32.242 8.522-42.814 22.762l-2.976 4.014c-7.444 10.026-18.236 16.9-30.392 19.356l-30.672 6.2c1.128.926 2.228 1.9 3.278 2.95m301.422 122.51-4.014-2.98c-10.026-7.44-16.9-18.234-19.358-30.392l-6.198-30.672c-.926 1.128-1.9 2.228-2.946 3.278-.696.696-1.412 1.37-2.148 2.022l5.368 26.568c2.756 13.626 10.454 25.718 21.68 34.05l4.014 2.978v.002c12.712 9.434 20.31 23.626 20.322 37.958-.012 14.336-7.61 28.528-20.322 37.962l-4.014 2.98c-11.226 8.334-18.924 20.424-21.68 34.048l-5.372 26.576c.734.652 1.452 1.326 2.144 2.02 1.046 1.046 2.032 2.136 2.956 3.264l6.196-30.662c2.458-12.158 9.332-22.952 19.358-30.392l4.014-2.978c14.24-10.57 22.75-26.574 22.762-42.818-.012-16.24-8.522-32.244-22.762-42.812m-172.078-17.234c-3.558-.718-6.718-2.732-8.9-5.67l-.992-1.338c-3.898-5.25-9.832-8.386-15.876-8.392-6.042.006-11.976 3.142-15.872 8.394l-.992 1.336c-2.182 2.938-5.34 4.952-8.9 5.67l-13.86 2.802c-.26.054-.516.126-.776.188.696 1.704 1.444 3.396 2.29 5.052l.284.564 13.258-2.682c5.028-1.014 9.484-3.852 12.556-7.992l.994-1.336c2.764-3.724 6.882-5.95 11.018-5.952 4.14.002 8.26 2.228 11.024 5.952l.992 1.336c3.072 4.14 7.532 6.978 12.556 7.992l13.256 2.68.288-.564c.868-1.696 1.63-3.38 2.308-5.044-.266-.066-.528-.138-.796-.194zm-77.234 97.892-2.678-13.25c-1.016-5.026-3.854-9.486-7.992-12.556l-1.336-.994c-3.724-2.764-5.952-6.884-5.952-11.018 0-4.14 2.228-8.26 5.952-11.024l1.336-.992c4.138-3.072 6.976-7.53 7.992-12.556l2.686-13.288-.548-.28c-1.7-.87-3.39-1.634-5.062-2.312-.066.274-.142.546-.2.824l-2.8 13.858c-.718 3.56-2.734 6.722-5.67 8.9l-1.336.992c-5.252 3.898-8.39 9.832-8.394 15.878.004 6.04 3.142 11.976 8.394 15.872l1.336.992c2.936 2.18 4.952 5.342 5.67 8.9l2.8 13.86c.052.258.124.508.186.764 1.714-.698 3.416-1.45 5.078-2.3zm111.538-12.054c.718-3.558 2.732-6.718 5.672-8.9l1.338-.992c5.248-3.896 8.386-9.832 8.392-15.878-.006-6.04-3.144-11.974-8.392-15.872l-1.338-.992c-2.94-2.178-4.954-5.34-5.672-8.9l-2.802-13.858c-.054-.274-.13-.538-.194-.806-1.71.694-3.406 1.446-5.064 2.294l-.55.276 2.686 13.29c1.016 5.026 3.854 9.484 7.992 12.558l1.338.992c3.724 2.764 5.948 6.884 5.952 11.018-.004 4.14-2.228 8.262-5.952 11.024l-1.338.994c-4.138 3.072-6.976 7.532-7.992 12.556l-2.676 13.242.542.276c1.702.872 3.394 1.636 5.068 2.316.064-.26.136-.514.188-.778zm-85.836 34.304c3.56.718 6.718 2.734 8.9 5.67l.992 1.338c3.896 5.25 9.83 8.388 15.876 8.394 6.04-.006 11.974-3.144 15.872-8.394l.992-1.338c2.182-2.936 5.342-4.952 8.9-5.67l13.86-2.802c.268-.054.53-.128.796-.194-.698-1.716-1.452-3.422-2.306-5.092l-.262-.52-13.284 2.684c-5.024 1.014-9.484 3.854-12.556 7.994l-.992 1.334c-2.764 3.726-6.884 5.95-11.02 5.954-4.14-.004-8.258-2.228-11.024-5.952l-.992-1.336c-3.072-4.14-7.528-6.98-12.556-7.994l-13.274-2.684-.268.522c-.874 1.71-1.64 3.408-2.324 5.088.272.066.538.142.81.196zm136.434-84.932-2.23-1.656c-4.034-2.994-7.094-7.014-8.902-11.596l-3.634-2.22c-.024-.014-1.382-.81-3.762-1.738l.14.688c1.596 7.89 6.052 14.894 12.556 19.718l2.228 1.656c6.72 4.986 10.736 12.464 10.74 20.002-.004 7.536-4.02 15.014-10.74 20.002l-2.228 1.654c-6.504 4.826-10.96 11.83-12.556 19.72l-.132.652c2.37-.926 3.718-1.714 3.728-1.72l3.676-2.244c1.81-4.564 4.864-8.57 8.886-11.556l2.23-1.654c8.246-6.12 13.174-15.412 13.182-24.852v-.004c-.008-9.442-4.936-18.732-13.182-24.852m-137.176 133.292 1.654 2.228c6.122 8.248 15.41 13.176 24.856 13.182 9.442-.006 18.732-4.934 24.854-13.182l1.652-2.228c2.988-4.024 6.998-7.08 11.564-8.892l2.24-3.662c.014-.024.804-1.374 1.73-3.738l-.666.134c-7.888 1.596-14.894 6.054-19.72 12.556l-1.654 2.23c-4.988 6.718-12.466 10.734-20 10.74-7.538-.006-15.016-4.022-20.004-10.74l-1.654-2.232c-4.826-6.5-11.83-10.958-19.72-12.554l-.66-.134c.922 2.36 1.708 3.702 1.714 3.712l2.256 3.692c4.564 1.81 8.574 4.864 11.558 8.888m-84.16-83.584 2.23 1.654c4.022 2.984 7.076 6.99 8.886 11.554l3.654 2.23c.024.016 1.378.808 3.75 1.736l-.132-.652c-1.596-7.892-6.054-14.894-12.554-19.72l-2.23-1.654c-6.72-4.988-10.736-12.466-10.74-20 .004-7.538 4.02-15.016 10.74-20.004l2.23-1.654c6.5-4.826 10.958-11.828 12.554-19.72l.138-.688c-2.372.928-3.72 1.718-3.73 1.722l-3.664 2.242c-1.81 4.578-4.868 8.598-8.902 11.59l-2.23 1.656c-8.244 6.122-13.172 15.412-13.18 24.856.008 9.44 4.936 18.73 13.18 24.852m148.764-124.392 2.23 3.648c.006.01.798 1.364 1.728 3.746l-.678-.138c-7.888-1.594-14.894-6.052-19.72-12.554l-1.654-2.23c-4.988-6.718-12.466-10.734-20.004-10.74-7.534.006-15.012 4.022-20 10.74l-1.654 2.23c-4.826 6.502-11.83 10.96-19.72 12.554l-.676.138c.932-2.386 1.73-3.748 1.744-3.772l2.216-3.624c4.576-1.808 8.594-4.868 11.584-8.898l1.654-2.23c6.122-8.246 15.41-13.174 24.852-13.182 9.446.008 18.736 4.936 24.856 13.182l1.656 2.23c2.992 4.03 7.01 7.09 11.586 8.9"/></svg>