<svg enable-background="new 0 0 441.212 441.214" height="316.227766" viewBox="0 0 441.212 441.214" width="316.227766" xmlns="http://www.w3.org/2000/svg"><path d="m227.54 220.608 26.75 26.738 65.788-65.76 9.148 9.132c14.066-13.472 36.474-13.308 50.314.528s14.004 36.23.526 50.292l9.118 9.126-65.788 65.76 26.78 26.768 55.88-55.91c33.802-33.788 33.802-88.774.004-122.564-33.804-33.786-88.808-33.782-122.61.006zm148.186 16.592c11.084-11.67 10.928-30.176-.52-41.622-11.452-11.444-29.964-11.6-41.64-.52zm-56.666 74.89 61.456-61.426-60.438-60.412-61.454 61.426zm-105.39-91.482-26.748-26.738-65.788 65.76-9.152-9.122c-14.064 13.47-36.468 13.298-50.31-.538s-14.014-36.23-.536-50.292l-9.11-9.126 65.788-65.76-26.778-26.768-55.882 55.908c-33.802 33.79-33.802 88.774 0 122.564 33.798 33.78 88.78 33.786 122.586.02zm-148.186-16.582c-11.084 11.672-10.926 30.164.524 41.61s29.95 11.604 41.628.524zm56.666-74.902-61.454 61.428 60.438 60.41 61.452-61.424zm290.842 165.09-55.882 55.91 43.522 43.502-6.936 6.934-173.09-173.02-55.908 55.886c-.01.01-.018.018-.028.028l-117.154 117.106-6.936-6.934 87.24-87.204c-33.77 11.542-72.71 3.886-99.602-22.992-37.624-37.614-37.624-98.82.002-136.43l55.88-55.908-43.52-43.502 6.936-6.934 173.09 173.018 173.09-173.018 6.936 6.934-87.242 87.204c33.77-11.544 72.71-3.888 99.606 22.99 37.622 37.614 37.622 98.82-.004 136.43m-187.482 76.134h22.684c.946-16.29 6.592-31.688 16.28-44.626-10.536-9.33-24.062-15.344-38.964-16.436zm-42.328 0c-.898-13.618-5.528-26.506-13.386-37.49-8.614 10.308-14.136 23.276-15.18 37.49zm0 9.804h-28.566c1.044 14.216 6.566 27.184 15.18 37.49 7.858-10.982 12.488-23.872 13.386-37.49m9.832-9.804h22.686v-61.062c-14.902 1.094-28.43 7.11-38.964 16.44 9.688 12.936 15.332 28.332 16.278 44.622m65.014 9.804c.898 13.62 5.528 26.51 13.388 37.494 8.616-10.308 14.138-23.276 15.182-37.494zm0-9.804h28.57c-1.044-14.216-6.566-27.186-15.184-37.494-7.858 10.984-12.488 23.874-13.386 37.494m-81.292 54.428c10.534 9.33 24.062 15.344 38.964 16.438v-61.062h-22.686c-.946 16.29-6.59 31.686-16.278 44.624m48.774-44.624v61.062c14.902-1.092 28.428-7.106 38.964-16.436-9.688-12.938-15.334-28.334-16.28-44.626zm-9.808-309.286h-22.686c-.946 16.292-6.59 31.69-16.28 44.626 10.536 9.33 24.064 15.346 38.966 16.436zm42.328 0c.898 13.618 5.528 26.508 13.386 37.49 8.614-10.306 14.136-23.274 15.178-37.49zm0-9.804h28.564c-1.042-14.214-6.564-27.182-15.178-37.488-7.858 10.982-12.488 23.87-13.386 37.488m-9.832 9.804h-22.686v61.062c14.902-1.094 28.428-7.108 38.962-16.438-9.688-12.936-15.332-28.332-16.276-44.624m-65.014-9.804c-.898-13.62-5.53-26.508-13.388-37.492-8.616 10.306-14.14 23.276-15.182 37.492zm0 9.804h-28.57c1.042 14.218 6.566 27.186 15.182 37.494 7.858-10.984 12.49-23.872 13.388-37.494m81.29-54.426c-10.534-9.33-24.06-15.346-38.962-16.44v61.062h22.686c.944-16.29 6.588-31.686 16.276-44.622m-71.458 44.622c-.946-16.29-6.59-31.688-16.28-44.626 10.536-9.33 24.064-15.342 38.966-16.436v61.062z"/></svg>