<svg enable-background="new 0 0 441.212 441.213" height="316.227766" viewBox="0 0 441.212 441.213" width="316.227766" xmlns="http://www.w3.org/2000/svg"><path d="m80.347 235.379c1.692 0 3.062-1.372 3.062-3.064s-1.37-3.064-3.062-3.064c-1.694 0-3.066 1.372-3.066 3.064s1.372 3.064 3.066 3.064"/><path d="m80.347 195c1.692 0 3.062-1.372 3.062-3.064s-1.37-3.064-3.062-3.064c-1.694 0-3.066 1.372-3.066 3.064s1.372 3.064 3.066 3.064"/><path d="m83.194 257.517c1.694 0 3.064-1.372 3.064-3.064s-1.37-3.064-3.064-3.064c-1.692 0-3.062 1.372-3.062 3.064s1.37 3.064 3.062 3.064"/><path d="m101.983 226.474c-1.694 0-3.064 1.372-3.064 3.064s1.37 3.064 3.064 3.064c1.692 0 3.064-1.372 3.064-3.064s-1.372-3.064-3.064-3.064"/><path d="m95.915 210.568c0 1.692 1.372 3.064 3.062 3.064 1.694 0 3.064-1.372 3.064-3.064s-1.37-3.064-3.064-3.064c-1.69 0-3.062 1.372-3.062 3.064"/><path d="m133.814 180.492c0-1.692-1.372-3.064-3.064-3.064s-3.064 1.372-3.064 3.064 1.372 3.064 3.064 3.064 3.064-1.372 3.064-3.064"/><path d="m119.101 212.2c0-1.692-1.372-3.064-3.064-3.064-1.694 0-3.064 1.372-3.064 3.064s1.37 3.064 3.064 3.064c1.692 0 3.064-1.372 3.064-3.064"/><path d="m100.128 191.617c-1.692 0-3.064 1.372-3.064 3.064s1.372 3.064 3.064 3.064c1.694 0 3.064-1.372 3.064-3.064s-1.37-3.064-3.064-3.064"/><path d="m92.728 163.987c0-1.692-1.374-3.064-3.066-3.064s-3.062 1.372-3.062 3.064 1.37 3.064 3.062 3.064 3.066-1.372 3.066-3.064"/><path d="m104.366 252.078c0 1.692 1.374 3.064 3.064 3.064 1.692 0 3.064-1.372 3.064-3.064s-1.372-3.064-3.064-3.064c-1.69 0-3.064 1.372-3.064 3.064"/><path d="m112.503 169.741c0-1.692-1.374-3.064-3.064-3.064-1.692 0-3.064 1.372-3.064 3.064s1.372 3.064 3.064 3.064c1.69 0 3.064-1.372 3.064-3.064"/><path d="m67.966 208.069c0 1.692 1.372 3.064 3.064 3.064s3.062-1.372 3.062-3.064-1.37-3.064-3.062-3.064-3.064 1.372-3.064 3.064"/><path d="m124.077 150.947c-1.692 0-3.062 1.372-3.062 3.064s1.37 3.064 3.062 3.064 3.064-1.372 3.064-3.064-1.372-3.064-3.064-3.064"/><path d="m136.518 57.486c15.308 29.966 45.27 40.86 49.096 42.142-3.816 9.008-8.624 16.24-13.226 21.846-21.446-9.182-36.51-30.492-36.51-55.26 0-2.964.222-5.876.64-8.728m18.302-35.002c5.648 14.046 16.63 31.446 37.982 45.318-.518 9.804-2.358 18.5-4.978 26.1l-.038-.01c-.4-.12-35.554-11.146-48.958-46.246 3.16-9.702 8.726-18.322 15.992-25.162m41.142-16.356c14.042 0 26.96 4.856 37.204 12.956-33.568-1.69-57.946 18.79-60.968 21.46-5.88-7.788-9.756-15.568-12.312-22.346 10.054-7.572 22.548-12.07 36.076-12.07m58.474 46.324c-14.99-2.136-35.564-1.334-58.27 10.23-8.232-5.35-14.842-11.29-20.114-17.362l.028-.026c.306-.286 27.408-25.204 64.488-19.288 6.668 7.39 11.516 16.442 13.868 26.446m1.61 13.762c0 25.3-15.726 46.982-37.91 55.824 18.284-28.234 12.74-59.616 11.938-63.57 9.704-1.2 18.368-.652 25.524.528.286 2.368.448 4.774.448 7.218m-60.084 60.084c-6.026 0-11.844-.902-17.336-2.56 9.35-11.914 18.952-30.12 20.294-55.582 8.748-4.454 17.196-7.208 25.09-8.738l.01.036c.096.408 8.128 36.37-15.572 65.532-4.03.854-8.206 1.312-12.486 1.312m0 6.128c36.568 0 66.212-29.644 66.212-66.212s-29.644-66.214-66.212-66.214-66.212 29.646-66.212 66.214 29.644 66.212 66.212 66.212"/><path d="m147.706 191.885c1.692 0 3.064-1.372 3.064-3.064s-1.372-3.064-3.064-3.064c-1.694 0-3.064 1.372-3.064 3.064s1.37 3.064 3.064 3.064"/><path d="m139.491 207.563c0 1.692 1.372 3.064 3.062 3.064 1.694 0 3.064-1.372 3.064-3.064s-1.37-3.064-3.064-3.064c-1.69 0-3.062 1.372-3.062 3.064"/><path d="m126.718 229.726c0 1.692 1.372 3.064 3.064 3.064s3.064-1.372 3.064-3.064-1.372-3.064-3.064-3.064-3.064 1.372-3.064 3.064"/><path d="m373.241 233.145c0-1.692-1.372-3.064-3.064-3.064s-3.062 1.372-3.062 3.064 1.37 3.064 3.062 3.064 3.064-1.372 3.064-3.064"/><path d="m301.716 233.651c0-1.692-1.37-3.064-3.064-3.064-1.69 0-3.062 1.372-3.062 3.064s1.372 3.064 3.062 3.064c1.694 0 3.064-1.372 3.064-3.064"/><path d="m61.499 241.412c0 1.692 1.374 3.064 3.064 3.064 1.692 0 3.064-1.372 3.064-3.064s-1.372-3.064-3.064-3.064c-1.69 0-3.064 1.372-3.064 3.064"/><path d="m293.501 249.329c-1.692 0-3.064 1.372-3.064 3.064s1.372 3.064 3.064 3.064 3.064-1.372 3.064-3.064-1.372-3.064-3.064-3.064"/><path d="m322.109 229.014c0 1.692 1.372 3.064 3.062 3.064 1.692 0 3.064-1.372 3.064-3.064s-1.372-3.064-3.064-3.064c-1.691 0-3.062 1.372-3.062 3.064"/><path d="m307.394 260.721c0 1.692 1.374 3.064 3.064 3.064 1.692 0 3.062-1.372 3.062-3.064s-1.37-3.064-3.062-3.064c-1.691 0-3.064 1.372-3.064 3.064"/><path d="m314.489 211.488c0-1.692-1.374-3.064-3.064-3.064-1.692 0-3.062 1.372-3.062 3.064s1.37 3.064 3.062 3.064c1.69 0 3.064-1.372 3.064-3.064"/><path d="m304.693 383.727c-15.31-29.964-45.27-40.86-49.094-42.142 3.812-9.008 8.62-16.24 13.222-21.846 21.448 9.182 36.514 30.494 36.514 55.26 0 2.966-.224 5.878-.642 8.728m-18.304 35.002c-5.648-14.046-16.628-31.446-37.98-45.32.518-9.802 2.358-18.498 4.98-26.098l.034.01c.402.122 35.556 11.146 48.96 46.246-3.162 9.702-8.726 18.322-15.994 25.162m-41.14 16.356c-14.042 0-26.962-4.856-37.204-12.956 33.568 1.69 57.946-18.79 60.968-21.46 5.88 7.79 9.756 15.568 12.312 22.346-10.054 7.572-22.548 12.07-36.076 12.07m-58.476-46.324c14.992 2.136 35.564 1.334 58.272-10.23 8.232 5.35 14.842 11.292 20.114 17.362l-.028.026c-.306.286-27.408 25.204-64.488 19.288-6.668-7.39-11.516-16.44-13.87-26.446m-1.61-13.762c0-25.3 15.726-46.982 37.912-55.826-18.284 28.236-12.74 59.618-11.938 63.572-9.704 1.2-18.368.652-25.524-.528-.284-2.368-.45-4.772-.45-7.218m60.086-60.084c6.026 0 11.844.902 17.336 2.56-9.352 11.914-18.954 30.12-20.294 55.582-8.748 4.454-17.198 7.208-25.09 8.738l-.01-.036c-.094-.408-8.13-36.37 15.572-65.53 4.028-.856 8.204-1.314 12.486-1.314m0-6.128c-36.568 0-66.212 29.644-66.212 66.212s29.644 66.214 66.212 66.214 66.212-29.646 66.212-66.214-29.644-66.212-66.212-66.212"/><path d="m394.509 224.133c1.692 0 3.064-1.372 3.064-3.064s-1.372-3.064-3.064-3.064c-1.694 0-3.064 1.372-3.064 3.064s1.37 3.064 3.064 3.064"/><path d="m388.81 236.898c-1.692 0-3.062 1.372-3.062 3.064s1.37 3.064 3.062 3.064 3.064-1.372 3.064-3.064-1.372-3.064-3.064-3.064"/><path d="m379.708 199.802c0-1.692-1.374-3.064-3.062-3.064-1.694 0-3.064 1.372-3.064 3.064s1.37 3.064 3.064 3.064c1.688 0 3.062-1.372 3.062-3.064"/><path d="m317.13 290.267c1.692 0 3.064-1.372 3.064-3.064s-1.372-3.064-3.064-3.064-3.064 1.372-3.064 3.064 1.372 3.064 3.064 3.064"/><path d="m345.294 230.646c0-1.692-1.374-3.064-3.066-3.064-1.69 0-3.062 1.372-3.062 3.064s1.372 3.064 3.062 3.064c1.692 0 3.066-1.372 3.066-3.064"/><path d="m360.861 205.835c-1.692 0-3.062 1.372-3.062 3.064s1.37 3.064 3.062 3.064c1.694 0 3.064-1.372 3.064-3.064s-1.371-3.064-3.064-3.064"/><path d="m358.011 183.697c-1.692 0-3.062 1.372-3.062 3.064s1.37 3.064 3.062 3.064c1.694 0 3.066-1.372 3.066-3.064s-1.372-3.064-3.066-3.064"/><path d="m46.698 217.081c-1.692 0-3.064 1.372-3.064 3.064s1.372 3.064 3.064 3.064 3.064-1.372 3.064-3.064-1.372-3.064-3.064-3.064"/><path d="m52.398 204.316c1.692 0 3.064-1.372 3.064-3.064s-1.372-3.064-3.064-3.064-3.064 1.372-3.064 3.064 1.372 3.064 3.064 3.064"/><path d="m360.861 246.214c-1.692 0-3.062 1.372-3.062 3.064s1.37 3.064 3.062 3.064c1.694 0 3.064-1.372 3.064-3.064s-1.371-3.064-3.064-3.064"/><path d="m339.224 214.739c1.692 0 3.064-1.372 3.064-3.064s-1.372-3.064-3.064-3.064c-1.694 0-3.064 1.372-3.064 3.064s1.37 3.064 3.064 3.064"/><path d="m348.482 277.227c0 1.692 1.372 3.064 3.064 3.064s3.062-1.372 3.062-3.064-1.37-3.064-3.062-3.064c-1.693 0-3.064 1.372-3.064 3.064"/><path d="m341.079 249.596c1.692 0 3.062-1.372 3.062-3.064s-1.37-3.064-3.062-3.064c-1.694 0-3.064 1.372-3.064 3.064s1.37 3.064 3.064 3.064"/><path d="m328.704 271.473c0 1.692 1.372 3.064 3.064 3.064s3.064-1.372 3.064-3.064-1.372-3.064-3.064-3.064-3.064 1.372-3.064 3.064"/><path d="m336.841 189.136c0-1.692-1.374-3.064-3.064-3.064-1.692 0-3.062 1.372-3.062 3.064s1.37 3.064 3.062 3.064c1.69 0 3.064-1.372 3.064-3.064"/><path d="m224.938 263.861-17.294-17.294 17.294-17.294 17.296 17.292zm-21.626 21.626-17.294-17.294 17.294-17.294 17.292 17.294zm-21.628 21.626-17.292-17.294 17.292-17.294 17.296 17.294zm-21.624 21.626-17.296-17.292 17.296-17.296 17.292 17.294zm-21.628 21.628-17.294-17.294 17.294-17.294 17.294 17.294zm-21.626 21.626-17.294-17.294 17.296-17.294 17.29 17.294zm-21.628 21.626-17.292-17.294 17.292-17.294 17.296 17.294zm-21.624 21.626-17.296-17.292 17.296-17.296 17.292 17.294zm-38.92-38.918 17.292-17.296 17.294 17.294-17.294 17.294zm-8.668-8.668 341.692-341.69 4.334 4.334-341.69 341.69zm367.652-315.73-17.294 17.292-17.294-17.292 17.294-17.294zm21.626 21.626-17.294 17.294-17.292-17.294 17.292-17.294zm-38.92 38.92-17.294-17.294 17.294-17.294 17.294 17.294zm-21.628 21.628-17.292-17.294 17.292-17.294 17.296 17.294zm-21.626 21.626-17.294-17.294 17.294-17.294 17.294 17.294zm-21.626 21.626-17.294-17.294 17.294-17.294 17.296 17.294zm-21.626 21.626-17.294-17.294 17.294-17.294 17.292 17.294zm-21.628 21.626-17.292-17.292 17.294-17.294 17.294 17.294zm-4.332-38.92-17.292 17.294-17.296-17.292 17.296-17.296zm21.628-21.626-17.294 17.294-17.294-17.294 17.294-17.294zm21.624-21.626-17.292 17.294-17.294-17.294 17.294-17.294zm21.63-21.626-17.296 17.294-17.294-17.294 17.294-17.296zm8.664-43.254 17.292-17.294 17.296 17.294-17.294 17.294zm12.96 21.626-17.294 17.294-17.294-17.294 17.294-17.294zm-142.72 108.134 17.294-17.294 17.296 17.294-17.296 17.292zm-21.626 21.626 17.294-17.294 17.294 17.294-17.294 17.292zm-21.626 21.626 17.292-17.294 17.296 17.294-17.296 17.292zm-21.628 21.626 17.296-17.294 17.292 17.294-17.292 17.294zm-21.626 21.626 17.294-17.294 17.294 17.294-17.294 17.294zm-21.626 21.628 17.296-17.294 17.29 17.294-17.29 17.292zm-8.666 43.252-17.292 17.294-17.296-17.294 17.296-17.294zm-12.96-21.626 17.294-17.294 17.294 17.294-17.296 17.294zm168.68-90.84-17.294-17.292 17.294-17.294 17.292 17.294zm194.646-21.626-77.844-77.844-4.334 4.332 73.512 73.512-102.504 102.504-77.846-77.844 171.714-171.712-56.252-56.252-171.712 171.712-148.358-148.36-6.934 6.934 66.182 66.182-106.836 106.836 77.842 77.844 4.332-4.332-73.508-73.512 102.504-102.504 77.842 77.844-171.71 171.712 56.252 56.252 171.71-171.712 148.36 148.36 6.934-6.932-66.184-66.184z"/></svg>