<svg enable-background="new 0 0 441.21 441.212" height="316.227766" viewBox="0 0 441.21 441.212" width="316.227766" xmlns="http://www.w3.org/2000/svg"><path d="m192.846 319.216c5.608-5.424 1.998-12.956-3.346-16.972-5.688-4.574-12.934-.95-17.092 3.528-9.98 10.754-27.196 10.374-37.572 0-.188-.266-20.62-20.552-20.812-20.824l-24.842 24.844c-4.138 4.138-4.138 10.848 0 14.986l27.85 27.848c4.106 4.11 10.814 4.204 14.908.08 13.678-14.35 31.394-4.15 46.006-18.75.092-.076 8.56-8.46 14.9-14.74m-110.008 7.884-30.072 30.07 32.292 31.454 29.652-29.652c-.074-.072-31.8-31.798-31.872-31.872m17.064-206.396-99.902 99.902 84.85 84.852 6.932-6.934-73.016-73.016h21.9l49.23 49.232 4.334-4.334-44.898-44.898h21.906l18.658 18.66 4.334-4.334-19.228-19.228 19.228-19.228-4.334-4.332-18.658 18.658h-21.906l44.898-44.898-4.334-4.334-49.23 49.232h-21.898l88.068-88.068zm125.604 301.742v-21.9l49.232-49.232-4.332-4.332-44.9 44.898v-21.906l18.66-18.66-4.332-4.332-19.23 19.228-19.228-19.228-4.332 4.332 18.658 18.66v21.906l-44.898-44.898-4.334 4.332 49.232 49.232v21.898l-70.874-70.876c-3.054 1.032-5.836 2.622-8.452 5.366l-.024.026 84.252 84.252 99.904-99.902-6.934-6.934zm-57.254-122.032c8.612-8.87 20.074-9.794 28.412.196 16.012-13.23 18.208-37.598 3.178-52.446-17.28-20.298-39.822-35.9-63.57-14.302-12.016 12.3-34.344 27.956-17.286 46.282 12.938 11.89 30.764 39.332 49.266 20.27m-127.598-252.826 352.97 352.97 6.932-6.934-352.97-352.97zm175.05-28.82v21.898l-49.234 49.232 4.334 4.334 44.9-44.9v21.906l-18.66 18.66 4.332 4.334 19.228-19.228 19.23 19.228 4.332-4.334-18.658-18.66v-21.906l44.898 44.9 4.332-4.334-49.23-49.232v-21.898l70.876 70.878c3.05-1.034 5.834-2.622 8.45-5.368l.024-.024-84.254-84.254-99.902 99.904 6.932 6.934zm142.668 95.346 30.072-30.072-32.294-31.452-29.65 29.652c.074.072 31.8 31.796 31.872 31.872m-17.064 206.396 99.902-99.904-84.85-84.85-6.932 6.934 73.014 73.014h-21.898l-49.23-49.23-4.334 4.332 44.898 44.898h-21.906l-18.658-18.658-4.334 4.332 19.228 19.23-19.228 19.228 4.334 4.332 18.658-18.658h21.906l-44.898 44.896 4.334 4.334 49.23-49.23h21.898l-88.066 88.068zm-68.35-179.712c-8.612 8.872-20.074 9.794-28.414-.194-16.012 13.228-18.208 37.596-3.178 52.444 17.282 20.3 39.822 35.9 63.57 14.304 12.018-12.3 34.348-27.956 17.286-46.282-12.936-11.892-30.762-39.332-49.264-20.272m-9.696-33.542c14.616-14.598 32.33-4.398 46.008-18.75 4.092-4.124 10.8-4.028 14.908.08l27.848 27.85c4.138 4.138 4.138 10.848 0 14.986l-24.84 24.842c-.192-.27-20.624-20.556-20.812-20.822-10.374-10.376-27.592-10.756-37.574-.002-4.158 4.48-11.404 8.104-17.092 3.528-5.342-4.016-8.952-11.548-3.344-16.972 6.342-6.28 14.808-14.664 14.898-14.74"/></svg>