<svg enable-background="new 0 0 400.558 441.212" height="331.897951" viewBox="0 0 400.558 441.212" width="301.297431" xmlns="http://www.w3.org/2000/svg"><path d="m51.46 198.261-49.51-16.626-1.95 5.81 50.644 17.006c.176-2.092.45-4.156.816-6.19m22.464-38.998-71.972-24.17-1.95 5.81 68.88 23.13c1.598-1.674 3.278-3.268 5.042-4.77m47.244-45.03-73.58-73.578-6.932 6.932 73.58 73.58zm-62.25 63.262-56.966-19.13-1.95 5.81 56.14 18.852c.842-1.892 1.768-3.738 2.776-5.532m-18.262 216.13 6.932 6.932 73.578-73.578-6.932-6.934zm301.95-44.088 51.02 51.02 6.932-6.932-49.504-49.504c-2.668 2.008-5.492 3.82-8.448 5.416m29.042-58.824c0-28.944-20.272-53.138-47.388-59.2l2.222-12.92 1.81.312 5.518-32.094 17.082 3.034 1.716-9.654-17.442-3.096c-5.17-.792-10.106 2.758-10.994 7.92l-5.542 32.228 1.812.312-12.49 72.638 6.04 1.04 7.978-46.408c20.736 4.97 36.198 23.652 36.198 45.888 0 26.024-21.172 47.196-47.196 47.196s-47.196-21.172-47.196-47.196c0-25.616 20.516-46.516 45.978-47.164l2.32-13.486c-.368-.006-.732-.028-1.102-.028-33.512 0-60.678 27.166-60.678 60.678 0 33.51 27.166 60.676 60.678 60.676 33.51 0 60.676-27.166 60.676-60.676m-193.822-246.692c31.542-7.8 37.226-9.206 75.62 9.098 12.212 5.824 20.69 1.454 26.608-3.82-2.578.69-4.624 1.114-7.606 1.114-5.4 0-11.414-1.378-17.874-5.03-25.13-14.204-45.874-17.48-69.36-10.96-13.73 3.812-18.504 5.136-22.79 5.266-1.53 2.028-3.582 4.046-6.336 6.754 4.238 1.2 11.138.196 21.738-2.422m134.478 160.16-99.778-4.6-8.532 49.728zm-109.882-3.694-24.802 4.244c.156 1.772.25 3.56.25 5.37 0 7.256-1.278 14.212-3.614 20.662l-11.898-6.974c1.316-4.336 2.03-8.928 2.03-13.688 0-1.038-.046-2.064-.112-3.086l-33.012 5.652 62.756 36.782zm110.45 14.08-110.842 46.182-2.846 16.592-9.664-1.658 2.73-15.908-77.536-45.444 1.652-9.062 46.258-7.918c-5.578-19.846-23.826-34.446-45.432-34.446-26.024 0-47.194 21.172-47.194 47.196s21.17 47.196 47.194 47.196c13.338 0 25.39-5.57 33.982-14.494l11.902 6.978c-11.126 12.854-27.548 20.998-45.884 20.998-33.51 0-60.676-27.166-60.676-60.678 0-33.51 27.166-60.676 60.676-60.676 28.32 0 52.106 19.402 58.796 45.638l28.192-4.824 5.852-34.11c-2.254-.05-4.452-.42-6.526-1.098-7.064-2.312-12.746-8.03-14.818-15.468l-1.274-4.57c-.51-1.836.028-3.796 1.406-5.114s3.36-1.768 5.172-1.176l48.446 15.86c3.07 1.004 4.75 4.32 3.744 7.39-.784 2.4-3.01 4.022-5.536 4.034l-20.66.112-5.79 33.746 102.118 4.706zm87.686-166.98-6.932-6.932-73.58 73.578 6.932 6.934zm-170.69 23.082c-1.162-.294-2.318-.622-3.456-1.008-5.78-1.964-16.918-4.034-29.144-.26l19.172 19.172zm6.8 1.148-15.85 21.134 15.18 15.18-4.334 4.334-40.7-40.702c-10.264 3.846-18.494-.424-24.482-6.406 17.74-2.046 30.422-8.678 41.804-9.482 5.93-.722 12.054-.008 18.104 1.066.168.022.33-.082.374-.248.046-.168-.042-.34-.2-.402-19.602-7.626-34.288-1.154-46.308 1.396-3.278.7-12.266 2.346-17.974 2.806-1.99-2.656-3.584-5.31-4.776-7.52 4.734.558 12.276-.652 21.79-3.002 30.428-7.524 35.1-8.68 71.512 8.68 4.966 2.368 9.616 3.36 13.904 3.36.694 0 1.37-.048 2.044-.098-5.678 4.39-11.044 7.26-15.82 8.624-4.658 1.33-9.488 1.702-14.268 1.28m-53.094-43.298c24.868-6.906 47.692-3.348 74.016 11.53 12.622 7.134 23.196 4.222 29.83.202-2.546-4.326-41.078-66.596-126.088-27.306 0 0-8.116 9.876 1.586 20.578 3.518-.246 8.128-1.526 20.656-5.004m79.818 368.672c-31.542 7.798-37.228 9.206-75.62-9.098-12.212-5.824-20.69-1.456-26.608 3.82 2.576-.69 4.624-1.114 7.606-1.114 5.4 0 11.414 1.378 17.874 5.03 25.13 14.202 45.874 17.48 69.358 10.96 13.732-3.812 18.506-5.136 22.792-5.266 1.53-2.028 3.582-4.046 6.334-6.754-4.236-1.2-11.138-.196-21.736 2.422m-48.586-25.64c5.78 1.964 16.918 4.034 29.144.26l-19.172-19.172-13.428 17.904c1.162.294 2.316.62 3.456 1.008m-.354 12.968c-.044.168.044.34.202.402 19.6 7.626 34.288 1.154 46.308-1.396 3.276-.7 12.264-2.346 17.974-2.806 1.99 2.654 3.584 5.31 4.774 7.52-4.732-.558-12.276.652-21.79 3.002-30.426 7.524-35.1 8.68-71.51-8.68-4.966-2.368-9.618-3.36-13.906-3.36-.692 0-1.368.048-2.042.098 5.678-4.39 11.044-7.26 15.818-8.624 4.66-1.33 9.488-1.702 14.27-1.28l15.85-21.134-15.18-15.18 4.334-4.334 40.7 40.702c10.264-3.848 18.492.424 24.482 6.406-17.742 2.046-30.422 8.678-41.804 9.482-5.93.722-12.054.008-18.104-1.066-.168-.024-.33.082-.376.248m63.848 23.17c9.702 10.702 1.586 20.578 1.586 20.578-85.012 39.29-123.544-22.982-126.09-27.306 6.636-4.02 17.21-6.932 29.832.202 26.322 14.878 49.148 18.436 74.014 11.53 12.53-3.478 17.138-4.758 20.658-5.004"/></svg>