<svg enable-background="new 0 0 441.212 441.214" height="316.227766" viewBox="0 0 441.212 441.214" width="316.227766" xmlns="http://www.w3.org/2000/svg"><path d="m220.372 123.62h-13.104l7.014 16.59h4.13zm44.66 0h-38.49l-2.684 22.718h-13.638l-9.606-22.718h-13.702l-.024-9.558c0-17.094 13.858-30.95 30.95-30.95 17.094 0 30.952 13.856 30.952 30.95l-.004 3.43h16.246zm24.308 84.094h-137.472v9.828h137.472zm-137.47-6.128h137.472v-9.83h-137.472zm166.722-16.028h-19.446v75.122h-9.806v-37.01h-137.47v37.01h-9.804v-74.952h-19.362l11.592-11.592-11.592-11.59h29.27v23.084h137.366v-.072h-.018v-23.182h29.27l-11.59 11.59zm.318 184.31-10.192 20.384 61.15 30.576v20.386l24.832-24.834c27.158-10.084 46.512-36.226 46.512-66.894 0-39.402-31.942-71.344-71.344-71.344v91.726zm-247.568 0v-91.726c-39.402 0-71.342 31.942-71.342 71.344 0 30.668 19.352 56.81 46.51 66.894l24.832 24.834v-20.386l61.152-30.576-10.192-20.384zm247.914-29.65c-5.27 0-7.778-1.604-10.68-3.462-3.244-2.076-6.92-4.428-13.984-4.428-7.062 0-10.738 2.352-13.982 4.428-2.902 1.858-5.41 3.462-10.678 3.462-5.27 0-7.778-1.606-10.68-3.462-3.244-2.076-6.92-4.428-13.982-4.428-7.064 0-10.74 2.352-13.984 4.428-2.902 1.858-5.41 3.462-10.68 3.462s-7.778-1.606-10.68-3.462c-3.246-2.076-6.922-4.428-13.986-4.428-7.06 0-10.738 2.352-13.982 4.428-2.902 1.856-5.412 3.462-10.682 3.462s-7.778-1.606-10.682-3.462c-3.244-2.076-6.922-4.428-13.984-4.428-7.064 0-10.742 2.352-13.984 4.428-2.906 1.856-5.412 3.462-10.684 3.462v6.128c7.062 0 10.74-2.354 13.984-4.428 2.906-1.858 5.412-3.462 10.684-3.462 5.27 0 7.778 1.604 10.682 3.462 3.244 2.074 6.922 4.428 13.984 4.428 7.064 0 10.74-2.354 13.986-4.428 2.902-1.858 5.408-3.462 10.678-3.462s7.778 1.604 10.682 3.462c3.244 2.074 6.92 4.428 13.984 4.428 7.062 0 10.738-2.354 13.982-4.428 2.904-1.858 5.412-3.462 10.682-3.462s7.776 1.604 10.68 3.462c3.244 2.074 6.92 4.428 13.982 4.428s10.738-2.354 13.982-4.428c2.902-1.858 5.41-3.462 10.678-3.462 5.27 0 7.778 1.604 10.682 3.462 3.244 2.074 6.92 4.428 13.982 4.428zm0-17.472c-5.27 0-7.778-1.604-10.68-3.46-3.244-2.076-6.92-4.428-13.984-4.428-7.062 0-10.738 2.352-13.982 4.428-2.902 1.856-5.41 3.46-10.678 3.46-5.27 0-7.778-1.604-10.68-3.46-3.244-2.076-6.92-4.428-13.982-4.428-7.064 0-10.74 2.352-13.984 4.428-2.902 1.856-5.41 3.46-10.68 3.46s-7.778-1.604-10.68-3.46c-3.246-2.076-6.922-4.428-13.986-4.428-7.06 0-10.738 2.352-13.982 4.426-2.902 1.858-5.412 3.462-10.682 3.462s-7.778-1.604-10.682-3.462c-3.244-2.074-6.922-4.426-13.984-4.426-7.064 0-10.742 2.352-13.984 4.426-2.906 1.858-5.412 3.462-10.684 3.462v6.128c7.062 0 10.74-2.352 13.984-4.426 2.906-1.858 5.412-3.462 10.684-3.462 5.27 0 7.778 1.604 10.682 3.462 3.244 2.074 6.922 4.426 13.984 4.426 7.064 0 10.74-2.352 13.986-4.428 2.902-1.856 5.408-3.46 10.678-3.46s7.778 1.604 10.682 3.462c3.244 2.074 6.92 4.426 13.984 4.426 7.062 0 10.738-2.352 13.982-4.426 2.904-1.858 5.412-3.462 10.682-3.462s7.776 1.604 10.68 3.46c3.244 2.076 6.92 4.428 13.982 4.428s10.738-2.352 13.982-4.428c2.902-1.856 5.41-3.46 10.678-3.46 5.27 0 7.778 1.604 10.682 3.462 3.244 2.074 6.92 4.426 13.982 4.426zm0-17.47c-5.27 0-7.778-1.604-10.68-3.462-3.244-2.074-6.92-4.428-13.984-4.428-7.062 0-10.738 2.354-13.982 4.428-2.902 1.858-5.41 3.462-10.678 3.462-5.27 0-7.778-1.604-10.68-3.462-3.244-2.074-6.92-4.428-13.982-4.428-7.064 0-10.74 2.354-13.984 4.428-2.902 1.858-5.41 3.462-10.68 3.462s-7.778-1.604-10.68-3.462c-3.246-2.074-6.922-4.428-13.986-4.428-7.06 0-10.738 2.352-13.982 4.428-2.902 1.858-5.412 3.462-10.682 3.462s-7.778-1.604-10.682-3.462c-3.244-2.074-6.922-4.428-13.984-4.428-7.064 0-10.742 2.354-13.984 4.428-2.906 1.858-5.412 3.462-10.684 3.462v6.128c7.062 0 10.74-2.352 13.984-4.428 2.906-1.856 5.412-3.462 10.684-3.462 5.27 0 7.778 1.606 10.682 3.462 3.244 2.076 6.922 4.428 13.984 4.428 7.064 0 10.74-2.352 13.986-4.428 2.902-1.858 5.408-3.462 10.678-3.462s7.778 1.606 10.682 3.462c3.244 2.076 6.92 4.428 13.984 4.428 7.062 0 10.738-2.352 13.982-4.428 2.904-1.856 5.412-3.462 10.682-3.462s7.776 1.606 10.68 3.462c3.244 2.076 6.92 4.428 13.982 4.428s10.738-2.352 13.982-4.428c2.902-1.856 5.41-3.462 10.678-3.462 5.27 0 7.778 1.606 10.682 3.462 3.244 2.076 6.92 4.428 13.982 4.428zm0-17.47c-5.27 0-7.778-1.604-10.68-3.462-3.244-2.076-6.92-4.428-13.984-4.428-7.062 0-10.738 2.352-13.982 4.428-2.902 1.858-5.41 3.462-10.678 3.462-5.27 0-7.778-1.606-10.68-3.462-3.244-2.076-6.92-4.428-13.982-4.428-7.064 0-10.74 2.352-13.984 4.428-2.902 1.858-5.41 3.462-10.68 3.462s-7.778-1.606-10.68-3.462c-3.246-2.076-6.922-4.428-13.986-4.428-7.06 0-10.738 2.352-13.982 4.428-2.902 1.856-5.412 3.462-10.682 3.462s-7.778-1.606-10.682-3.462c-3.244-2.076-6.922-4.428-13.984-4.428-7.064 0-10.742 2.352-13.984 4.428-2.906 1.856-5.412 3.462-10.684 3.462v6.128c7.062 0 10.74-2.354 13.984-4.428 2.906-1.858 5.412-3.462 10.684-3.462 5.27 0 7.778 1.604 10.682 3.462 3.244 2.074 6.922 4.428 13.984 4.428 7.064 0 10.74-2.354 13.986-4.428 2.902-1.858 5.408-3.462 10.678-3.462s7.778 1.604 10.682 3.462c3.244 2.074 6.92 4.428 13.984 4.428 7.062 0 10.738-2.354 13.982-4.428 2.904-1.858 5.412-3.462 10.682-3.462s7.776 1.604 10.68 3.462c3.244 2.074 6.92 4.428 13.982 4.428s10.738-2.354 13.982-4.428c2.902-1.858 5.41-3.462 10.678-3.462 5.27 0 7.778 1.604 10.682 3.462 3.244 2.074 6.92 4.428 13.982 4.428zm50.612-216.46v91.726c39.402 0 71.344-31.942 71.344-71.344 0-30.668-19.354-56.808-46.512-66.894l-24.832-24.834v20.386l-61.15 30.576 10.192 20.384zm-298.526 0v91.726c-39.402 0-71.342-31.942-71.342-71.344 0-30.668 19.352-56.808 46.51-66.894l24.832-24.834v20.386l61.152 30.576-10.192 20.384z"/></svg>