<svg enable-background="new 0 0 441.212 441.214" height="316.227766" viewBox="0 0 441.212 441.214" width="316.227766" xmlns="http://www.w3.org/2000/svg"><path d="m325.926 239.122-7.366-7.368-86.808 86.808 7.37 7.366zm-98.504 75.106 86.804-86.806-7.366-7.366-86.806 86.806zm-6.262-179.874-7.368-7.366-86.806 86.804 7.366 7.368zm-98.506 75.106 86.806-86.806-7.368-7.366-86.804 86.806zm120.8 120.8 14.732 14.732-18.602 18.602v-14.734h-14.732l11.668-11.668-62.782-62.782-59.968 59.968-6.932-6.934 153.704-153.706-35.05-35.052-86.806 86.806 30.718 30.718-6.934 6.934-58.448-58.45-11.668 11.668v-14.734h-14.732l18.6-18.6 14.734 14.732 86.804-86.804-14.734-14.732 18.602-18.602v14.732h14.734l-11.668 11.668 62.78 62.784 59.97-59.97 6.932 6.934-153.706 153.708 35.052 35.05 86.806-86.804-30.718-30.72 6.932-6.932 58.45 58.45 11.668-11.668v14.732h14.734l-18.602 18.602-14.732-14.734zm-172.11 39.61v-91.726c-39.402 0-71.344 31.94-71.344 71.342 0 30.668 19.352 56.81 46.51 66.896l24.834 24.832v-20.384l61.15-30.578-10.194-20.382zm298.526-91.726v91.726h-50.958l-10.194 20.382 61.152 30.578v20.384l24.834-24.832c27.156-10.086 46.508-36.228 46.508-66.896 0-39.402-31.94-71.342-71.342-71.342m0-206.798v91.726c39.402 0 71.342-31.942 71.342-71.344 0-30.668-19.352-56.81-46.508-66.894l-24.834-24.834v20.386l-61.152 30.576 10.194 20.384zm-369.87 20.382c0-30.668 19.352-56.81 46.51-66.894l24.834-24.834v20.386l61.15 30.576-10.194 20.384h-50.956v91.726c-39.402 0-71.344-31.942-71.344-71.344"/></svg>