<svg enable-background="new 0 0 441.214 441.212" height="316.227766" viewBox="0 0 441.214 441.212" width="316.227766" xmlns="http://www.w3.org/2000/svg"><path d="m86.13 383.042c3.026-3.606 10.576-10.708 11.592-11.838l176.786-176.312c6.024-6.028 12.42-11.672 19.15-16.902l3.726-2.894c6.694-5.202 13.056-10.816 19.05-16.81l79.064-79.024c1.77-1.768 1.77-4.636 0-6.404l-5.53-5.53c-1.768-1.768-4.636-1.768-6.404 0l-79.112 79.07c-5.964 5.962-11.55 12.29-16.728 18.946l-2.984 3.834c-5.202 6.686-10.816 13.042-16.806 19.032l-185.626 185.066.044.016c-11.184 11.422-14.154 16.052-17.14 27.938-2.43 9.672.006 19.928 6.294 27.67 4.886 6.018 11.778 10.082 19.418 11.384 3.168.54 6.624.93 9.998.928 4.472-.002 8.798-.69 12.108-2.628 11.412-6.676 3.616-21.06-6.668-32.132s-25.328-17.332-20.232-23.41m-57.886-277.544c0-7.788-6.334-14.122-14.122-14.122-7.786 0-14.122 6.334-14.122 14.122 0 7.786 6.336 14.122 14.122 14.122 7.788 0 14.122-6.336 14.122-14.122m154.474 0c0 6.098 4.962 11.058 11.06 11.058 6.096 0 11.058-4.96 11.058-11.058s-4.962-11.058-11.058-11.058c-6.098 0-11.06 4.96-11.06 11.058m230.252 230.216c0 7.788 6.334 14.122 14.122 14.122 7.786 0 14.122-6.334 14.122-14.122 0-7.786-6.336-14.122-14.122-14.122-7.788 0-14.122 6.336-14.122 14.122m-154.474 0c0-6.098-4.962-11.058-11.06-11.058-6.096 0-11.058 4.96-11.058 11.058s4.962 11.058 11.058 11.058c6.098 0 11.06-4.96 11.06-11.058m-151.044 34.44c7.804 3.12 15.972 4.376 24.978 3.876 5.966-.332 12.178-2.258 18.752-4.298 8.12-2.518 16.518-5.122 25.598-5.122 19.736 0 31.608 7.01 43.088 13.79 12.124 7.16 23.578 13.922 45.07 13.922 41.262 0 70.218-28.596 80.264-40.188l-54.926-54.926-28.726 28.724c1.932 2.78 3.074 6.148 3.074 9.782 0 9.476-7.71 17.186-17.188 17.186-9.476 0-17.186-7.71-17.186-17.186s7.71-17.186 17.186-17.186c3.634 0 7.002 1.14 9.782 3.072l28.726-28.726-50.436-50.434 6.944-6.922 50.424 50.424 103.736-103.736v.002-.002s7.23 3.146 13.628 9.544 9.542 13.626 9.542 13.626l-2.722 2.722c1.018 1.278 2.158 2.584 3.434 3.86 6.398 6.398 13.626 9.542 13.626 9.542l-23.55 23.55s-7.23-3.144-13.626-9.542c-6.398-6.398-9.542-13.626-9.542-13.626l3.388-3.388c-1.126-1.06-2.46-2.136-4.1-3.194-3.87-2.496-7.668-3.398-11.006-3.5l-78.476 78.474 103.35 103.35-6.932 6.934-41.436-41.436c-11.422 13.2-42.192 43.006-87.252 43.006-24.172 0-37.924-8.122-50.056-15.286-11.292-6.668-21.044-12.428-38.102-12.428-7.596 0-15.27 2.38-22.692 4.684-6.856 2.124-13.942 4.324-21.114 4.72-12.022.668-22.738-1.326-32.994-6.206zm226.31-299.096c-7.804-3.12-15.972-4.376-24.978-3.876-5.966.33-12.178 2.258-18.752 4.298-8.12 2.518-16.518 5.122-25.598 5.122-19.736 0-31.608-7.01-43.088-13.79-12.124-7.16-23.578-13.922-45.07-13.922-41.262 0-70.218 28.594-80.264 40.188l54.926 54.926 28.726-28.726c-1.932-2.778-3.074-6.146-3.074-9.78 0-9.478 7.71-17.186 17.188-17.186 9.476 0 17.186 7.708 17.186 17.186 0 9.476-7.71 17.186-17.186 17.186-3.634 0-7.002-1.142-9.782-3.074l-28.726 28.726 50.434 50.434-6.942 6.924-50.424-50.424-103.736 103.734s-7.23-3.146-13.628-9.542c-6.398-6.398-9.542-13.628-9.542-13.628l2.722-2.72c-1.018-1.278-2.158-2.584-3.434-3.86-6.398-6.398-13.626-9.542-13.626-9.542l23.55-23.55s7.228 3.144 13.626 9.542 9.542 13.626 9.542 13.626l-3.388 3.388c1.126 1.06 2.46 2.136 4.1 3.194 3.87 2.496 7.668 3.398 11.006 3.5l78.476-78.476-103.35-103.348 6.932-6.934 41.436 41.436c11.422-13.2 42.192-43.006 87.252-43.006 24.172 0 37.924 8.122 50.056 15.286 11.292 6.668 21.044 12.428 38.102 12.428 7.596 0 15.27-2.382 22.692-4.684 6.854-2.126 13.942-4.324 21.114-4.722 12.022-.666 22.738 1.328 32.994 6.208zm-197 223.756-79.112 79.07c-1.768 1.768-4.636 1.768-6.404 0l-5.532-5.53c-1.768-1.77-1.768-4.636 0-6.404l79.066-79.024c5.994-5.994 12.356-11.608 19.05-16.81l3.726-2.894c6.728-5.23 13.124-10.874 19.15-16.902l176.786-176.312c1.016-1.13 8.566-8.232 11.59-11.838 5.098-6.078-9.948-12.34-20.23-23.41-10.284-11.072-18.08-25.458-6.67-32.132 3.312-1.938 7.638-2.626 12.11-2.628 3.372-.002 6.83.388 9.996.928 7.642 1.302 14.534 5.366 19.42 11.382 6.286 7.744 8.724 18 6.294 27.672-2.986 11.886-5.956 16.516-17.14 27.938l.044.016-185.626 185.066c-5.992 5.99-11.604 12.346-16.806 19.032l-2.984 3.834c-5.178 6.656-10.766 12.984-16.728 18.946"/></svg>