<svg enable-background="new 0 0 441.212 441.212" height="316.227766" viewBox="0 0 441.212 441.212" width="316.227766" xmlns="http://www.w3.org/2000/svg"><path d="m267.166 283.178c2.974 2.906 9.61 8.142 16.8 12.65 7.192 4.508 14.938 8.286 20.14 8.278.188-5.094-3.668-12.778-8.3-19.93-4.63-7.15-10.036-13.768-12.95-16.736l-51.216-50.936-15.132 15.134zm-93.396-124.822c-2.966-2.914-9.584-8.32-16.736-12.95-7.148-4.632-14.832-8.486-19.928-8.3-.008 5.202 3.772 12.948 8.28 20.14 4.506 7.19 9.744 13.826 12.648 16.8l51.54 50.66 15.134-15.134zm267.442 6.03-5.404 3.71c-9.764 6.702-20.5 11.706-31.906 14.876l-5.428 1.51-5.03-2.842c-5.79-3.27-12.042-5.546-18.582-6.764l-2.14-.396-116.49 54.32 16.058 16.056c32.28 32.282 62.848 66.928 90.854 102.976l33.286 42.708c1.3 1.67 1.156 4.046-.338 5.544-.814.816-1.892 1.234-2.972 1.234-.902 0-1.808-.29-2.568-.878l-43.26-33.48c-35.752-27.83-70.116-58.178-102.146-90.208l-16.402-16.402-54.266 116.374.398 2.14c1.218 6.54 3.492 12.792 6.764 18.582l2.842 5.03-1.51 5.428c-3.17 11.408-8.178 22.144-14.876 31.904l-3.71 5.404-2.932-.336c-7.918-.912-15.466-4.432-21.252-9.912l-2.066-1.954 1.216-5.002c4.296-17.66 11.73-34.184 22.094-49.114l3.66-5.272 56.262-120.65-52.394-52.392c-.57-.572-1.132-1.158-1.702-1.73l-59.412 127.406.4 2.14c1.216 6.542 3.492 12.794 6.764 18.584l2.842 5.03-1.51 5.426c-3.172 11.41-8.178 22.144-14.878 31.906l-3.71 5.404-2.932-.338c-7.916-.91-15.464-4.43-21.252-9.91l-2.066-1.954 1.216-5.004c4.296-17.658 11.732-34.182 22.096-49.112l3.66-5.272 61.442-131.764c-28.916-29.608-56.38-61.06-81.73-93.682l-33.266-42.884c-1.296-1.67-1.144-4.046.35-5.54 1.498-1.496 3.872-1.644 5.544-.346l43.258 33.624c32.446 25.266 63.734 52.626 93.192 81.42l131.88-61.496 5.268-3.658c14.928-10.364 31.45-17.796 49.11-22.094l5.006-1.216 1.954 2.064c5.478 5.788 9 13.336 9.91 21.254l.338 2.93-5.404 3.71c-9.762 6.702-20.498 11.706-31.906 14.878l-5.426 1.51-5.03-2.842c-5.792-3.272-12.044-5.546-18.584-6.764l-2.14-.398-127.518 59.462c.456.456.924.904 1.38 1.36l52.736 52.738 120.772-56.318 5.266-3.656c14.93-10.364 31.452-17.798 49.112-22.094l5.006-1.216 1.954 2.064c5.48 5.788 9 13.336 9.912 21.252zm-385.94 24.674 66.234 66.234 2.756-5.908-64.658-64.658zm51.83 97.124-102.77-102.77-4.332 4.334 104.346 104.346zm75.326 83.992 71.038 71.036 4.33-4.332-72.612-72.614zm-41.006-157.59-26.546-26.546-4.332 4.332 28.122 28.122zm58.166 120.792 52.564 52.562 4.332-4.332-54.14-54.14zm-61.48-61.482 44.88 44.88 2.756-5.91-44.88-44.88zm-17.16 36.8 44.88 44.88 2.756-5.91-44.88-44.88zm98.556-18.028-2.754 5.908 34.09 34.092 4.332-4.332zm-16.602-16.602-44.878-44.88-2.756 5.91 44.878 44.88zm89.192-169.72-104.346-104.346-4.334 4.332 102.77 102.77zm72.17 80.838 72.616 72.614 4.332-4.332-71.038-71.038zm-10.69-19.356-44.88-44.88-5.908 2.754 44.88 44.882zm32.366 86.324-52.564-52.564-5.91 2.756 54.142 54.142zm-95.274-32.648 35.67 35.668 4.332-4.332-34.092-34.092zm26.11-36.516-44.882-44.88-5.908 2.756 44.878 44.88zm-61.482-61.48-66.236-66.236-4.334 4.332 64.662 64.658zm-42.71 19.916 5.91-2.756-28.122-28.122-4.332 4.332zm22.51 13.844 44.88 44.88-5.908 2.756-44.882-44.88z"/></svg>