<svg enable-background="new 0 0 441.212 441.212" height="316.227766" viewBox="0 0 441.212 441.212" width="316.227766" xmlns="http://www.w3.org/2000/svg"><path d="m377.204 329.68-4.332-4.332-21.594 21.596-257.002-257.002 21.596-21.594-4.334-4.332-21.594 21.594-43.656-43.656-4.334 4.334 43.658 43.654-21.588 21.59 4.332 4.332 21.588-21.59 257 257.002-21.586 21.588 4.332 4.332 21.588-21.588 43.646 43.648 2.166-2.164 2.168-2.168-43.648-43.648zm-190.348 38.132 10.486 10.486 4.332-4.334-10.486-10.486zm20.972 20.97 10.486 10.486 4.332-4.332-10.486-10.486zm-161.552-170.216-4.334 4.332 10.488 10.486 4.332-4.332zm150.354 129.702 53.69-53.69-15.6-15.598-53.69 53.69 4.334 4.332-9.026 9.026-81.154-81.154 9.026-9.026 4.332 4.332 53.69-53.69-15.598-15.598-53.692 53.69 4.334 4.334-97.272 97.272 6.932 6.934v-.002.002l81.316-81.316 81.154 81.154-81.314 81.314 6.932 6.934 97.272-97.272zm208.792-115.136 10.486 10.486 4.332-4.332-10.486-10.486zm25.304 16.64-4.332 4.332 10.486 10.486 4.332-4.332zm-348.208 137.12c.592-3.062.81-5.974.666-8.69-3.326 10.25-11.332 22.664-22.752 34.086-11.422 11.42-23.836 19.426-34.086 22.752 2.718.142 5.63-.074 8.69-.666 10.526-2.036 21.296-8.128 30.324-17.158 9.03-9.028 15.122-19.798 17.158-30.324m-55.158 41.264c9.218-3.712 19.424-10.888 28.738-20.202 9.316-9.314 16.49-19.52 20.202-28.738 2.862-7.104 3.276-13.132 1.052-15.356s-8.252-1.81-15.356 1.052c-9.216 3.712-19.422 10.888-28.738 20.202-9.314 9.314-16.49 19.52-20.202 28.738-2.862 7.104-3.274 13.132-1.052 15.356 2.224 2.222 8.252 1.81 15.356-1.052m1.564-47.374c11.422-11.422 23.836-19.428 34.086-22.754-2.718-.142-5.628.074-8.69.666-10.526 2.034-21.296 8.128-30.324 17.158-9.03 9.028-15.124 19.798-17.158 30.324-.592 3.062-.808 5.972-.666 8.69 3.326-10.25 11.332-22.664 22.752-34.084m40.77 40.768c-20.438 20.438-48.206 25.806-62.022 11.99-13.816-13.816-8.448-41.584 11.992-62.022 20.436-20.438 48.204-25.806 62.02-11.99s8.448 41.584-11.99 62.022m314.756-209.39 10.486 10.486 4.332-4.334-10.486-10.484zm-134.678 218.566 10.486 10.486 4.332-4.332-10.486-10.486zm-20.972-20.972 10.486 10.486 4.332-4.332-10.486-10.486zm-161.552-170.216-4.334 4.332 10.486 10.486 4.334-4.332zm187.108-166.136-10.486-10.486-4.332 4.332 10.486 10.486zm119.608 128.272 4.332-4.332-10.486-10.486-4.332 4.332zm-359.146-14.566-10.486-10.486-4.332 4.332 10.484 10.486zm343.876-132.788c-.592 3.062-.808 5.972-.666 8.69 3.326-10.25 11.332-22.664 22.752-34.084 11.422-11.422 23.836-19.428 34.086-22.754-2.718-.142-5.63.074-8.69.666-10.526 2.036-21.296 8.128-30.326 17.158-9.028 9.028-15.122 19.798-17.156 30.324m55.158-41.264c-9.218 3.712-19.424 10.888-28.738 20.202s-16.49 19.52-20.202 28.738c-2.864 7.104-3.276 13.132-1.052 15.356s8.252 1.81 15.356-1.052c9.216-3.712 19.422-10.886 28.738-20.202 9.314-9.314 16.49-19.52 20.202-28.738 2.862-7.104 3.274-13.132 1.052-15.354-2.224-2.226-8.252-1.812-15.356 1.05m-1.564 47.376c-11.422 11.42-23.836 19.426-34.086 22.752 2.718.144 5.628-.074 8.69-.666 10.526-2.034 21.296-8.128 30.324-17.158 9.03-9.028 15.122-19.798 17.158-30.324.592-3.06.808-5.972.666-8.69-3.326 10.252-11.332 22.664-22.752 34.086m-40.77-40.77c20.438-20.438 48.206-25.806 62.022-11.99s8.448 41.584-11.99 62.022c-20.44 20.438-48.206 25.806-62.024 11.99-13.814-13.814-8.446-41.584 11.992-62.022m-126.936 73.282-53.69 53.69 15.6 15.598 53.69-53.69-4.334-4.332 9.026-9.026 81.154 81.154-9.026 9.026-4.332-4.332-53.692 53.688 15.6 15.6 53.69-53.69-4.332-4.332 97.272-97.274-6.932-6.932h-.002l-81.314 81.314-81.154-81.154 81.314-81.316-6.932-6.932h-.002l-97.272 97.272zm-11.198-40.514-10.486-10.486-4.332 4.332 10.486 10.486zm-197.594 155.65-10.486-10.486-4.332 4.332 10.486 10.486zm155.65-197.594-10.486-10.486-4.332 4.332 10.486 10.486zm16.64 25.304-10.484-10.486 4.332-4.332 10.486 10.486z"/></svg>