<svg enable-background="new 0 0 500 500" height="316.227766" viewBox="0 0 500 500" width="316.227766" xmlns="http://www.w3.org/2000/svg"><path d="m273.098 249.518c0-12.87-10.434-23.304-23.306-23.304s-23.306 10.434-23.306 23.304c0 12.872 10.434 23.306 23.306 23.306s23.306-10.434 23.306-23.306m52.564 75.87h-151.738v-151.738h151.738zm-161.228 2.56h-.002l-94.59 94.59 6.932 6.932 94.592-94.59zm-.002-156.858.002.002 6.932-6.934-94.592-94.59-6.932 6.934 94.59 94.59zm90.262 269.878v-47.77h-9.804v47.77c-45.64-1.14-88.588-18.172-122.492-48.454l-4.336 4.334c33.832 30.27 78.144 49.068 126.828 50.252v23.024h9.804v-23.024c48.684-1.186 92.998-19.982 126.828-50.252l-4.336-4.336c-33.904 30.282-76.852 47.316-122.492 48.456m192.68-196.352c-1.186-48.682-19.982-92.994-50.252-126.826l-4.336 4.336c30.282 33.902 47.316 76.852 48.456 122.49h-47.77v9.806h47.77c-1.14 45.638-18.174 88.588-48.456 122.492l4.336 4.334c30.27-33.832 49.066-78.142 50.252-126.826h23.026v-9.806zm-298.384-80.3-4.35-4.352c-43.946 51.49-43.946 127.62 0 179.108l4.35-4.35c-41.572-49.072-41.572-121.334 0-170.406m186.008 186.006c-49.074 41.572-121.336 41.572-170.408 0l-4.35 4.35c51.488 43.946 127.618 43.946 179.106 0zm-170.408-201.606c49.072-41.572 121.334-41.572 170.406 0l4.35-4.35c-51.488-43.948-127.618-43.946-179.106 0zm186.006 186.008 4.35 4.35c43.948-51.488 43.948-127.62 0-179.11l-4.35 4.352c41.572 49.072 41.572 121.334 0 170.408m-22.374.156 94.59 94.59 6.932-6.932-94.59-94.59zm-221.422 42.034c-30.284-33.904-47.318-76.852-48.458-122.492h47.774v-9.806h-47.774c1.14-45.638 18.174-88.588 48.456-122.492l-4.336-4.336c-30.27 33.832-49.066 78.146-50.252 126.828h-23.022v9.806h23.022c1.186 48.684 19.982 92.996 50.254 126.828zm138.09-318.844v47.772h9.804v-47.772c45.64 1.138 88.588 18.174 122.492 48.456l4.336-4.336c-33.83-30.27-78.144-49.068-126.828-50.254v-23.022h-9.804v23.022c-48.684 1.186-92.996 19.984-126.828 50.254l4.336 4.336c33.904-30.282 76.852-47.318 122.492-48.456m83.33 106.088 94.59-94.59v.002l.002-.002 6.932 6.934-94.59 94.59-.002-.002v.002z"/></svg>