<svg enable-background="new 0 0 500 500" height="316.227766" viewBox="0 0 500 500" width="316.227766" xmlns="http://www.w3.org/2000/svg"><path d="m355.847 348.599-68.99-68.99 95.404-95.404c6.786-6.784 16.276-10.522 26.724-10.522 12.316 0 25.024 5.178 34.902 14.21l3.676 3.676c9.046 9.892 14.224 22.62 14.21 34.95-.012 10.428-3.748 19.902-10.522 26.676zm-238.52-33.766c-6.786 6.784-16.276 10.522-26.724 10.522-12.316 0-25.026-5.178-34.902-14.21l-3.676-3.676c-9.046-9.892-14.224-22.62-14.21-34.95.01-10.428 3.748-19.902 10.522-26.676l95.404-95.404 68.99 68.988zm354.306-88.304c.016-14.424-5.722-29.592-16.948-41.782l-3.976-3.976c-12.174-11.21-27.318-16.946-41.724-16.946-12.632 0-24.696 4.41-33.696 13.408l-95.404 95.406-23.12-23.12 173.986-173.986-6.972-6.972-173.986 173.986-173.984-173.986-6.972 6.972 67.932 67.934-95.404 95.404c-8.986 8.986-13.396 21.028-13.41 33.638-.016 14.424 5.722 29.592 16.948 41.782l3.976 3.976c12.174 11.21 27.318 16.946 41.724 16.946 12.632 0 24.696-4.41 33.696-13.408l95.404-95.406 23.118 23.12-173.984 173.984 6.972 6.974 173.984-173.986 173.986 173.986 6.972-6.974-67.932-67.932 95.404-95.404c8.986-8.986 13.396-21.028 13.41-33.638m-91.098 13.032c0 2.042-1.654 3.698-3.696 3.698s-3.698-1.656-3.698-3.698 1.656-3.698 3.698-3.698 3.696 1.656 3.696 3.698m19.058 19.056c0 2.042-1.656 3.698-3.698 3.698s-3.698-1.656-3.698-3.698 1.656-3.696 3.698-3.696 3.698 1.654 3.698 3.696m-38.708.594c0 2.042-1.656 3.698-3.698 3.698s-3.696-1.656-3.696-3.698 1.654-3.696 3.696-3.696 3.698 1.654 3.698 3.696m19.056 19.058c0 2.042-1.654 3.696-3.696 3.696s-3.698-1.654-3.698-3.696 1.656-3.698 3.698-3.698 3.696 1.656 3.696 3.698m-253.494-18.792c0 2.042-1.656 3.698-3.698 3.698s-3.698-1.656-3.698-3.698 1.656-3.698 3.698-3.698 3.698 1.656 3.698 3.698m-19.056-19.056c0 2.042-1.656 3.696-3.698 3.696s-3.698-1.654-3.698-3.696 1.656-3.698 3.698-3.698 3.698 1.656 3.698 3.698m19.65-19.652c0 2.042-1.656 3.698-3.698 3.698s-3.698-1.656-3.698-3.698 1.656-3.696 3.698-3.696 3.698 1.654 3.698 3.696m15.358 15.36c2.042 0 3.698 1.656 3.698 3.698s-1.656 3.696-3.698 3.696-3.696-1.654-3.696-3.696 1.654-3.698 3.696-3.698m107.396-115.482c6.076 0 11.022 4.944 11.022 11.022s-4.946 11.022-11.022 11.022c-6.078 0-11.022-4.944-11.022-11.022s4.944-11.022 11.022-11.022m0 28.206c9.476 0 17.184-7.708 17.184-17.184s-7.708-17.184-17.184-17.184-17.184 7.708-17.184 17.184 7.708 17.184 17.184 17.184m0-21.066c2.144 0 3.882 1.738 3.882 3.882s-1.738 3.882-3.882 3.882-3.882-1.738-3.882-3.882 1.738-3.882 3.882-3.882m3.956 10.736 3.958-6.854-3.958-6.856h-7.914l-3.958 6.856 3.958 6.854zm-3.958-44.494c20.756 0 37.64 16.886 37.64 37.64s-16.884 37.64-37.64 37.64c-20.754 0-37.638-16.886-37.638-37.64s16.884-37.64 37.638-37.64m0 81.442c24.154 0 43.802-19.65 43.802-43.802s-19.648-43.802-43.802-43.802c-24.15 0-43.8 19.65-43.8 43.802s19.65 43.802 43.8 43.802m-73.91-104.868 70.832-30.83v11.166l-70.832 30.694zm123.876 61.066c0 27.55-22.414 49.964-49.966 49.964-27.548 0-49.962-22.414-49.962-49.964s22.414-49.964 49.962-49.964c27.552 0 49.966 22.414 49.966 49.964m-46.882-91.904 70.83 30.73v10.966l-70.83-30.526zm-83.156 33.52v11.018l-48.46 20.996 128.532 128.534 128.742-128.742-48.666-20.974v-10.948l56.204 24.386 7.494-7.496-143.772-62.378-143.636 62.516 7.49 7.492zm130.038 294.084c0 27.55-22.414 49.964-49.966 49.964-27.548 0-49.962-22.414-49.962-49.964s22.414-49.964 49.962-49.964c27.552 0 49.966 22.414 49.966 49.964m-199.572 47.442c9.378-5.97 19.388-8.766 31.402-8.766 12.426 0 22.71 2.982 32.368 9.384 8.722 5.784 15.696 13.49 23.082 21.654 7.468 8.252 15.19 16.784 24.94 23.248 11.188 7.42 23.56 11.026 37.816 11.026 14.254 0 26.626-3.606 37.816-11.026 9.748-6.464 17.468-14.996 24.94-23.252 7.384-8.16 14.358-15.868 23.076-21.65 9.658-6.402 19.942-9.384 32.368-9.384 12.018 0 22.032 2.8 31.416 8.778l-149.618-149.618zm149.608-51.324c2.144 0 3.882 1.738 3.882 3.882s-1.738 3.882-3.882 3.882-3.882-1.738-3.882-3.882 1.738-3.882 3.882-3.882m3.956 10.736 3.958-6.854-3.958-6.854h-7.914l-3.958 6.854 3.958 6.854zm-3.956-17.876c6.076 0 11.022 4.944 11.022 11.022s-4.946 11.022-11.022 11.022c-6.078 0-11.022-4.944-11.022-11.022s4.944-11.022 11.022-11.022m-17.184 11.022c0 9.476 7.708 17.184 17.184 17.184s17.184-7.708 17.184-17.184-7.708-17.184-17.184-17.184-17.184 7.708-17.184 17.184m54.822 0c0 20.754-16.884 37.64-37.64 37.64-20.754 0-37.638-16.886-37.638-37.64s16.884-37.64 37.638-37.64c20.756 0 37.64 16.886 37.64 37.64m-81.44 0c0 24.152 19.65 43.802 43.8 43.802 24.154 0 43.802-19.65 43.802-43.802s-19.648-43.802-43.802-43.802c-24.15 0-43.8 19.65-43.8 43.802"/></svg>