<svg enable-background="new 0 0 464.714 443.678" height="309.043383" viewBox="0 0 464.714 443.678" width="323.579166" xmlns="http://www.w3.org/2000/svg"><path d="m385.312 175.16c-55.486 18.028-62.93 36.088-61.616 40.13 1.312 4.042 17.95 14.276 73.436-3.752 55.488-18.028 67.582-42.068 67.582-42.068s-23.916-12.34-79.402 5.69m-96.848 148.56c-3.438 2.498-8.03 21.484 26.262 68.682 34.292 47.2 60.894 51.276 60.894 51.276s4.344-26.558-29.95-73.758c-34.292-47.2-53.766-48.698-57.206-46.2m84.314-59.79c28.724 39.534 25.248 92.768-5.386 128.264-1.644-3.08-3.47-6.286-5.49-9.612 25.364-31.884 27.576-78.03 2.49-112.558-11.658-16.044-27.53-27.24-45.006-33.222 13.086 6.67 24.698 16.604 33.846 29.194 23.584 32.462 21.9 70.948-2.278 100.174-.014-.02-.026-.04-.04-.058-.782-1.074-1.546-2.098-2.314-3.13 22.284-27.412 24.314-63.282 1.488-94.7-15.836-21.796-38.482-34.158-61.84-36.354 18.244 3.668 35.398 14.248 47.65 31.112 19.456 26.78 18.684 59.296.054 84.142-.874-1.006-1.738-1.98-2.592-2.928 17.448-23.632 17.556-53.93-.608-78.93-13.574-18.684-33.466-29.274-53.944-30.766 15.264 2.86 29.594 11.54 39.754 25.526 16.018 22.044 15.562 49.51.69 70.274-1.022-.872-2.032-1.712-3.014-2.488 13.736-19.412 14.094-44.974-.82-65.502-11.47-15.786-28.586-24.386-46.078-24.928 12.362 2.06 23.956 8.77 31.888 19.686 13.588 18.704 12.128 43.82-2.068 60.804-1.496-.504-2.898-.86-4.206-1.086 14.212-15.642 16.03-39.674 3.13-57.432-13.384-18.42-38.078-23.85-57.724-13.726 41.044 34.562 49.036 95.668 17.012 139.746-28.724 39.534-80.426 52.678-123.65 34.512 2.42-2.516 4.904-5.242 7.444-8.192 38.162 14.27 82.732 2.114 107.818-32.414 11.658-16.044 17.4-34.6 17.69-53.068-2.302 14.506-8.16 28.62-17.308 41.21-23.584 32.46-60.708 42.752-95.974 28.788.014-.018.028-.036.044-.056.778-1.074 1.516-2.118 2.26-3.168 32.958 12.724 67.7 3.568 90.526-27.848 15.834-21.796 20.594-47.154 15.464-70.048 2.15 18.486-2.612 38.066-14.864 54.932-19.458 26.78-50.622 36.092-80.008 26.054.688-1.144 1.346-2.266 1.984-3.37 27.868 9.292 56.716.03 74.878-24.97 13.576-18.684 17.5-40.874 12.592-60.81 1.996 15.4-1.83 31.71-11.992 45.696-16.016 22.046-42.278 30.098-66.62 22.372.514-1.242.998-2.46 1.434-3.634 22.706 7.062 47.128-.496 62.04-21.024 11.47-15.784 14.362-34.722 9.472-51.526 1.86 12.396-.938 25.496-8.87 36.412-13.59 18.704-37.926 25.076-58.466 16.822.016-1.578-.078-3.022-.268-4.334 19.27 8.682 42.688 2.984 55.588-14.774 12.93-17.796 11.066-41.886-3.23-57.524-20.388 49.332-75.796 75.538-127.404 58.768-46.476-15.1-74.954-60.21-71.034-106.932 3.14 1.526 6.5 3.046 10.09 4.548-1.778 40.704 23.556 79.336 64.148 92.526 18.86 6.128 38.282 5.856 55.936.424-14.508 2.294-29.74 1.084-44.542-3.726-38.16-12.398-59.42-44.526-57.038-82.38.024.008.046.016.068.022 1.262.412 2.484.79 3.712 1.172-1.916 35.276 17.526 65.488 54.46 77.488 25.622 8.326 51.208 5.016 71.396-6.936-16.914 7.756-37.01 9.28-56.836 2.838-31.482-10.23-49.968-36.992-49.502-68.04 1.3.3 2.57.58 3.818.844-.226 29.374 17.498 53.95 46.886 63.498 21.966 7.138 44.282 4.012 61.726-6.816-14.03 6.656-30.726 8.058-47.166 2.716-25.916-8.42-41.69-30.908-41.864-56.446 1.34.104 2.65.19 3.9.24.298 23.778 15.034 44.668 39.166 52.508 18.556 6.03 37.46 2.928 51.93-6.916-11.212 5.6-24.536 6.986-37.37 2.818-21.988-7.146-35.568-28.322-34.066-50.408 1.506-.472 2.85-1.006 4.04-1.592-2.302 21.008 10.352 41.518 31.228 48.302 21.964 7.136 45.482-3.382 55.182-23.68-54.566-2.738-98.116-47.988-98.116-103.222 0-48.866 34.102-89.892 79.75-100.602-.48 3.46-.888 7.126-1.208 11.004-39.262 10.886-68.174 46.918-68.174 89.598 0 19.832 6.26 38.22 16.882 53.33-6.666-13.088-10.222-27.95-10.222-43.512 0-40.124 23.986-70.272 60.722-79.704v.072c0 1.328.018 2.606.032 3.89-34.14 9.08-56.866 36.906-56.866 75.742 0 26.94 11.054 50.252 28.662 65.758-12.606-13.69-20.264-32.332-20.264-53.178 0-33.102 19.74-58.954 49.414-68.104.116 1.328.242 2.624.376 3.892-28.006 8.862-45.902 33.312-45.902 64.212 0 23.096 9.868 43.354 25.558 56.598-10.668-11.284-17.158-26.73-17.158-44.016 0-27.25 16.512-49.202 40.746-57.258.316 1.306.638 2.578.976 3.782-22.52 7.632-37.834 28.102-37.834 53.476 0 19.512 8.79 36.532 22.624 47.25-8.79-8.932-14.226-21.176-14.226-34.67 0-23.118 15.944-42.578 37.412-47.976.914 1.288 1.838 2.402 2.764 3.352-20.692 4.302-36.29 22.674-36.29 44.624 0 22.77 16.788 41.676 38.632 45.034-12.892-52.088 16.562-106.22 68.378-123.056 46.474-15.1 96.03 4.654 120.322 44.758-3.44.612-7.052 1.358-10.84 2.252-22.486-33.976-65.688-50.34-106.28-37.15-18.86 6.128-34.414 17.764-45.502 32.536 10.388-10.384 23.422-18.358 38.224-23.168 38.16-12.398 74.244 1.096 94.566 33.122-.024.008-.044.014-.068.02-1.262.412-2.474.822-3.69 1.234-19.186-29.666-52.672-42.678-89.606-30.678-25.622 8.324-44.376 26.042-53.684 47.58 9.126-16.22 24.488-29.264 44.314-35.704 31.482-10.23 62.168.554 80.04 25.948-1.228.522-2.42 1.04-3.584 1.56-17.086-23.896-45.868-33.36-75.256-23.812-21.966 7.136-38.182 22.782-45.93 41.796 7.438-13.632 20.12-24.578 36.562-29.92 25.914-8.422 51.894.5 67.046 21.058-1.144.704-2.254 1.404-3.296 2.1-14.218-19.062-38.418-27.302-62.55-19.46-18.558 6.03-32.026 19.65-37.946 36.118 5.78-11.12 15.744-20.074 28.576-24.244 21.988-7.144 45.422 2.006 57.188 20.756-.94 1.268-1.714 2.49-2.332 3.664-10.486-18.35-32.78-27.506-53.654-20.722-21.654 7.036-34.448 28.844-30.892 50.656 45.554-28.356 106.138-17.072 138.162 27.004m-198.324 59.79c-3.438-2.498-22.914-1-57.206 46.2-34.294 47.2-29.948 73.758-29.948 73.758s26.6-4.076 60.892-51.276c34.294-47.198 29.7-66.184 26.262-68.682m-33.434-107.41c1.312-4.042-6.13-22.102-61.618-40.13-55.486-18.03-79.402-5.69-79.402-5.69s12.096 24.04 67.582 42.068c55.488 18.028 72.124 7.794 73.438 3.752m71.314-139.036c0-58.342 19.126-77.274 19.126-77.274s19.124 18.932 19.124 77.274-14.874 71.002-19.124 71.002c-4.252 0-19.126-12.66-19.126-71.002"/></svg>