<svg enable-background="new 0 0 443.678 443.678" height="316.227766" viewBox="0 0 443.678 443.678" width="316.227766" xmlns="http://www.w3.org/2000/svg"><path d="m191.642 351.985c1.946-1.946 1.434-3.404.882-4.33l-.208-.306c-4.364-7.286 5.646-18.624 17.282-25.594.63-.376 1.272-.738 1.918-1.094v28.856c-5.138 1.694-10.066 2.362-13.804 1.482-.37 1.576-1.218 3.106-2.584 4.472-1.37 1.37-2.902 2.244-4.484 2.614 1.534 6.548-1.682 16.746-6.8 25.296-2.768 4.62-6.228 8.98-9.848 12.29v-40.298c4.646-3.46 9.338-4.91 13.004-2.716v.002l.312.206c.93.554 2.388 1.064 4.33-.88m91.064 28.752c2.554 15.948-2.608 29.048-17.938 44.378s-28.428 20.494-44.376 17.94c-29.132-4.666-54.142-30.632-63.942-43.916l.028-.028c-4.788-5.628-1.374-18.648 4.928-29.172 1.878-3.136 4.08-6.142 6.428-8.794v38.97c15.634 3.864 36.368-3.166 52.57-19.368 16.198-16.2 23.228-36.934 19.366-52.566-2.922 5.678-9.514 11.686-16.734 16.012-1.732 1.036-3.534 1.984-5.358 2.842v-29.318c8.412-3.444 16.868-4.526 21.112-.924 13.284 9.802 39.252 34.808 43.916 63.944m-121.706-317.796c-2.554-15.948 2.608-29.048 17.938-44.378s28.428-20.494 44.376-17.94c29.134 4.666 54.142 30.63 63.942 43.916l-.028.028c4.79 5.628 1.374 18.648-4.928 29.172-1.878 3.136-4.08 6.142-6.428 8.794v-38.97c-15.632-3.864-36.368 3.166-52.568 19.368-16.2 16.2-23.23 36.934-19.368 52.566 2.922-5.678 9.514-11.686 16.734-16.012 1.732-1.036 3.536-1.984 5.36-2.842v29.318c-8.412 3.444-16.87 4.526-21.114.924-13.284-9.802-39.25-34.808-43.916-63.944m91.064 28.752c-1.944 1.946-1.434 3.404-.88 4.33l.206.306c4.364 7.286-5.646 18.624-17.28 25.594-.63.376-1.272.738-1.918 1.094v-28.856c5.138-1.694 10.066-2.362 13.802-1.482.372-1.576 1.218-3.106 2.584-4.472 1.37-1.37 2.904-2.244 4.484-2.614-1.532-6.548 1.682-16.746 6.802-25.296 2.768-4.62 6.226-8.98 9.846-12.29v40.298c-4.646 3.46-9.336 4.91-13.004 2.716v-.002l-.312-.206c-.93-.554-2.388-1.064-4.33.88m55.342 208.742 81.948-81.948 5.258 5.258 4.356-4.358-14.872-14.872-4.356 4.358 5.256 5.258-81.948 81.948-21.814-21.816 81.948-81.948 5.258 5.26 4.358-4.358-14.874-14.874-4.356 4.358 5.258 5.258-81.948 81.948-21.816-21.814 81.948-81.948 5.258 5.258 4.356-4.358-14.87-14.872-4.358 4.358 5.258 5.256-81.948 81.948-21.896-21.896 98.424-98.424c3.828 2.932 8.236 5.064 12.95 6.202 9.06 2.19 16.092 9.206 18.356 18.314l.932 3.75c3.722 14.98 15.288 26.612 30.186 30.36 11.776 2.962 19.116 9.936 21.822 20.73l.17.776c1.94 8.54 5.16 17.55 13.756 22.682l-96.104 96.102zm-190.964 19.83c-3.83-2.934-8.238-5.066-12.95-6.204-9.06-2.19-16.094-9.206-18.358-18.314l-.932-3.75c-3.722-14.98-15.288-26.612-30.184-30.36-11.778-2.962-19.12-9.938-21.824-20.732l-.17-.774c-1.94-8.54-5.158-17.55-13.754-22.682l96.104-96.104 21.896 21.898-81.948 81.948-5.258-5.258-4.356 4.358 14.87 14.872 4.358-4.358-5.258-5.258 81.948-81.948 21.816 21.814-81.948 81.948-5.258-5.258-4.358 4.358 14.874 14.874 4.356-4.358-5.258-5.258 81.948-81.948 21.814 21.814-81.948 81.948-5.258-5.258-4.356 4.358 14.872 14.872 4.358-4.358-5.258-5.258 81.948-81.946 21.896 21.896zm327.236-98.426-8.356-2.122c-7.65-1.942-11.46-6.916-14.048-18.312l-.208-.946c-3.588-14.434-13.618-24.11-29.004-27.98-11.358-2.856-20.18-11.738-23.022-23.176l-.932-3.752c-3.15-12.684-12.964-22.462-25.61-25.518-2.946-.712-5.726-1.968-8.21-3.672l68.506-68.506-6.97-6.974-173.986 173.986-173.986-173.986-6.97 6.974 66.52 66.52-107.402 107.464 8.352 2.122c7.65 1.942 11.46 6.916 14.05 18.32l.208.938c3.586 14.434 13.614 24.108 29.002 27.98 11.358 2.856 20.18 11.738 23.022 23.176l.932 3.752c3.152 12.684 12.966 22.462 25.61 25.518 2.948.712 5.728 1.97 8.212 3.674l-68.506 68.504 6.97 6.974 173.986-173.986 173.986 173.986 6.97-6.974-66.52-66.52z"/></svg>