<svg enable-background="new 0 0 441.212 441.212" height="316.227766" viewBox="0 0 441.212 441.212" width="316.227766" xmlns="http://www.w3.org/2000/svg"><path d="m324.858 263.788v-86.364l-27.07-27.068 29.654-29.654 99.904 99.904-99.904 99.904-29.654-29.654zm-63.608 54.94h-12.934c-4.822-10.882-15.696-18.052-27.71-18.052-12.016 0-22.888 7.17-27.708 18.052h-12.936l-25.274-25.272h131.834zm-147.482 1.782-99.902-99.904 99.902-99.904 29.656 29.654-27.07 27.068v86.364l27.07 27.068zm66.194-198.028h12.936c4.82 10.884 15.692 18.054 27.708 18.054 12.014 0 22.888-7.17 27.71-18.054h12.934l25.272 25.274h-131.834zm47.576 98.124 65.918-65.918 25.272 25.274v81.288l-25.272 25.272zm-13.864 0-65.918 65.916-25.274-25.272v-81.288l25.274-25.274zm227.538 0-106.836-106.836 66.18-66.182-6.932-6.934-102.768 102.768-27.068-27.068h-19.7l-.728 2.028c-3.442 9.586-12.586 16.026-22.754 16.026s-19.312-6.44-22.754-16.026l-.728-2.028h-19.7l-27.068 27.068-102.768-102.768-6.932 6.934 66.18 66.182-106.836 106.836 106.836 106.836-66.18 66.182 6.932 6.932 102.768-102.768 27.068 27.068h19.7l.728-2.028c3.442-9.584 12.586-16.024 22.754-16.024s19.312 6.44 22.754 16.024l.728 2.028h19.7l27.068-27.068 102.768 102.768 6.932-6.932-66.18-66.182zm-287.65 22.79h-6.128v-45.582h6.128zm134.088-45.58h6.128v45.582h-6.128zm-43.946 200.442c-1.082.078-2.168.036-3.244-.094l-9.01-1.098c-3.602-.438-7.222-.658-10.844-.658s-7.242.22-10.844.658l-9.01 1.098c-1.076.13-2.162.172-3.242.094-5.084-.37-10.116-1.212-15.036-2.5l2.23-20.294c2.79-13.318 3.242-28.084 21.182-36.61 1.692-.804 2.852-2.424 2.992-4.292.016-.196.016-.386.01-.576 7.678-1.514 15.76-1.514 23.436 0-.006.19-.006.382.01.576.14 1.868 1.3 3.488 2.994 4.292 17.938 8.526 18.39 23.292 21.18 36.61l2.232 20.294c-4.922 1.288-9.954 2.13-15.036 2.5m21.846-42.106c-.14 0-.278.012-.418.02-2.412-13.198-12.468-23.736-25.42-26.808h-.002l-3.906-.918c-9.882-2.328-20.512-2.326-30.396-.002l-3.91.92c-.002.002-.004.002-.006.002-12.948 3.076-23 13.612-25.412 26.806-.14-.008-.276-.02-.418-.02-4.062 0-7.354 3.292-7.354 7.352v26.232c0 4.056 3.288 7.346 7.342 7.352.416 6.328 1.9 13.564 4.278 18.508.772 1.604 2.396 2.604 4.164 2.688 6.55 13.566 20.438 22.928 36.514 22.928s29.964-9.362 36.514-22.928c1.768-.084 3.394-1.084 4.164-2.688 2.378-4.944 3.862-12.178 4.278-18.508 4.056-.006 7.342-3.296 7.342-7.352v-26.232c0-4.06-3.292-7.352-7.354-7.352m-68.04-313.198c1.08-.078 2.166-.036 3.242.094l9.01 1.096c3.602.44 7.222.658 10.844.66 3.622-.002 7.242-.22 10.844-.66l9.01-1.096c1.076-.13 2.162-.172 3.244-.094 5.082.37 10.114 1.21 15.036 2.5l-2.232 20.294c-2.79 13.316-3.242 28.084-21.18 36.61-1.694.804-2.854 2.424-2.994 4.292-.016.194-.016.386-.01.576-7.678 1.514-15.76 1.514-23.436 0 .006-.19.006-.382-.01-.576-.14-1.868-1.3-3.488-2.992-4.292-17.94-8.526-18.392-23.294-21.182-36.61l-2.23-20.294c4.92-1.29 9.952-2.13 15.036-2.5m-21.848 42.106c.142 0 .278-.014.418-.02 2.412 13.196 12.468 23.734 25.42 26.806v.002l3.908.918c4.942 1.164 10.056 1.754 15.198 1.754s10.256-.59 15.198-1.754l3.91-.918c0-.002.002-.002.004-.002 12.948-3.074 23.002-13.61 25.414-26.806.14.006.278.02.418.02 4.062 0 7.354-3.292 7.354-7.354v-26.23c0-4.058-3.286-7.348-7.342-7.352-.416-6.33-1.9-13.564-4.278-18.51-.77-1.604-2.396-2.602-4.164-2.686-6.55-13.568-20.438-22.928-36.514-22.928s-29.964 9.36-36.514 22.928c-1.768.084-3.392 1.082-4.164 2.686-2.378 4.946-3.862 12.18-4.278 18.51-4.054.006-7.342 3.296-7.342 7.352v26.23c0 4.062 3.292 7.354 7.354 7.354"/></svg>