<svg enable-background="new 0 0 441.209 441.211" height="316.227766" viewBox="0 0 441.209 441.211" width="316.227766" xmlns="http://www.w3.org/2000/svg"><path d="m34.947 413.441 11.542 11.542s3.648.61 8.662-.006l-15.87-15.87zm0-23.072 31.566 31.564c1.942-.802 3.886-1.75 5.83-2.836l-33.062-33.062zm11.538-34.61 46.396 46.396c1.398-1.618 2.674-3.236 3.814-4.852l-45.876-45.878zm-11.538 11.536 46.044 46.042c1.58-1.224 3.154-2.54 4.72-3.946l-46.43-46.428zm-34.802-146.69c0 9.536 6.102 17.624 14.606 20.638 3.122 1.038 6.07.85 8.77-.596 3.684-1.97 6.046-5.882 6.484-7.902 1.106-5.104.98-8.606-2.778-13.586-.43-.57-.874-1.14-1.32-1.712-3.626-4.66-7.986-10.304-6.534-18.574-10.832 1.326-19.228 10.54-19.228 21.732m78.102-181.322-4.332-4.334-46.042 46.044c1.224 1.58 2.54 3.154 3.946 4.72zm-27.406-4.334-31.564 31.566c.802 1.94 1.752 3.886 2.836 5.83l33.062-33.062zm-6.872 185.656c0-11.608-9.032-21.08-20.446-21.838-1.592 6.946 1.902 11.452 5.586 16.188.458.59.914 1.176 1.356 1.762 3.102 4.108 4.19 7.652 4.19 11.306 0 1.804-.264 3.638-.684 5.578-.418 1.928-1.926 4.998-4.554 7.622 8.476-3.026 14.552-11.102 14.552-20.618m25.59 135.154 32.406 32.406c.974-2.13 1.774-4.224 2.408-6.258l-30.482-30.482zm-59.734-304.89c0 12.712 5.798 27.526 21.248 42.98l.002-.004c6.3 6.302 13.38 10.844 20.984 14.408 8.52 3.598 16.45 4.602 22.69 4.578 14.574-.054 25.302-5.532 28.972-9.18 3.648-3.668 9.126-14.398 9.18-28.97.022-6.242-.98-14.172-4.58-22.692-3.562-7.604-8.106-14.682-14.406-20.982l.004-.004c-15.454-15.45-30.268-21.248-42.982-21.248-11.918 0-21.988 5.096-29.002 12.11s-12.11 17.086-12.11 29.004m100.858 59.69-.002.004c-.008.008-.018.016-.026.022-.008.008-.014.018-.022.026l-.004.004c-3.816 3.844-10.756 7.706-19.658 9.98 15.098 3.954 30.358 8.416 43.858 17.378l1.606-1.606 1.608-1.608c-8.962-13.5-13.426-28.76-17.38-43.856-2.272 8.902-6.134 15.84-9.98 19.656m-86.542-9.778c-32.81-32.81-28.23-66.76-9.14-85.85 19.09-19.092 53.04-23.67 85.85 9.14 8.13 8.13 13.364 16.51 16.668 24.462 5.242 11.408 8.402 23.584 11.496 35.53 5.398 20.836 10.502 40.518 25.76 55.824l43.358 40.956-8.61 8.61-8.61 8.612-40.958-43.36c-15.304-15.258-34.986-20.36-55.822-25.76-11.946-3.096-24.122-6.254-35.53-11.496-7.952-3.304-16.334-8.538-24.462-16.668m389.298 305.482 11.544-11.542s.608-3.646-.006-8.662l-15.87 15.87zm-385.67-371.314-11.542 11.542s-.608 3.646.006 8.66l15.868-15.868zm64.862 320.81 13.97 13.968c.232-3.914-.012-6.656-.236-8.902l-9.4-9.4zm270.33 46.17 4.332 4.334 46.044-46.044c-1.224-1.58-2.54-3.154-3.946-4.72zm34.34-57.414-45.876 45.878 4.332 4.332 46.396-46.396c-1.616-1.398-3.236-2.674-4.852-3.814m-6.934 61.748 31.566-31.566c-.802-1.942-1.752-3.886-2.836-5.83l-33.062 33.062zm-252.394-99.882-1.608-1.608-1.606-1.606c-13.5 8.962-28.76 13.426-43.858 17.38 8.902 2.274 15.842 6.134 19.658 9.978l.002.004c.008.008.016.018.024.026s.018.014.024.022l.004.002c3.846 3.818 7.706 10.758 9.98 19.658 3.954-15.096 8.418-30.356 17.38-43.856m-25.144 60.08c-.052-14.574-5.53-25.302-9.18-28.97-3.668-3.65-14.396-9.128-28.97-9.182-6.24-.022-14.17.98-22.69 4.58-7.606 3.562-14.684 8.106-20.984 14.406l-.002-.004c-15.452 15.454-21.248 30.268-21.248 42.982 0 11.918 5.094 21.988 12.108 29.002 7.016 7.014 17.086 12.11 29.004 12.11 12.714 0 27.528-5.798 42.98-21.248l-.002-.002c6.3-6.3 10.844-13.38 14.406-20.984 3.6-8.52 4.602-16.45 4.578-22.69m76.624-114.774 8.61 8.61-43.358 40.958c-15.26 15.304-20.362 34.986-25.76 55.822-3.096 11.946-6.254 24.122-11.496 35.53-3.304 7.952-8.54 16.334-16.67 24.462-32.81 32.81-66.758 28.232-85.848 9.14-19.092-19.09-23.67-53.04 9.14-85.85 8.128-8.128 16.508-13.364 24.462-16.668 11.408-5.242 23.582-8.4 35.53-11.496 20.836-5.398 40.516-10.5 55.822-25.76l40.956-43.358zm198.712 87.558c-2.132-.974-4.226-1.774-6.26-2.408l-30.48 30.482 4.332 4.334zm-173.212 72.856c.59-.458 1.176-.914 1.762-1.356 4.11-3.102 7.652-4.19 11.308-4.19 1.804 0 3.636.266 5.578.686 1.928.416 4.998 1.924 7.622 4.552-3.028-8.476-11.104-14.552-20.618-14.552-11.608 0-21.082 9.03-21.84 20.446 6.948 1.592 11.454-1.902 16.188-5.586m154.772-77.49c-3.914-.234-6.654.01-8.9.236l-9.4 9.398 4.332 4.334zm-136.982 76.594c-5.104-1.106-8.606-.98-13.584 2.78-.57.428-1.14.872-1.714 1.32-4.66 3.624-10.302 7.984-18.572 6.532 1.326 10.832 10.54 19.228 21.732 19.228 9.534 0 17.624-6.102 20.636-14.604 1.038-3.124.85-6.072-.594-8.772-1.972-3.682-5.882-6.046-7.904-6.484m198.642-20.862c0-12.712-5.798-27.526-21.25-42.98l-.002.002c-6.3-6.3-13.378-10.844-20.982-14.406-8.522-3.6-16.452-4.602-22.692-4.578-14.574.054-25.302 5.53-28.97 9.18-3.65 3.668-9.128 14.396-9.18 28.97-.024 6.24.978 14.17 4.578 22.692 3.562 7.604 8.106 14.682 14.406 20.982l-.002.002c15.454 15.452 30.268 21.25 42.98 21.25 11.918 0 21.99-5.096 29.004-12.11 7.014-7.016 12.11-17.086 12.11-29.004m-100.86-59.692.004-.002.024-.024.024-.024.002-.004c3.816-3.846 10.756-7.706 19.658-9.98-15.096-3.954-30.358-8.418-43.856-17.378l-1.608 1.606-1.606 1.608c8.96 13.498 13.424 28.758 17.378 43.856 2.274-8.902 6.136-15.842 9.98-19.658m86.544 9.78c32.81 32.81 28.23 66.758 9.138 85.848-19.09 19.092-53.038 23.672-85.848-9.138-8.13-8.13-13.364-16.51-16.67-24.462-5.242-11.41-8.4-23.584-11.494-35.532-5.4-20.836-10.502-40.518-25.76-55.822l-43.36-40.956 8.61-8.61 8.612-8.612 40.956 43.36c15.306 15.258 34.988 20.36 55.824 25.758 11.946 3.096 24.122 6.254 35.528 11.496 7.954 3.306 16.334 8.54 24.464 16.67m-113.832-205.602 1.608 1.608 1.606 1.606c13.5-8.96 28.76-13.424 43.856-17.378-8.902-2.274-15.84-6.134-19.656-9.98l-.004-.004c-.008-.006-.014-.016-.024-.024-.006-.008-.016-.016-.024-.024l-.004-.002c-3.844-3.816-7.704-10.756-9.98-19.658-3.952 15.096-8.416 30.358-17.378 43.856m25.142-60.078c.054 14.574 5.532 25.302 9.18 28.97 3.67 3.65 14.398 9.128 28.972 9.18 6.238.024 14.17-.978 22.69-4.578 7.604-3.564 14.684-8.106 20.984-14.406l.002.002c15.45-15.452 21.248-30.268 21.248-42.98 0-11.918-5.096-21.99-12.11-29.004s-17.084-12.108-29.002-12.108c-12.714 0-27.528 5.796-42.98 21.248v.002c-6.3 6.3-10.842 13.378-14.406 20.984-3.6 8.52-4.6 16.45-4.578 22.69m-76.622 114.772-8.612-8.61 43.36-40.956c15.258-15.304 20.362-34.986 25.76-55.824 3.096-11.946 6.254-24.12 11.494-35.528 3.306-7.954 8.54-16.334 16.67-24.464 32.81-32.81 66.76-28.23 85.85-9.138 19.09 19.09 23.67 53.038-9.14 85.848-8.13 8.13-16.51 13.364-24.462 16.67-11.408 5.24-23.584 8.4-35.53 11.494-20.836 5.4-40.518 10.502-55.824 25.76l-40.956 43.36zm154.504-161.754-11.542-11.54s-3.646-.61-8.66.004l15.87 15.87zm34.802 192.838c0-9.536-6.1-17.626-14.604-20.638-3.124-1.038-6.072-.85-8.77.594-3.684 1.97-6.046 5.884-6.484 7.904-1.106 5.102-.98 8.606 2.778 13.586.43.57.872 1.138 1.32 1.712 3.624 4.66 7.984 10.302 6.532 18.572 10.834-1.324 19.228-10.54 19.228-21.73m-397.156-123.91 45.878-45.878-4.334-4.332-46.396 46.394c1.618 1.4 3.238 2.676 4.852 3.816m362.354-22.78-46.044-46.044c-1.58 1.226-3.154 2.54-4.72 3.946l46.432 46.43zm-57.682 11.536-13.97-13.968c-.232 3.914.012 6.656.236 8.902l9.4 9.398zm46.146 0-46.398-46.396c-1.398 1.618-2.674 3.236-3.814 4.852l45.878 45.876zm17.066 114.536c-8.476 3.026-14.552 11.102-14.552 20.618 0 11.606 9.032 21.08 20.448 21.838 1.59-6.948-1.904-11.454-5.586-16.188-.458-.59-.914-1.176-1.356-1.762-3.102-4.108-4.192-7.652-4.192-11.308 0-1.804.266-3.636.686-5.578.418-1.928 1.924-4.996 4.552-7.62m-5.53-149.146-31.566-31.566c-1.94.802-3.884 1.752-5.83 2.838l33.064 33.062zm-353.216 51.124c2.13.974 4.224 1.774 6.26 2.406l30.48-30.482-4.334-4.332zm18.438 4.634c3.914.234 6.656-.012 8.902-.236l9.4-9.4-4.334-4.334zm136.982-76.594c5.104 1.104 8.606.978 13.584-2.78.572-.43 1.142-.872 1.716-1.32 4.66-3.624 10.302-7.984 18.572-6.532-1.326-10.834-10.54-19.23-21.732-19.23-9.534 0-17.626 6.102-20.638 14.606-1.036 3.124-.848 6.072.594 8.77 1.972 3.684 5.884 6.048 7.904 6.486m163.186 55.446-32.408-32.406c-.972 2.13-1.774 4.224-2.406 6.258l30.48 30.48zm-133.032 170.708 17.54-17.542-2.946-3.122c-1.402-1.484-3.376-2.352-5.414-2.38-.038 0-.076-.002-.114-.002-2.026 0-3.928.788-5.364 2.224l-6.98 6.98c-1.444 1.444-2.254 3.442-2.222 5.474.028 2.038.892 4.012 2.376 5.416zm9.174-48.068c2.036-.03 4.01-.894 5.416-2.378l2.95-3.124-17.54-17.54-3.122 2.948c-1.486 1.4-2.354 3.374-2.38 5.412-.002.038-.002.076-.002.114 0 2.026.788 3.928 2.224 5.366l6.978 6.978c1.444 1.444 3.444 2.254 5.476 2.224m-54.268.002c2.026 0 3.928-.788 5.364-2.224l6.978-6.978c1.446-1.444 2.256-3.442 2.224-5.476-.028-2.036-.894-4.01-2.378-5.416l-3.122-2.95-17.542 17.542 2.948 3.12c1.402 1.486 3.376 2.354 5.414 2.38.036.002.076.002.114.002m32.732-178.986c-.59.46-1.178.914-1.762 1.358-4.112 3.1-7.654 4.19-11.308 4.19-1.806 0-3.636-.266-5.58-.686-1.926-.416-4.996-1.924-7.62-4.552 3.026 8.474 11.102 14.552 20.618 14.552 11.608 0 21.082-9.032 21.838-20.448-6.946-1.59-11.454 1.904-16.186 5.586m-23.666 227.052-17.54-17.54 2.95-3.124c1.404-1.484 3.378-2.35 5.416-2.378 2.032-.032 4.03.78 5.476 2.224l6.978 6.978c1.436 1.436 2.222 3.338 2.222 5.364v.114c-.028 2.038-.896 4.012-2.38 5.414z"/></svg>